<?xml version="1.0" encoding="iso-8859-1"?>
<!-- Generator: Adobe Illustrator 19.0.0, SVG Export Plug-In . SVG Version: 6.00 Build 0)  -->
<svg version="1.1" id="Layer_1" xmlns="http://www.w3.org/2000/svg" xmlns:xlink="http://www.w3.org/1999/xlink" x="0px" y="0px"
	 viewBox="0 0 512 512" style="enable-background:new 0 0 512 512;" xml:space="preserve">
<circle style="fill:#CFF09E;" cx="255.997" cy="255.997" r="167.991"/>
<g>
	<path style="fill:#507C5C;" d="M256,0c-7.664,0-13.877,6.213-13.877,13.877S248.336,27.753,256,27.753
		c57.945,0,110.905,21.716,151.199,57.422l-32.782,32.781C341.467,89.6,299.927,74.132,256,74.132
		c-45.158,0-86.517,16.549-118.35,43.892L95.044,75.42c-0.075-0.075-0.158-0.139-0.235-0.212c-0.071-0.075-0.132-0.154-0.205-0.228
		c-5.417-5.419-14.206-5.419-19.624,0C26.628,123.333,0,187.62,0,256c0,141.159,114.841,256,256,256
		c68.38,0,132.668-26.628,181.02-74.981S512,324.379,512,256C512,114.842,397.159,0,256,0z M365.043,147.093
		c5.415,5.423,14.2,5.427,19.624,0.011c0.402-0.402,0.766-0.828,1.109-1.264c0.029-0.029,0.061-0.053,0.09-0.082l40.958-40.957
		c32.834,37.054,53.824,84.82,56.989,137.322h-15.441c-7.663,0-13.877,6.213-13.877,13.877s6.214,13.877,13.877,13.877h15.445
		c-3.047,51.144-22.905,99.081-56.914,137.401l-32.929-32.929c27.344-31.832,43.892-73.193,43.892-118.35
		c0-7.664-6.214-13.877-13.877-13.877c-7.663,0-13.877,6.213-13.877,13.877c0,84.978-69.135,154.115-154.115,154.115
		s-154.115-69.135-154.115-154.115s69.135-154.115,154.115-154.115C297.2,101.887,335.927,117.941,365.043,147.093z M256,453.159
		c-7.664,0-13.877,6.213-13.877,13.877v16.777c-52.502-3.165-100.269-24.154-137.322-56.987l32.849-32.849
		c31.833,27.344,73.193,43.892,118.35,43.892s86.517-16.549,118.35-43.892l32.929,32.929
		c-38.319,34.009-86.258,53.867-137.403,56.912v-16.782C269.877,459.371,263.663,453.159,256,453.159z M28.188,269.877h46.47
		c3.011,39.73,18.85,75.932,43.367,104.473l-32.85,32.849C52.342,370.147,31.353,322.379,28.188,269.877z M85.096,104.722
		l32.929,32.929c-24.517,28.542-40.355,64.743-43.367,104.473H28.182C31.229,190.979,51.087,143.041,85.096,104.722z"/>
	<path style="fill:#507C5C;" d="M312.306,244.958v-38.054c9.397,2.105,14.422,7.43,14.935,15.835
		c0.103,1.675,1.375,2.986,2.897,2.986h15.198c0.747,0,1.457-0.312,1.997-0.877c0.622-0.651,0.955-1.567,0.91-2.516
		c-0.985-21.657-14.074-35.956-35.938-39.31v-12.687c0-1.765-1.303-3.201-2.906-3.201h-15.196c-1.603,0-2.907,1.436-2.907,3.201
		v12.687c-22.89,3.507-35.999,18.789-35.999,42.01s13.109,38.502,35.999,42.009v38.055c-9.397-2.105-14.422-7.428-14.935-15.835
		c-0.103-1.675-1.375-2.986-2.897-2.986h-15.198c-0.747,0-1.457,0.312-1.997,0.877c-0.622,0.651-0.955,1.568-0.91,2.517
		c0.985,21.656,14.074,35.955,35.938,39.31v12.689c0,1.765,1.303,3.201,2.907,3.201H309.4c1.601,0,2.906-1.436,2.906-3.201V328.98
		c22.89-3.507,35.999-18.789,35.999-42.01C348.305,263.749,335.196,248.466,312.306,244.958z M327.297,286.969
		c0,4.073,0.001,14.769-14.991,18.127v-36.254C327.298,272.2,327.297,282.897,327.297,286.969z M276.307,225.031
		c0-4.073-0.001-14.769,14.99-18.127v36.253C276.306,239.8,276.307,229.103,276.307,225.031z"/>
	<path style="fill:#507C5C;" d="M233.073,256.541c8.952-7.951,14.07-19.283,14.07-31.218c0-23.006-18.718-41.723-41.724-41.723
		l-39.586,0.004c-1.18,0-2.137,0.956-2.137,2.137v140.26c0,1.325,1.074,2.399,2.399,2.399h16.214c1.325,0,2.399-1.074,2.399-2.399
		v-58.95h20.722l0.183-0.003c11.314,0.105,20.517,9.396,20.517,20.71v38.244c0,1.325,1.074,2.399,2.399,2.399h16.214
		c1.325,0,2.399-1.074,2.399-2.399v-38.244C247.144,275.823,242.025,264.491,233.073,256.541z M224.091,234.538
		c-3.182,7.088-10.406,11.495-18.174,11.495h-21.208v-41.416h20.719l0.198-0.003C219.907,204.753,230.825,219.538,224.091,234.538z"
		/>
</g>
<g>
</g>
<g>
</g>
<g>
</g>
<g>
</g>
<g>
</g>
<g>
</g>
<g>
</g>
<g>
</g>
<g>
</g>
<g>
</g>
<g>
</g>
<g>
</g>
<g>
</g>
<g>
</g>
<g>
</g>
</svg>
