<svg id="Layer_1" enable-background="new 0 0 512 512" height="512" viewBox="0 0 512 512" width="512" xmlns="http://www.w3.org/2000/svg"><g><g><ellipse clip-rule="evenodd" cx="256" cy="256" fill="#ffde46" fill-rule="evenodd" rx="241" ry="241" transform="matrix(.707 -.707 .707 .707 -106.039 256)"/></g><path clip-rule="evenodd" d="m256.149 15.002v481.996c132.67-.081 240.851-108.31 240.851-240.998s-108.181-240.917-240.851-240.998z" fill="#ffcd00" fill-rule="evenodd"/><g><path d="m256 512c-141.159 0-256-114.841-256-256s114.841-256 256-256 256 114.841 256 256-114.841 256-256 256zm0-482c-124.617 0-226 101.383-226 226s101.383 226 226 226 226-101.383 226-226-101.383-226-226-226z" fill="#fdbf00"/></g><path d="m207.332 249.609c14.446-12.481 23.683-31.427 23.683-52.608 0-37.495-28.935-68-64.5-68h-46c-.081 0-.16.011-.24.012-.087-.002-.172-.013-.26-.013-8.284 0-15 6.716-15 15v204.003c0 8.284 6.716 15 15 15s15-6.716 15-15v-83.003h25.998c28.122 0 51 22.878 51 51v31.999c0 8.284 6.716 15 15 15s15-6.716 15-15v-31.999c0-27.448-13.736-51.734-34.681-66.391zm-72.317-14.609v-76h31.5c19.023 0 34.5 17.047 34.5 38s-15.477 38-34.5 38z" fill="#fdbf00"/><g fill="#ff8856"><path d="m406.986 297c0-36.393-31.521-66-70.267-66h-5.412c-22.203 0-40.267-16.149-40.267-36s18.063-36 40.267-36h50.706c8.284 0 15-6.716 15-15s-6.716-15-15-15h-28v-12c0-8.284-6.716-15-15-15s-15 6.716-15 15v12.356c-35.33 3.438-62.973 31.565-62.973 65.644 0 36.393 31.521 66 70.267 66h5.412c22.203 0 40.267 16.149 40.267 36s-18.063 36-40.267 36h-50.706c-8.284 0-15 6.716-15 15s6.716 15 15 15h38v12.003c0 8.284 6.716 15 15 15s15-6.716 15-15v-14.031c30.41-7.256 52.973-33.183 52.973-63.972z"/><path d="m256.149.002v30c124.549.081 225.851 101.431 225.851 225.998s-101.302 225.917-225.851 225.998v30c141.091-.081 255.851-114.889 255.851-255.998s-114.76-255.917-255.851-255.998z"/></g></g></svg>