<svg height="512" viewBox="0 0 512 512" width="512" xmlns="http://www.w3.org/2000/svg"><g id="filled_outline" data-name="filled outline"><path d="m347.077 212.923-91.077 91.077-91.077-91.077a44.124 44.124 0 0 1 -12.923-31.2 44.124 44.124 0 0 1 44.123-44.123 44.124 44.124 0 0 1 31.2 12.923l28.677 28.677 28.677-28.677a44.124 44.124 0 0 1 31.2-12.923 44.124 44.124 0 0 1 44.123 44.123 44.124 44.124 0 0 1 -12.923 31.2z" fill="#e82f3e"/><path d="m212 291-12-59v-5h10a30 30 0 0 1 30 30v10a24 24 0 0 1 24 24v24z" fill="#d32b39"/><path d="m208 488 16-152-24-40v-64h8a24 24 0 0 1 24 24v16a24 24 0 0 1 24 24v8l32-32v216z" fill="#fdc9a6"/><path d="m479.458 329.786-60.198 60.614-60.2-60.614a29.164 29.164 0 0 1 -8.542-20.622 29.164 29.164 0 0 1 29.166-29.164 29.164 29.164 0 0 1 20.622 8.542l18.954 18.958 18.954-18.954a29.164 29.164 0 0 1 20.622-8.546 29.164 29.164 0 0 1 29.164 29.164 29.164 29.164 0 0 1 -8.542 20.622z" fill="#e82f3e"/><path d="m370.26 376.992-7-58.592v-5.408h10a30 30 0 0 1 30 30v10a24 24 0 0 1 24 24v24z" fill="#d32b39"/><path d="m384 488 3.26-65.6-24-40v-64h8a24 24 0 0 1 24 24v16a24 24 0 0 1 24 24v8l32-32.416v130.016z" fill="#fdc9a6"/><path d="m152.938 305.786-60.198 60.614-60.2-60.614a29.164 29.164 0 0 1 -8.54-20.622 29.164 29.164 0 0 1 29.164-29.164 29.164 29.164 0 0 1 20.622 8.542l18.954 18.958 18.954-18.954a29.164 29.164 0 0 1 20.622-8.546 29.164 29.164 0 0 1 29.164 29.164 29.164 29.164 0 0 1 -8.542 20.622z" fill="#e82f3e"/><path d="m45.74 352.992-9-58.592v-5.408h10a30 30 0 0 1 30 30v10a24 24 0 0 1 24 24v24z" fill="#d32b39"/><path d="m57.48 488 3.26-89.6-24-40v-64h8a24 24 0 0 1 24 24v16a24 24 0 0 1 24 24v8l32-32.221v41.821l-4.74 24v88z" fill="#fdc9a6"/><path d="m272 256a8 8 0 0 1 -5.657-13.657l8-8a8 8 0 0 1 11.314 11.314l-8 8a7.974 7.974 0 0 1 -5.657 2.343z" fill="#961b20"/><path d="m304 224a8 8 0 0 1 -5.657-13.657l16-16a8 8 0 0 1 11.314 11.314l-16 16a7.974 7.974 0 0 1 -5.657 2.343z" fill="#961b20"/><g fill="#fbb540"><path d="m138.641 48a8 8 0 0 1 -8-8v-16a8 8 0 0 1 16 0v16a8 8 0 0 1 -8 8z"/><path d="m117.849 60a7.967 7.967 0 0 1 -3.993-1.073l-13.856-8a8 8 0 0 1 8-13.856l13.856 8a8 8 0 0 1 -4.007 14.929z"/><path d="m104.008 92a8 8 0 0 1 -4.008-14.928l13.856-8a8 8 0 1 1 8 13.856l-13.856 8a7.969 7.969 0 0 1 -3.992 1.072z"/><path d="m138.641 112a8 8 0 0 1 -8-8v-16a8 8 0 0 1 16 0v16a8 8 0 0 1 -8 8z"/><path d="m173.274 92a7.966 7.966 0 0 1 -3.992-1.073l-13.856-8a8 8 0 0 1 8-13.856l13.856 8a8 8 0 0 1 -4.008 14.929z"/><path d="m159.434 60a8 8 0 0 1 -4.008-14.929l13.856-8a8 8 0 1 1 8 13.856l-13.856 8a7.969 7.969 0 0 1 -3.992 1.073z"/><path d="m433 224a8 8 0 0 1 -8-8v-8a8 8 0 0 1 16 0v8a8 8 0 0 1 -8 8z"/><path d="m405.29 208a8 8 0 0 1 -4.008-14.929l6.928-4a8 8 0 1 1 8 13.856l-6.928 4a7.969 7.969 0 0 1 -3.992 1.073z"/><path d="m412.2 180a7.966 7.966 0 0 1 -3.992-1.073l-6.928-4a8 8 0 0 1 8-13.856l6.928 4a8 8 0 0 1 -4.008 14.929z"/><path d="m433 168a8 8 0 0 1 -8-8v-8a8 8 0 0 1 16 0v8a8 8 0 0 1 -8 8z"/><path d="m453.787 180a8 8 0 0 1 -4.008-14.93l6.929-4a8 8 0 1 1 8 13.858l-6.929 4a7.972 7.972 0 0 1 -3.992 1.072z"/><path d="m460.7 208a7.975 7.975 0 0 1 -3.992-1.072l-6.929-4a8 8 0 0 1 8-13.858l6.929 4a8 8 0 0 1 -4.008 14.93z"/></g><path d="m159.267 218.581 32.733 32.733v44.686a8.009 8.009 0 0 0 1.14 4.116l22.624 37.706-15.72 149.34a8 8 0 0 0 7.956 8.838h80a8 8 0 0 0 8-8v-212.686l56.733-56.733a52.124 52.124 0 0 0 -73.713-73.715l-23.02 23.021-23.02-23.021a52.124 52.124 0 0 0 -73.713 73.715zm120.733 261.419h-63.113l15.069-143.162a8 8 0 0 0 -1.1-4.954l-22.856-38.1v-53.784a16.019 16.019 0 0 1 16 16v16a8 8 0 0 0 8 8 16.019 16.019 0 0 1 16 16v8a8 8 0 0 0 13.657 5.657l18.343-18.344zm-83.877-334.4a35.883 35.883 0 0 1 25.543 10.581l28.677 28.676a8 8 0 0 0 11.314 0l28.677-28.676a36.123 36.123 0 1 1 51.085 51.086l-59.076 59.076-19.872 19.873a32.131 32.131 0 0 0 -22.471-21.203v-9.013a32.036 32.036 0 0 0 -32-32h-8a8 8 0 0 0 -7.486 5.2l-21.933-21.933a36.123 36.123 0 0 1 25.542-61.667z"/><path d="m458.836 272a36.921 36.921 0 0 0 -26.279 10.885l-13.3 13.3-13.3-13.3a37.164 37.164 0 0 0 -52.558 52.557l1.855 1.854v45.1a8.011 8.011 0 0 0 1.139 4.117l22.75 37.915-3.133 63.172a8 8 0 0 0 7.99 8.4h67.26a8 8 0 0 0 8-8v-126.7l25.855-25.856a37.164 37.164 0 0 0 -26.279-63.444zm-15.576 208h-50.853l2.843-57.2a8.006 8.006 0 0 0 -1.13-4.514l-22.86-38.1v-53.786a16.019 16.019 0 0 1 16 16v16a8 8 0 0 0 8 8 16.019 16.019 0 0 1 16 16v8a8 8 0 0 0 13.657 5.658l18.343-18.344zm30.54-155.871-28.4 28.406a7.975 7.975 0 0 0 -1.294 1.71l-18.376 18.371a32.128 32.128 0 0 0 -22.47-21.2v-9.016a32.037 32.037 0 0 0 -32-32h-8a7.956 7.956 0 0 0 -4.554 1.428 21.412 21.412 0 0 1 -.185-2.664 21.162 21.162 0 0 1 36.127-14.964l18.952 18.953a8 8 0 0 0 11.314 0l18.957-18.953a21.164 21.164 0 1 1 29.93 29.93z"/><path d="m79.443 258.885a37.164 37.164 0 0 0 -52.558 52.558l1.855 1.857v45.1a8.012 8.012 0 0 0 1.14 4.117l22.779 37.964-3.175 87.228a8 8 0 0 0 7.995 8.291h62.521a8 8 0 0 0 8-8v-87.218l4.589-23.232a8.055 8.055 0 0 0 .151-1.55v-38.32l25.86-26.238a37.164 37.164 0 0 0 -52.559-52.557l-13.3 13.3zm37.3 116.333-4.589 23.232a8.055 8.055 0 0 0 -.154 1.55v80h-46.224l2.959-81.309a8.011 8.011 0 0 0 -1.134-4.407l-22.861-38.1v-53.784a16.019 16.019 0 0 1 16 16v16a8 8 0 0 0 8 8 16.019 16.019 0 0 1 16 16v8a8 8 0 0 0 13.66 5.658l18.343-18.344zm.612-105.02a21.164 21.164 0 1 1 29.888 29.973l-28.155 28.57-19.877 19.875a32.131 32.131 0 0 0 -22.471-21.2v-9.016a32.037 32.037 0 0 0 -32-32h-8a7.961 7.961 0 0 0 -4.555 1.428 21.592 21.592 0 0 1 -.185-2.664 21.164 21.164 0 0 1 36.129-14.964l18.954 18.954a8 8 0 0 0 11.314 0z"/><path d="m272 256a7.974 7.974 0 0 0 5.657-2.343l8-8a8 8 0 0 0 -11.314-11.314l-8 8a8 8 0 0 0 5.657 13.657z"/><path d="m304 224a7.974 7.974 0 0 0 5.657-2.343l16-16a8 8 0 0 0 -11.314-11.314l-16 16a8 8 0 0 0 5.657 13.657z"/><path d="m138.641 16a8 8 0 0 0 -8 8v16a8 8 0 0 0 16 0v-16a8 8 0 0 0 -8-8z"/><path d="m100 50.928 13.856 8a8 8 0 1 0 8-13.856l-13.856-8a8 8 0 0 0 -8 13.856z"/><path d="m97.072 88a8 8 0 0 0 10.928 2.928l13.856-8a8 8 0 1 0 -8-13.856l-13.856 8a8 8 0 0 0 -2.928 10.928z"/><path d="m130.641 104a8 8 0 0 0 16 0v-16a8 8 0 0 0 -16 0z"/><path d="m155.426 82.928 13.856 8a8 8 0 0 0 8-13.856l-13.856-8a8 8 0 0 0 -8 13.856z"/><path d="m159.434 60a7.969 7.969 0 0 0 3.992-1.073l13.856-8a8 8 0 1 0 -8-13.856l-13.856 8a8 8 0 0 0 4.008 14.929z"/><path d="m425 216a8 8 0 0 0 16 0v-8a8 8 0 0 0 -16 0z"/><path d="m398.354 204a8 8 0 0 0 10.928 2.928l6.928-4a8 8 0 1 0 -8-13.856l-6.928 4a8 8 0 0 0 -2.928 10.928z"/><path d="m401.282 174.928 6.928 4a8 8 0 1 0 8-13.856l-6.928-4a8 8 0 0 0 -8 13.856z"/><path d="m433 168a8 8 0 0 0 8-8v-8a8 8 0 0 0 -16 0v8a8 8 0 0 0 8 8z"/><path d="m453.787 180a7.972 7.972 0 0 0 3.992-1.072l6.929-4a8 8 0 1 0 -8-13.858l-6.929 4a8 8 0 0 0 4.008 14.93z"/><path d="m449.779 202.929 6.929 4a8 8 0 1 0 8-13.858l-6.929-4a8 8 0 0 0 -8 13.858z"/></g></svg>