<svg height="512" viewBox="0 0 512 512" width="512" xmlns="http://www.w3.org/2000/svg"><g id="filled_outline" data-name="filled outline"><path d="m352.449 432.356h66a14 14 0 0 1 14 14v18a0 0 0 0 1 0 0h-80a0 0 0 0 1 0 0v-32a0 0 0 0 1 0 0z" fill="#0296e5" transform="matrix(-.705 -.709 .709 -.705 351.284 1042.783)"/><path d="m354.932 381.429h50a14 14 0 0 1 14 14v18a0 0 0 0 1 0 0h-50a14 14 0 0 1 -14-14v-18a0 0 0 0 1 0 0z" fill="#0276b4" transform="matrix(-.705 -.709 .709 -.705 377.986 952.033)"/><path d="m341.415 330.5h80a0 0 0 0 1 0 0v32a0 0 0 0 1 0 0h-66a14 14 0 0 1 -14-14v-18a0 0 0 0 1 0 0z" fill="#0296e5" transform="matrix(-.705 -.709 .709 -.705 404.688 861.282)"/><path d="m34.282 436.307h80a0 0 0 0 1 0 0v18a14 14 0 0 1 -14 14h-66a0 0 0 0 1 0 0v-32a0 0 0 0 1 0 0z" fill="#02a437" transform="matrix(.84 -.543 .543 .84 -233.51 112.655)"/><path d="m72.522 387.724h50a0 0 0 0 1 0 0v18a14 14 0 0 1 -14 14h-50a0 0 0 0 1 0 0v-18a14 14 0 0 1 14-14z" fill="#029532" transform="matrix(.84 -.543 .543 .84 -204.555 113.694)"/><path d="m80.762 339.142h66a0 0 0 0 1 0 0v32a0 0 0 0 1 0 0h-80a0 0 0 0 1 0 0v-18a14 14 0 0 1 14-14z" fill="#02a437" transform="matrix(.84 -.543 .543 .84 -175.599 114.734)"/><path d="m108.19 47.468h66a14 14 0 0 1 14 14v18a0 0 0 0 1 0 0h-80a0 0 0 0 1 0 0v-32a0 0 0 0 1 0 0z" fill="#0296e5" transform="matrix(.712 .702 -.702 .712 87.151 -85.738)"/><path d="m122.232 98.336h50a14 14 0 0 1 14 14v18a0 0 0 0 1 0 0h-50a14 14 0 0 1 -14-14v-18a0 0 0 0 1 0 0z" fill="#0276b4" transform="matrix(.712 .702 -.702 .712 124.583 -75.351)"/><path d="m120.275 149.2h80a0 0 0 0 1 0 0v32a0 0 0 0 1 0 0h-66a14 14 0 0 1 -14-14v-18a0 0 0 0 1 0 0z" fill="#0296e5" transform="matrix(.712 .702 -.702 .712 162.016 -64.964)"/><circle cx="256" cy="88" fill="#e82f3e" r="16"/><circle cx="456" cy="312" fill="#02a437" r="16"/><circle cx="192" cy="448" fill="#e82f3e" r="16"/><circle cx="64" cy="104" fill="#ea9d2d" r="16"/><circle cx="88" cy="256" fill="#fbb540" r="32"/><circle cx="384" cy="224" fill="#0296e5" r="24"/><circle cx="432" cy="72" fill="#e82f3e" r="32"/><path d="m263.6 194.734 13.315 40.979h43.085a7.987 7.987 0 0 1 4.695 14.448l-34.859 25.326 13.315 40.979a7.986 7.986 0 0 1 -12.29 8.929l-34.861-25.326-34.859 25.331a7.986 7.986 0 0 1 -12.29-8.929l13.315-40.979-34.859-25.326a7.987 7.987 0 0 1 4.7-14.448h43.083l13.315-40.979a7.986 7.986 0 0 1 15.195-.005z" fill="#fbb540"/><path d="m235.276 371.529h48v32h-48z" fill="#02a437" transform="matrix(.778 .628 -.628 .778 301.148 -76.852)"/><path d="m435.276 155.529h48v32h-48z" fill="#029532" transform="matrix(.778 .628 -.628 .778 209.832 -250.531)"/><path d="m307.529 132.724h48v32h-48z" fill="#02a437" transform="matrix(.628 -.778 .778 .628 7.492 313.132)"/><g fill="#e82f3e"><path d="m328 64a7.976 7.976 0 0 1 -5.657-2.343l-16-16a8 8 0 0 1 11.314-11.314l16 16a8 8 0 0 1 -5.657 13.657z"/><path d="m175.993 392a8 8 0 0 1 -6.649-12.439l16-24a8 8 0 0 1 13.312 8.876l-16 24a7.991 7.991 0 0 1 -6.663 3.563z"/><path d="m328 464a7.976 7.976 0 0 1 -5.657-2.343l-16-16a8 8 0 0 1 11.314-11.314l16 16a8 8 0 0 1 -5.657 13.657z"/><path d="m432 272a8 8 0 0 1 -5.657-13.657l16-16a8 8 0 0 1 11.314 11.314l-16 16a7.976 7.976 0 0 1 -5.657 2.343z"/><path d="m56 192a7.976 7.976 0 0 1 -5.657-2.343l-16-16a8 8 0 0 1 11.314-11.314l16 16a8 8 0 0 1 -5.657 13.657z"/></g><path d="m416.766 348.013-46.54-46.8a8 8 0 0 0 -11.314-.031l-22.689 22.564a8 8 0 0 0 -.032 11.314l28.209 28.365-7.091 7.053a22.025 22.025 0 0 0 -.085 31.112l7.051 7.09-7.09 7.051a22 22 0 0 0 -.085 31.114l46.54 46.8a8 8 0 0 0 5.649 2.355h.022a8 8 0 0 0 5.641-2.328l22.689-22.566a8 8 0 0 0 .031-11.313l-28.206-28.361 7.09-7.051a22 22 0 0 0 .086-31.113l-7.052-7.091 7.091-7.052a22.025 22.025 0 0 0 .085-31.112zm-7.424 128.674-40.9-41.125a6 6 0 0 1 .024-8.486l7.09-7.051 45.131 45.375zm-40.776-86.38a6.008 6.008 0 0 1 .023-8.486l7.091-7.051 29.62 29.781a6 6 0 0 1 -.023 8.484l-7.09 7.052zm-15.388-60.854 11.344-11.282 40.9 41.125a6.005 6.005 0 0 1 -.023 8.484l-7.09 7.052-.02-.02z"/><path d="m25.28 464.907 17.361 26.882a8 8 0 0 0 11.059 2.381l55.442-35.809a22.025 22.025 0 0 0 6.544-30.417l-5.425-8.4 8.4-5.426a22.025 22.025 0 0 0 6.544-30.417l-5.424-8.4 33.6-21.7a8 8 0 0 0 2.38-11.061l-17.361-26.88a8 8 0 0 0 -11.06-2.381l-55.44 35.808a22 22 0 0 0 -6.545 30.413l5.426 8.4-8.4 5.425a22 22 0 0 0 -6.546 30.417l5.426 8.4-33.6 21.7a8 8 0 0 0 -2.381 11.065zm53.52-94.084a6 6 0 0 1 1.785-8.295l48.715-31.467 8.68 13.44-53.759 34.722zm-9.52 44.242a6 6 0 0 1 1.785-8.294l35.282-22.787 5.425 8.4a6.008 6.008 0 0 1 -1.785 8.3l-35.287 22.781zm27.547 13.161 5.425 8.4a6.008 6.008 0 0 1 -1.785 8.3l-48.726 31.463-8.68-13.442z"/><path d="m177.544 212.671a7.978 7.978 0 0 0 5.7-2.386l22.456-22.8a8 8 0 0 0 -.086-11.313l-28.5-28.069 7.018-7.126a22 22 0 0 0 -.237-31.111l-7.124-7.017 7.018-7.125a22.025 22.025 0 0 0 -.236-31.111l-47.019-46.313a8 8 0 0 0 -11.314.085l-22.455 22.8a8 8 0 0 0 .086 11.313l28.5 28.07-7.017 7.124a22 22 0 0 0 .235 31.112l7.124 7.017-7.017 7.125a22.024 22.024 0 0 0 .236 31.112l47.021 46.313a7.973 7.973 0 0 0 5.611 2.3zm-4.874-91.4a6 6 0 0 1 .064 8.485l-7.017 7.125-29.923-29.481a6 6 0 0 1 -.064-8.485l7.018-7.124zm-41.665-85.958 41.322 40.7a6.006 6.006 0 0 1 .064 8.485l-7.017 7.124-45.6-44.911zm5.068 108.859 7.017-7.124 45.6 44.911-11.228 11.4-41.322-40.7a6.008 6.008 0 0 1 -.067-8.487z"/><path d="m280 88a24 24 0 1 0 -24 24 24.027 24.027 0 0 0 24-24zm-32 0a8 8 0 1 1 8 8 8.009 8.009 0 0 1 -8-8z"/><path d="m456 288a24 24 0 1 0 24 24 24.027 24.027 0 0 0 -24-24zm0 32a8 8 0 1 1 8-8 8.009 8.009 0 0 1 -8 8z"/><path d="m216 448a24 24 0 1 0 -24 24 24.027 24.027 0 0 0 24-24zm-24 8a8 8 0 1 1 8-8 8.009 8.009 0 0 1 -8 8z"/><path d="m40 104a24 24 0 1 0 24-24 24.027 24.027 0 0 0 -24 24zm24-8a8 8 0 1 1 -8 8 8.009 8.009 0 0 1 8-8z"/><path d="m88 296a40 40 0 1 0 -40-40 40.045 40.045 0 0 0 40 40zm0-64a24 24 0 1 1 -24 24 24.028 24.028 0 0 1 24-24z"/><path d="m352 224a32 32 0 1 0 32-32 32.036 32.036 0 0 0 -32 32zm32-16a16 16 0 1 1 -16 16 16.019 16.019 0 0 1 16-16z"/><path d="m392 72a40 40 0 1 0 40-40 40.045 40.045 0 0 0 -40 40zm40-24a24 24 0 1 1 -24 24 24.028 24.028 0 0 1 24-24z"/><path d="m310.757 314-11.519-35.452 30.157-21.91a15.987 15.987 0 0 0 -9.4-28.92h-37.272l-11.523-35.455a15.986 15.986 0 0 0 -30.408 0l-11.519 35.45h-37.273a15.987 15.987 0 0 0 -9.4 28.92l30.157 21.91-11.519 35.451a15.986 15.986 0 0 0 24.6 17.874l30.162-21.91 30.157 21.91a15.75 15.75 0 0 0 18.794 0 15.747 15.747 0 0 0 5.806-17.868zm-28.532-36.036 13.3 40.939-34.825-25.303a8 8 0 0 0 -9.4 0l-34.825 25.3 13.3-40.939a8 8 0 0 0 -2.906-8.943l-34.826-25.3h43.047a8 8 0 0 0 7.608-5.528l13.302-40.944 13.3 40.939a8 8 0 0 0 7.608 5.528h43.048l-34.827 25.3a8 8 0 0 0 -2.904 8.946z"/><path d="m274.112 420.084 20.111-24.891a8 8 0 0 0 -1.195-11.25l-37.337-30.166a8 8 0 0 0 -11.25 1.2l-20.111 24.89a8 8 0 0 0 1.195 11.25l37.336 30.166a8 8 0 0 0 11.251-1.195zm-32.312-36.384 10.055-12.445 24.892 20.111-10.056 12.446z"/><path d="m493.028 167.943-37.337-30.166a8 8 0 0 0 -11.25 1.2l-20.111 24.89a8 8 0 0 0 1.195 11.25l37.336 30.166a8 8 0 0 0 11.251-1.195l20.111-24.891a8 8 0 0 0 -1.195-11.25zm-26.334 19.864-24.894-20.107 10.055-12.445 24.892 20.111z"/><path d="m298.972 163.559 24.891 20.111a8 8 0 0 0 5.028 1.777 7.711 7.711 0 0 0 .844-.045 7.994 7.994 0 0 0 5.378-2.927l30.167-37.337a8 8 0 0 0 -1.195-11.25l-24.891-20.111a8 8 0 0 0 -11.251 1.2l-30.166 37.336a8 8 0 0 0 1.195 11.246zm36.389-32.309 12.446 10.056-20.107 24.894-12.45-10.059z"/><path d="m328 64a8 8 0 0 0 5.657-13.657l-16-16a8 8 0 0 0 -11.314 11.314l16 16a7.976 7.976 0 0 0 5.657 2.343z"/><path d="m171.562 390.656a8 8 0 0 0 11.094-2.218l16-24a8 8 0 0 0 -13.312-8.876l-16 24a8 8 0 0 0 2.218 11.094z"/><path d="m322.343 461.657a8 8 0 0 0 11.314-11.314l-16-16a8 8 0 0 0 -11.314 11.314z"/><path d="m442.343 242.343-16 16a8 8 0 0 0 11.314 11.314l16-16a8 8 0 0 0 -11.314-11.314z"/><path d="m61.657 189.657a8 8 0 0 0 0-11.314l-16-16a8 8 0 0 0 -11.314 11.314l16 16a8 8 0 0 0 11.314 0z"/></g></svg>