<svg id="_x33_0" enable-background="new 0 0 64 64" height="512" viewBox="0 0 64 64" width="512" xmlns="http://www.w3.org/2000/svg"><g><g><g><path d="m14 56v6h-1c-2.76 0-5-2.24-5-5v-1z" fill="#ffeaa7"/></g><g><path d="m18 56h6v6h-6z" fill="#ffeaa7"/></g><g><path d="m28 56h6v6h-6z" fill="#ffeaa7"/></g><g><path d="m38 56h6v6h-6z" fill="#ffeaa7"/></g><g><path d="m48 56h6v6h-6z" fill="#ffeaa7"/></g><g><path d="m62 56v5c0 .55-.45 1-1 1h-3v-6z" fill="#ffeaa7"/></g><g><path d="m14 56h4v6h-4z" fill="#fcd770"/></g><g><path d="m24 56h4v6h-4z" fill="#fcd770"/></g><g><path d="m34 56h4v6h-4z" fill="#fcd770"/></g><g><path d="m44 56h4v6h-4z" fill="#fcd770"/></g><g><path d="m54 56h4v6h-4z" fill="#fcd770"/></g><g><path d="m8 24h53c.552 0 1 .448 1 1v31h-54z" fill="#e6e9ed"/></g><g><path d="m30 30.46v19.54h-16v-19.54c0-.15.01-.29.04-.43l7.96 5.97 7.96-5.97c.03.14.04.28.04.43z" fill="#69d6f4"/></g><g><path d="m52 35v2c0 .55-.45 1-1 1h-3v3c0 .55-.45 1-1 1h-2c-.55 0-1-.45-1-1v-3h-3c-.55 0-1-.45-1-1v-2c0-.55.45-1 1-1h3v-3c0-.55.45-1 1-1h2c.55 0 1 .45 1 1v3h3c.55 0 1 .45 1 1z" fill="#fcd770"/></g><g><path d="m18.46 23.54 1.37.97-.46 1.39c-.23.68-.8 1.19-1.51 1.33l-1.45.29c-1.26.25-2.2 1.27-2.37 2.51l-6.04-4.53-.33-.25c-3.57-2.67-5.67-6.88-5.67-11.34 0-1.57.31-3.11.9-4.53.59-1.43 1.46-2.74 2.57-3.85 1.13-1.13 2.46-2.01 3.91-2.61 1.44-.6 3.01-.92 4.61-.92 2.6 0 5.14.84 7.22 2.41l.79.59.79-.59c2.08-1.57 4.62-2.41 7.22-2.41 1.6 0 3.17.32 4.61.92 1.45.6 2.78 1.48 3.91 2.61 1.11 1.11 1.98 2.42 2.57 3.85.59 1.42.9 2.96.9 4.53 0 2.23-.52 4.4-1.5 6.34-.69 1.39-1.6 2.66-2.72 3.75-.45.45-.93.87-1.45 1.25l-6.37 4.78c-.17-1.24-1.11-2.26-2.37-2.51l-1.45-.29c-.71-.14-1.28-.65-1.51-1.33l-.46-1.39c1.59-.77 2.71-2.36 2.81-4.22h.01l.09-.07c1.84-1.4 2.92-3.57 2.92-5.88 0-1.34-.51-2.64-1.41-3.62-1.02-1.1-2.44-1.72-3.93-1.72h-5.32c-1.49 0-2.91.62-3.93 1.72-.9.98-1.41 2.28-1.41 3.62 0 1.16.27 2.28.77 3.28.5 1.01 1.23 1.9 2.15 2.6l.09.07h.01c.06 1.27.6 2.4 1.44 3.25z" fill="#ef7385"/></g><g><path d="m30 14.34c0 2.31-1.08 4.48-2.92 5.88l-.09.07h-.01c.02-.09.02-.19.02-.29v-3.28c0-.43-.28-.81-.68-.95-1.53-.51-2.91-1.36-4.05-2.5l-.27-.27-.27.27c-1.14 1.14-2.52 1.99-4.05 2.5-.4.14-.68.52-.68.95v3.28c0 .1 0 .2.02.29h-.01l-.09-.07c-.92-.7-1.65-1.59-2.15-2.6-.5-1-.77-2.12-.77-3.28 0-1.34.51-2.64 1.41-3.62 1.02-1.1 2.44-1.72 3.93-1.72h5.32c1.49 0 2.91.62 3.93 1.72.9.98 1.41 2.28 1.41 3.62z" fill="#656d78"/></g><g><path d="m24.63 25.9c.23.68.8 1.19 1.51 1.33l1.45.29c1.26.25 2.2 1.27 2.37 2.51l-7.96 5.97-7.96-5.97c.17-1.24 1.11-2.26 2.37-2.51l1.45-.29c.71-.14 1.28-.65 1.51-1.33l.46-1.39c.65.31 1.39.49 2.17.49s1.52-.18 2.17-.49z" fill="#f0d0b4"/></g><g><path d="m26.98 20.29c-.1 1.86-1.22 3.45-2.81 4.22-.65.31-1.39.49-2.17.49s-1.52-.18-2.17-.49l-1.37-.97c-.84-.85-1.38-1.98-1.44-3.25-.02-.09-.02-.19-.02-.29v-3.28c0-.43.28-.81.68-.95 1.53-.51 2.91-1.36 4.05-2.5l.27-.27.27.27c1.14 1.14 2.52 1.99 4.05 2.5.4.14.68.52.68.95v3.28c0 .1 0 .2-.02.29z" fill="#f0d0b4"/></g></g><g><path d="m41 39h2v2c0 1.103.897 2 2 2h2c1.103 0 2-.897 2-2v-2h2c1.103 0 2-.897 2-2v-2c0-1.103-.897-2-2-2h-2v-2c0-1.103-.897-2-2-2h-2c-1.103 0-2 .897-2 2v2h-2c-1.103 0-2 .897-2 2v2c0 1.103.897 2 2 2zm0-4h4v-4h2v4h4v2h-4v4h-2v-4h-4z"/><path d="m21 45h2v2h-2z"/><path d="m25 45h2v2h-2z"/><path d="m17 45h2v2h-2z"/><path d="m61 23h-21.061c1.945-2.601 3.061-5.785 3.061-9.087 0-3.436-1.338-6.665-3.767-9.094-2.462-2.463-5.737-3.819-9.22-3.819-2.803 0-5.582.927-7.823 2.608l-.19.142-.189-.142c-2.242-1.681-5.021-2.608-7.824-2.608-3.483 0-6.757 1.356-9.22 3.819-2.429 2.429-3.767 5.659-3.767 9.094 0 4.72 2.243 9.226 6 12.08v31.007c0 3.309 2.691 6 6 6h48c1.103 0 2-.897 2-2v-36c0-1.103-.897-2-2-2zm0 32h-52v-27.501l4 3v20.501h18v-20.5l5.93-4.448c.436-.327.847-.682 1.242-1.052h22.828zm-44 2v4h-2v-4zm2 0h4v4h-4zm6 0h2v4h-2zm4 0h4v4h-4zm6 0h2v4h-2zm4 0h4v4h-4zm6 0h2v4h-2zm4 0h4v4h-4zm6 0h2v4h-2zm-37.632-42.177c-.818.273-1.368 1.035-1.368 1.898v1.035c-.641-1.013-1-2.2-1-3.419 0-1.094.408-2.138 1.15-2.941.819-.887 1.98-1.396 3.187-1.396h5.325c1.207 0 2.369.509 3.188 1.396.742.803 1.15 1.848 1.15 2.941 0 1.219-.359 2.406-1 3.419v-1.037c0-.862-.55-1.625-1.367-1.896-1.37-.457-2.632-1.237-3.652-2.258l-.981-.979-.98.98c-1.02 1.021-2.283 1.801-3.652 2.257zm.632 1.898c1.473-.49 2.845-1.291 4-2.329 1.155 1.038 2.526 1.838 4 2.329v3.279c0 2.206-1.794 4-4 4s-4-1.794-4-4zm2.316 9.494.141-.423c.493.131 1.009.208 1.543.208s1.05-.077 1.543-.209l.141.423c.339 1.019 1.205 1.783 2.258 1.993l1.451.29c.646.129 1.162.569 1.422 1.141l-6.815 5.112-6.815-5.111c.26-.572.777-1.011 1.423-1.141l1.45-.29c1.053-.21 1.919-.975 2.258-1.993zm1.684 11.035 7-5.25v17h-14v-17zm-19-23.337c0-2.901 1.129-5.629 3.181-7.68 2.085-2.085 4.857-3.233 7.806-3.233 2.373 0 4.726.784 6.624 2.208l1.389 1.042 1.39-1.042c1.898-1.424 4.25-2.208 6.623-2.208 2.949 0 5.721 1.148 7.806 3.233 2.052 2.051 3.181 4.779 3.181 7.68 0 4.124-1.97 8.064-5.27 10.539l-5.296 3.972c-.565-.95-1.509-1.659-2.65-1.887l-1.451-.29c-.351-.07-.639-.325-.752-.665l-.208-.624c1.375-.939 2.336-2.434 2.567-4.159 1.916-1.583 3.06-3.968 3.06-6.462 0-1.598-.597-3.124-1.68-4.297-1.196-1.297-2.894-2.04-4.657-2.04h-5.325c-1.764 0-3.461.743-4.657 2.039-1.083 1.174-1.68 2.7-1.68 4.298 0 2.492 1.143 4.877 3.059 6.461.231 1.725 1.192 3.221 2.567 4.16l-.208.624c-.113.34-.401.595-.753.665l-1.45.29c-1.141.228-2.086.937-2.65 1.887l-5.296-3.972c-3.3-2.474-5.27-6.415-5.27-10.539zm6 43.087h4v4c-2.206 0-4-1.794-4-4zm50 4v-4h2v4z"/><path d="m35 45h6v2h-6z"/><path d="m43 45h14v2h-14z"/><path d="m55 49h2v2h-2z"/><path d="m51 49h2v2h-2z"/><path d="m35 49h14v2h-14z"/></g></g></svg>