<svg height="512pt" viewBox="-70 0 512 512.001" width="512pt" xmlns="http://www.w3.org/2000/svg"><path d="m342.003906 504.5h-312.613281c-12.089844 0-21.890625-9.800781-21.890625-21.886719v-433.914062c0-12.089844 9.800781-21.890625 21.890625-21.890625h312.613281c12.089844 0 21.890625 9.800781 21.890625 21.890625v433.914062c0 12.085938-9.800781 21.886719-21.890625 21.886719zm0 0" fill="#38aaff"/><path d="m363.898438 48.699219v433.910156c0 12.089844-9.800782 21.890625-21.890626 21.890625h-63.46875c12.089844 0 21.886719-9.800781 21.886719-21.890625v-433.910156c0-12.089844-9.796875-21.890625-21.886719-21.890625h63.46875c12.089844 0 21.890626 9.800781 21.890626 21.890625zm0 0" fill="#2081f6"/><path d="m328.925781 69.488281v392.761719c0 5.589844-4.527343 10.121094-10.117187 10.121094h-266.222656c-5.589844 0-10.117188-4.53125-10.117188-10.121094v-392.761719c0-5.589843 4.527344-10.117187 10.117188-10.117187h266.222656c5.589844 0 10.117187 4.527344 10.117187 10.117187zm0 0" fill="#d9efec"/><path d="m328.925781 69.488281v392.761719c0 5.589844-4.527343 10.121094-10.117187 10.121094h-18.382813v-413h18.382813c5.589844 0 10.117187 4.527344 10.117187 10.117187zm0 0" fill="#c1dbd6"/><path d="m277.214844 74.261719h-183.035156c-11.714844 0-21.207032-9.496094-21.207032-21.207031v-24.347657c0-11.710937 9.492188-21.207031 21.207032-21.207031h183.035156c11.710937 0 21.207031 9.492188 21.207031 21.207031v24.347657c0 11.710937-9.492187 21.207031-21.207031 21.207031zm0 0" fill="#95c6df"/><path d="m298.425781 28.710938v24.339843c0 11.71875-9.5 21.210938-21.207031 21.210938h-183.042969c-11.707031 0-21.207031-9.492188-21.207031-21.210938v-24.339843c0-.53125.019531-1.0625.070312-1.582032.796876 10.980469 9.957032 19.632813 21.136719 19.632813h183.042969c11.179688 0 20.339844-8.652344 21.140625-19.632813.046875.519532.066406 1.050782.066406 1.582032zm0 0" fill="#75a4c8"/><path d="m138.667969 402.910156h24.734375v24.730469c0 5.523437 4.476562 10 10 10h24.59375c5.523437 0 10-4.476563 10-10v-24.730469h24.730468c5.523438 0 10-4.476562 10-10v-24.59375c0-5.523437-4.476562-10-10-10h-24.730468v-24.734375c0-5.523437-4.476563-10-10-10h-24.59375c-5.523438 0-10 4.476563-10 10v24.734375h-24.734375c-5.523438 0-10 4.476563-10 10v24.59375c0 5.523438 4.476562 10 10 10zm0 0" fill="#f55"/><path d="m363.894531 161.589844c-4.140625 0-7.5 3.355468-7.5 7.5v313.519531c0 7.9375-6.453125 14.390625-14.390625 14.390625h-186.214844c-4.140624 0-7.5 3.359375-7.5 7.5s3.359376 7.5 7.5 7.5h186.214844c16.207032 0 29.390625-13.183594 29.390625-29.390625v-313.519531c0-4.144532-3.359375-7.5-7.5-7.5zm0 0"/><path d="m342.003906 19.308594h-37.667968c-3.902344-11.226563-14.582032-19.308594-27.121094-19.308594h-183.035156c-12.539063 0-23.21875 8.082031-27.121094 19.308594h-37.667969c-16.207031 0-29.390625 13.183594-29.390625 29.390625v433.914062c0 16.203125 13.183594 29.386719 29.390625 29.386719h92.21875c4.144531 0 7.5-3.355469 7.5-7.5 0-4.140625-3.355469-7.5-7.5-7.5h-92.21875c-7.933594 0-14.390625-6.453125-14.390625-14.386719v-433.914062c0-7.933594 6.457031-14.390625 14.390625-14.390625h36.082031v17.554687h-12.882812c-9.714844 0-17.621094 7.90625-17.621094 17.625v318.421875c0 4.140625 3.359375 7.5 7.5 7.5s7.5-3.359375 7.5-7.5v-318.421875c0-1.445312 1.175781-2.621093 2.621094-2.621093h16.433594c4.890624 8.867187 14.332031 14.894531 25.15625 14.894531h183.039062c10.824219 0 20.265625-6.027344 25.15625-14.894531h16.429688c1.445312 0 2.625 1.175781 2.625 2.621093v392.761719c0 1.445312-1.175782 2.621094-2.625 2.621094h-266.214844c-1.445313 0-2.621094-1.175782-2.621094-2.621094v-40.160156c0-4.144532-3.359375-7.5-7.5-7.5s-7.5 3.355468-7.5 7.5v40.160156c0 9.714844 7.90625 17.621094 17.621094 17.621094h266.214844c9.71875 0 17.621093-7.90625 17.621093-17.621094v-392.761719c0-9.71875-7.902343-17.621093-17.621093-17.621093h-12.882813v-17.558594h36.085937c7.933594 0 14.386719 6.457031 14.386719 14.390625v86.210937c0 4.144532 3.359375 7.5 7.5 7.5 4.144531 0 7.5-3.355468 7.5-7.5v-86.210937c0-16.207031-13.183593-29.390625-29.390625-29.390625zm-51.082031 33.746094c0 7.554687-6.148437 13.707031-13.707031 13.707031h-183.035156c-7.558594 0-13.707032-6.152344-13.707032-13.707031v-24.347657c0-7.558593 6.148438-13.707031 13.707032-13.707031h183.035156c7.558594 0 13.707031 6.148438 13.707031 13.707031zm0 0"/><path d="m155.902344 333.582031v17.234375h-17.234375c-9.652344 0-17.5 7.847656-17.5 17.5v24.59375c0 9.648438 7.847656 17.5 17.5 17.5h17.234375v17.230469c0 9.648437 7.847656 17.5 17.5 17.5h24.59375c9.648437 0 17.5-7.851563 17.5-17.5v-17.230469h17.230468c9.648438 0 17.5-7.851562 17.5-17.5v-24.59375c0-9.652344-7.851562-17.5-17.5-17.5h-17.230468v-17.234375c0-9.648437-7.851563-17.5-17.5-17.5h-24.59375c-9.652344 0-17.5 7.851563-17.5 17.5zm15 24.734375v-24.734375c0-1.378906 1.121094-2.5 2.5-2.5h24.59375c1.378906 0 2.5 1.121094 2.5 2.5v24.734375c0 4.140625 3.355468 7.5 7.5 7.5h24.730468c1.378907 0 2.5 1.121094 2.5 2.5v24.59375c0 1.378906-1.121093 2.5-2.5 2.5h-24.730468c-4.144532 0-7.5 3.359375-7.5 7.5v24.730469c0 1.378906-1.121094 2.5-2.5 2.5h-24.59375c-1.378906 0-2.5-1.121094-2.5-2.5v-24.730469c0-4.140625-3.359375-7.5-7.5-7.5h-24.734375c-1.378907 0-2.5-1.121094-2.5-2.5v-24.59375c0-1.378906 1.121093-2.5 2.5-2.5h24.734375c4.140625 0 7.5-3.359375 7.5-7.5zm0 0"/><path d="m84.707031 140.5h68.644531c4.144532 0 7.5-3.359375 7.5-7.5s-3.355468-7.5-7.5-7.5h-68.644531c-4.140625 0-7.5 3.359375-7.5 7.5s3.359375 7.5 7.5 7.5zm0 0"/><path d="m84.707031 175.5h24.707031c4.144532 0 7.5-3.359375 7.5-7.5s-3.355468-7.5-7.5-7.5h-24.707031c-4.140625 0-7.5 3.359375-7.5 7.5s3.359375 7.5 7.5 7.5zm0 0"/><path d="m84.707031 197.167969h24.707031c4.144532 0 7.5-3.359375 7.5-7.5 0-4.144531-3.355468-7.5-7.5-7.5h-24.707031c-4.140625 0-7.5 3.355469-7.5 7.5 0 4.140625 3.359375 7.5 7.5 7.5zm0 0"/><path d="m84.707031 218.832031h24.707031c4.144532 0 7.5-3.355469 7.5-7.5 0-4.140625-3.355468-7.5-7.5-7.5h-24.707031c-4.140625 0-7.5 3.359375-7.5 7.5 0 4.144531 3.359375 7.5 7.5 7.5zm0 0"/><path d="m84.707031 240.5h68.644531c4.144532 0 7.5-3.359375 7.5-7.5s-3.355468-7.5-7.5-7.5h-68.644531c-4.140625 0-7.5 3.359375-7.5 7.5s3.359375 7.5 7.5 7.5zm0 0"/><path d="m84.707031 290.5h43.675781c4.144532 0 7.5-3.359375 7.5-7.5s-3.355468-7.5-7.5-7.5h-43.675781c-4.140625 0-7.5 3.359375-7.5 7.5s3.359375 7.5 7.5 7.5zm0 0"/><path d="m286.6875 125.5h-68.644531c-4.144531 0-7.5 3.359375-7.5 7.5s3.355469 7.5 7.5 7.5h68.644531c4.140625 0 7.5-3.359375 7.5-7.5s-3.359375-7.5-7.5-7.5zm0 0"/><path d="m286.6875 160.5h-24.710938c-4.140624 0-7.5 3.359375-7.5 7.5s3.359376 7.5 7.5 7.5h24.710938c4.140625 0 7.5-3.359375 7.5-7.5s-3.359375-7.5-7.5-7.5zm0 0"/><path d="m286.6875 182.167969h-24.710938c-4.140624 0-7.5 3.355469-7.5 7.5 0 4.140625 3.359376 7.5 7.5 7.5h24.710938c4.140625 0 7.5-3.359375 7.5-7.5 0-4.144531-3.359375-7.5-7.5-7.5zm0 0"/><path d="m286.6875 203.832031h-24.710938c-4.140624 0-7.5 3.359375-7.5 7.5 0 4.144531 3.359376 7.5 7.5 7.5h24.710938c4.140625 0 7.5-3.355469 7.5-7.5 0-4.140625-3.359375-7.5-7.5-7.5zm0 0"/><path d="m218.042969 240.5h68.644531c4.140625 0 7.5-3.359375 7.5-7.5s-3.359375-7.5-7.5-7.5h-68.644531c-4.144531 0-7.5 3.359375-7.5 7.5s3.355469 7.5 7.5 7.5zm0 0"/><path d="m286.6875 275.5h-43.679688c-4.140624 0-7.5 3.359375-7.5 7.5s3.359376 7.5 7.5 7.5h43.679688c4.140625 0 7.5-3.359375 7.5-7.5s-3.359375-7.5-7.5-7.5zm0 0"/><path d="m174.019531 198.835938c1.464844 1.464843 3.382813 2.199218 5.304688 2.199218 1.917969 0 3.835937-.734375 5.300781-2.199218l12.75-12.75c2.929688-2.929688 2.929688-7.675782 0-10.605469l-12.75-12.75c-2.929688-2.929688-7.675781-2.929688-10.605469 0-2.929687 2.929687-2.929687 7.679687 0 10.605469l7.445313 7.449218-7.445313 7.445313c-2.929687 2.929687-2.929687 7.679687 0 10.605469zm0 0"/></svg>