<svg id="Layer_1" data-name="Layer 1" xmlns="http://www.w3.org/2000/svg" viewBox="0 0 435.46 531.1"><title>terraColabore</title><path d="M389.43,380.9a8.32,8.32,0,0,1,16.63.53,8.93,8.93,0,0,1-8.69,8.11A8.38,8.38,0,0,1,389.43,380.9Z" transform="translate(-81.09 1)" style="fill:#231f20"/><path d="M487.87,184.76c-2.55,7.22-6.63,11.24-10.8,15.15-5.82,5.46-12.05,4.14-14.87-3.27-3.09-8.11-6.14-16.25-8.79-24.52-2.35-7.33-8.16-12-12.67-17.66-1.45-1.83-3.54-1.25-6.35-1.35,3.37,6.44-.28,10.16-4.36,13.89a111.61,111.61,0,0,1-40.79,23.46c-4.77,1.58-8.27.11-10.49-4-7.08-13.24-14-26.57-20.91-39.88a5.6,5.6,0,0,1-.72-2.25c-.45-12.44-9.21-17.19-19.19-20.84a32,32,0,0,1-5.48-2.2c-3.83-2.27-5.61-5.6-3.81-10,1.71-4.21,5-6,9.51-5.15,14.48,2.73,24.3,12.42,33.57,22.81a6.22,6.22,0,0,1,1.27,3.82c.14,15,10.94,25.41,16.18,38.19,1,2.36,2.47,1.07,3.89.5A93,93,0,0,0,414,159.15c2.08-1.58,2.23-2.75,1.06-5.3-4-8.84,1.3-16.95,11-17.21,4-.1,7.92,0,11.88,0a18.84,18.84,0,0,1,14.32,6.07c7.73,8.23,15.39,16.53,18.07,28a42.84,42.84,0,0,0,1.89,5c1.41-6.49,3.8-11.85,8.76-15.54,2.91-2.16,1.57-4.59.88-6.89-9.11-30.48-24.56-57.31-46.91-80-31.68-32.14-70.2-50.51-114.81-56.47-3.06-.41-5.07.19-7,2.8-5.83,7.74-12.1,15.15-18,22.84a20.92,20.92,0,0,1-10.35,7.43c-14.77,5-29.4,10.33-44.16,15.32-3.26,1.11-5.48,2.63-6.53,6-.92,3-2.33,5.86-3.54,8.78-7,17.06-7,17.06,5.61,32.12,6.38-8.54,14.45-14.46,25.1-16.42a47,47,0,0,1,10.64-.55c5,.21,8.18,2.81,8.43,8.05.23,4.92-3.18,8.48-8.69,8.3-10.2-.32-18.26,2.79-22.84,12.49a1.85,1.85,0,0,0-.15.71c6.76,0,13.56,0,20.37,0a27.36,27.36,0,0,1,12.66,2.56c3.91,1.95,7.33,4.94,7.09,9.45-.29,5.2,3.15,6.56,6.44,8.64,2,1.27,3.13,1.16,4.95-.65,4.84-4.81,10.62-6.38,17.35-3.92a114.46,114.46,0,0,0,12.5,3.6c11.75,2.82,19.24,10.29,23.76,21.2q5.44,13.13,11.09,26.16c3.52,8.17,8.85,13.1,18.57,14.11,14.79,1.53,19,12.34,10.3,24.61a83.54,83.54,0,0,1-8.16,9.4c-3.84,4-7.9,7.76-11.84,11.66-5.23,5.18-7.19,11-4.53,18.31,4.1,11.19,1.53,21-7.05,29.22a23.93,23.93,0,0,0-6.54,10.41,22.78,22.78,0,0,1-5.1,8.61,22.07,22.07,0,0,0-5.29,10.36c-2.79,12.3-20,26.68-32.68,27.75a16,16,0,0,1-13.42-5,28.43,28.43,0,0,1-5.86-8.87c-5.28-12.75-10.53-25.52-15.55-38.37a29,29,0,0,1-.09-22c3.37-8.4,3.13-16-4.14-22.7-4.26-3.92-5.4-9.44-5.57-15.19-.22-7.46-2.22-9-9.65-7.08-9.52,2.42-19,3.66-28.67,1-32.79-9-44.91-47.93-23.5-76,6.83-9,13.82-17.81,21.13-26.39,2.33-2.74,2.15-4.32.2-7-6.25-8.42-12.16-17.09-18.37-25.53a10.29,10.29,0,0,1-1.24-11.07q6.94-16.35,13.53-32.85a11.9,11.9,0,0,1,7.85-7.33c14-4.74,27.82-10.11,41.92-14.56,6.93-2.19,12.4-5.52,16.36-11.62,2.1-3.25,4.77-6.12,7.93-10.09-43.83,1.2-81.92,14.66-116,40.76,3.84,3.55,7.86,6.63,10.74,10.9,8.42,12.46,9.12,29.68-.77,40.34-12.32,13.29-20.59,28.93-29.08,44.47-4.13,7.55-10.13,12.48-17,16.81-3.3,2.09-3.61,3.84-1.13,6.83a91.33,91.33,0,0,1,6.73,9.76c3.9,6.15,1.69,12.27-5.32,13.58-8.74,1.64-17.59,2.64-26.41,3.83-4.22.57-7.64-1.12-11.27-4.23,0,5.81,0,11.63,0,17.44,0,2.67,1.35,2.81,3.47,2.09,4.85-1.65,9.82-3,14.61-4.82s8.65-1.18,12.64,2.05c7.23,5.84,15.1,10.92,22.06,17,7.44,6.55,15.93,9.63,25.49,11.2,18.95,3.12,26.84,14.85,23.1,33.92-.66,3.39.52,6.19,1.47,9.17,5.71,17.85,1,28.66-16.17,36.2a4.38,4.38,0,0,0-2.91,3.84c-2.07,10.86-4.11,21.74-6.42,32.55-.58,2.71,1.06,3.46,2.63,4.59a188.31,188.31,0,0,0,86.67,34.29,191.38,191.38,0,0,0,89.93-9.75c8.24-2.92,12.48-2,14.57,3.34S376,401,367.57,404a208.47,208.47,0,0,1-259-108.83C51.43,172.54,126,27.45,258.79,2.63,373.66-18.82,484,57,502.93,172.61c12.88,78.82-13.15,144.86-73.89,197l-.46.37c-5.4,4.22-10.26,4.23-13.51,0s-2.17-8.48,3-12.7a188.29,188.29,0,0,0,35.7-37.92c26.35-37.44,37.67-79.16,35.39-124.73-.06-1.19-.19-2.37-.35-3.55C488.63,189.52,488.37,188,487.87,184.76ZM297.79,103.42a8.43,8.43,0,0,0,16.83.48A8.74,8.74,0,0,0,306,95.18,8.11,8.11,0,0,0,297.79,103.42Zm-50.86,39.13c-2.37.26-5,.63-6.42,2.62-8,11.29-18.57,20.75-25.11,33-10.54,19.69,1.62,42.52,23.24,45,6.27.72,12.17-1.24,18.09-2.65,13.88-3.3,28.33,6.33,27.49,21.17-.17,3,.26,5.84,2.59,8.19,10.22,10.33,11.47,22.42,6.81,35.62-1.2,3.37-2.5,6.92-1.29,10.41,4.86,14,10.54,27.61,16.56,41.12,1,2.23,2.4,3.46,5.09,1.94,7.32-4.12,14.51-8.28,16-17.64.77-4.65,3.25-8.43,6.28-11.89,1.57-1.79,3.25-3.54,3.93-5.87a36.72,36.72,0,0,1,10.48-16.25c3.57-3.38,4.76-7.21,3-11.78-5.77-15-.72-27,10.07-37.48q6.81-6.61,13.56-13.3c1.94-1.93,2.05-3.35-1.21-3.65-12-1.12-19.21-8.66-24.26-18.6-3.92-7.72-7.87-15.58-10.44-23.81-3.78-12.11-11.26-18.93-23.72-20.72-2.43-.35-4.22-.79-6.15,1.48-4.88,5.74-11,6.2-17.76,3.55-7.82-3.08-14.36-8.26-21.33-12.72a6.42,6.42,0,0,1-2.89-6.18c.27-2.59-1-2.95-3.14-2.81s-4,0-6.7,0C256,141.66,251.45,142.05,246.93,142.55ZM174,320.16c.92-7,4.52-10.22,10.9-12.1,10-3,11.57-6.23,8.11-16.19-2.2-6.3-3.25-12.53-1.59-19.15,1.83-7.24-.79-11.64-8.34-12.46-14.24-1.56-26.55-6.84-36.9-16.77-1.7-1.63-4-2.64-5.59-4.38-8.39-9.4-18-10.44-28.71-4.5a1.74,1.74,0,0,1-.55.23c-3.16.37-3.56,2.08-3,5a213.63,213.63,0,0,0,8,30.91,194.42,194.42,0,0,0,52,78.94C170.36,339.37,172.72,329.83,174,320.16ZM126.16,181.39c-9-13.88-9.06-13.88,4.58-23.61.48-.34,1-.66,1.46-1,5.28-4,10.72-7.5,14.27-13.76,8.83-15.55,16.6-31.73,29.43-44.89,8.25-8.47,3.71-23.23-7.16-28.42-2.42-1.15-3.93-.78-5.71,1-28.72,28.82-46.92,63.15-54.17,103.24-.33,1.83-.53,3.3,1.11,4.78,5,4.5,9.4,10.24,17.89,5.53C127.33,183.35,126.78,182.34,126.16,181.39Z" transform="translate(-81.09 1)" style="fill:#231f20"/><path d="M374.26,322.1a11,11,0,0,1,.32-2.49c2.24-7.88,4.85-15.53,4-24.12-.57-6,3-11.41,8.45-14,8.13-3.83,13.87-9.28,16.7-17.87a7.24,7.24,0,0,1,5.09-4.59c4.55-1.34,8.73.73,10.28,5.52,3.1,9.58,5.51,19,1.29,29.22-3.52,8.51-5.57,17.63-8.26,26.48a57.66,57.66,0,0,1-5.69,12.94c-4.87,8.08-10.87,11.47-17.75,10S375,333.48,374.27,325.5C374.2,324.72,374.26,323.92,374.26,322.1Zm28.83-30.51c-3.06,2.45-9.41,1.7-8.29,7.74,1.23,6.59-.14,12.48-2.69,18.42-1,2.25-2.24,4.7-.47,8.55C397.81,314.7,400.05,303,403.09,291.59Z" transform="translate(-81.09 1)" style="fill:#231f20"/><path d="M91.46,527.21a19.24,19.24,0,0,1-7.67-8.28,28.24,28.24,0,0,1-2.7-12.78V476.33a28.28,28.28,0,0,1,2.7-12.79,19.42,19.42,0,0,1,7.67-8.31,22.87,22.87,0,0,1,11.74-2.91,22.85,22.85,0,0,1,11.19,2.62,19,19,0,0,1,7.52,7.63,28.52,28.52,0,0,1,3.25,12.08h-9a19.21,19.21,0,0,0-2.2-7.42,11.91,11.91,0,0,0-10.8-6.31,12.75,12.75,0,0,0-7,1.86,12.34,12.34,0,0,0-4.56,5.35,19.26,19.26,0,0,0-1.62,8.2v29.82a19.29,19.29,0,0,0,1.62,8.2,12.2,12.2,0,0,0,4.56,5.32,12.91,12.91,0,0,0,7,1.83,12.32,12.32,0,0,0,6.32-1.6,12.12,12.12,0,0,0,4.48-4.66,19.2,19.2,0,0,0,2.2-7.47h9a28.2,28.2,0,0,1-3.27,12.08,19.25,19.25,0,0,1-7.55,7.63,22.73,22.73,0,0,1-11.14,2.62A23,23,0,0,1,91.46,527.21Z" transform="translate(-81.09 1)" style="fill:#231f20"/><path d="M145.21,527.29a18.72,18.72,0,0,1-7.89-8.15,27.42,27.42,0,0,1-2.72-12.63v-30.6a27.43,27.43,0,0,1,2.72-12.66,18.81,18.81,0,0,1,7.89-8.12,28,28,0,0,1,24.47,0,18.81,18.81,0,0,1,7.89,8.12,27.43,27.43,0,0,1,2.73,12.66v30.6a27.42,27.42,0,0,1-2.73,12.63,18.72,18.72,0,0,1-7.89,8.15,28,28,0,0,1-24.47,0Zm19.65-7.57a11.47,11.47,0,0,0,4.77-5,17.41,17.41,0,0,0,1.65-7.89V475.59a17.34,17.34,0,0,0-1.65-7.88,11.45,11.45,0,0,0-4.77-5,16.76,16.76,0,0,0-14.83,0,11.62,11.62,0,0,0-4.8,5,17.2,17.2,0,0,0-1.67,7.88v31.24a17.28,17.28,0,0,0,1.67,7.89,11.65,11.65,0,0,0,4.8,5,16.76,16.76,0,0,0,14.83,0Z" transform="translate(-81.09 1)" style="fill:#231f20"/><path d="M193.14,453.11h9v76.2h-9Zm5.34,67.76h35v8.44h-35Z" transform="translate(-81.09 1)" style="fill:#231f20"/><path d="M262.05,453.11h9.12L294,529.31h-9.75L266.61,464.8,249,529.31H239.2Zm-11.11,50.26h32.18v8.33H250.94Z" transform="translate(-81.09 1)" style="fill:#231f20"/><path d="M303.19,453.11h8.86v76.2h-8.86ZM309.48,521h17.24q6.19,0,9.12-2.54a9,9,0,0,0,2.94-7.15v-6a14.08,14.08,0,0,0-1.23-6.13,8.58,8.58,0,0,0-3.7-3.9,12.51,12.51,0,0,0-6.08-1.34H309.48v-8.23h18.29c3.29,0,5.77-.86,7.47-2.59s2.54-4.28,2.54-7.63v-4.66c0-3.15-.91-5.51-2.72-7.1s-4.48-2.39-8-2.39H309.48v-8.28h18.4a23.08,23.08,0,0,1,10.35,2.1,14.33,14.33,0,0,1,6.36,6,18.8,18.8,0,0,1,2.15,9.28v4.66a18.14,18.14,0,0,1-1.25,6.79,13,13,0,0,1-9.86,8.1,13.12,13.12,0,0,1,6.5,2.8,14.31,14.31,0,0,1,4.17,5.61,19.13,19.13,0,0,1,1.44,7.57v5.71a18.74,18.74,0,0,1-2.25,9.38,15,15,0,0,1-6.48,6.11,22,22,0,0,1-10,2.12H309.48Z" transform="translate(-81.09 1)" style="fill:#231f20"/><path d="M368.57,527.29a18.72,18.72,0,0,1-7.89-8.15A27.54,27.54,0,0,1,358,506.51v-30.6a27.56,27.56,0,0,1,2.72-12.66,18.81,18.81,0,0,1,7.89-8.12,28.06,28.06,0,0,1,24.48,0,18.73,18.73,0,0,1,7.88,8.12,27.43,27.43,0,0,1,2.73,12.66v30.6a27.42,27.42,0,0,1-2.73,12.63,18.64,18.64,0,0,1-7.88,8.15,28.06,28.06,0,0,1-24.48,0Zm19.65-7.57a11.47,11.47,0,0,0,4.77-5,17.41,17.41,0,0,0,1.65-7.89V475.59a17.34,17.34,0,0,0-1.65-7.88,11.45,11.45,0,0,0-4.77-5,16.76,16.76,0,0,0-14.83,0,11.6,11.6,0,0,0-4.79,5,17.08,17.08,0,0,0-1.68,7.88v31.24a17.15,17.15,0,0,0,1.68,7.89,11.63,11.63,0,0,0,4.79,5,16.76,16.76,0,0,0,14.83,0Z" transform="translate(-81.09 1)" style="fill:#231f20"/><path d="M416.5,453.06h9v76.25h-9Zm4.66,35.58h20a12,12,0,0,0,5.85-1.36,9.09,9.09,0,0,0,3.8-4,14.15,14.15,0,0,0,1.36-6.13v-3.94a13.77,13.77,0,0,0-1.34-6.23,9.42,9.42,0,0,0-3.8-4.09,11.62,11.62,0,0,0-5.87-1.41h-20v-8.44h19.45a24,24,0,0,1,11,2.36,16.54,16.54,0,0,1,7.16,6.81,21.13,21.13,0,0,1,2.49,10.48v4.46a21.31,21.31,0,0,1-2.52,10.58,17,17,0,0,1-7.15,6.92,23.52,23.52,0,0,1-11,2.41H421.16Zm18.5,6.08,8.44-2.41,15.83,37H453.6Z" transform="translate(-81.09 1)" style="fill:#231f20"/><path d="M475.72,453.11h9v76.2h-9Zm5.19,0h35.64v8.44H480.91Zm0,34.17h31.44v8.39H480.91Zm0,33.59h35.64v8.44H480.91Z" transform="translate(-81.09 1)" style="fill:#231f20"/></svg>