<?xml version="1.0" encoding="utf-8"?>
<!-- Generator: Adobe Illustrator 24.0.1, SVG Export Plug-In . SVG Version: 6.00 Build 0)  -->
<svg version="1.1" id="Layer_1" xmlns="http://www.w3.org/2000/svg" xmlns:xlink="http://www.w3.org/1999/xlink" x="0px" y="0px"
	 viewBox="0 0 557.28 606" style="enable-background:new 0 0 557.28 606;" xml:space="preserve">
<style type="text/css">
	.st0{fill:#1F8947;}
	.st1{fill:#1A8745;}
	.st2{fill:#208948;}
	.st3{fill:#228A48;}
	.st4{fill:#1E8846;}
	.st5{fill:#198745;}
	.st6{fill:#1B8745;}
	.st7{fill:#1E8947;}
	.st8{fill:#178744;}
</style>
<g>
	<path class="st0" d="M334.56,534.2c-2.02,1.61-2.25,4.34-4.18,6.22c-1.9,1.85-5.32,1.13-5.85,4.31c4.11,1.52,6.44,5.66,8.21,7.11
		c4.24,6.75,3.29,12.49,3.64,18.1c0.24,3.82-1.5,6.99-2.54,10.35c-1.87,6.09-10.94,10.39-17.13,10.64
		c-10.69,0.42-21.42,0.12-32.42,0.12c0-29.62,0-58.96,0-89.18c5.95,0,12.23,0,18.51,0c3.78,0,7.56,0.09,11.33-0.02
		c9.04-0.27,16.1,2.56,19.23,11.89c0.16,0.49,0.79,0.83,1.2,1.23C334.56,521.38,334.56,527.79,334.56,534.2z M318,580.26
		c5.27-0.43,5.94-4.96,7.19-8.77c1.25-3.81,1.19-7.82,0.02-11.66c-2.51-8.22-5.92-10.72-14.33-10.76c-5.41-0.02-10.83,0-16.26,0
		c0,10.76,0,20.84,0,31.2C302.51,580.26,310.26,580.26,318,580.26z M324.1,531.29c0-4.07,0-9.3,0-14.35
		c-2.01-3.03-4.96-4.66-7.89-6.06c-7.13,0-14.3,0-21.75,0c0,5.19-0.02,10.09,0.01,14.99c0.02,4.83-0.11,9.67,0.1,14.45
		c5.7,0,10.63,0.14,15.55-0.04C316.04,540.07,321.68,539.09,324.1,531.29z"/>
	<path class="st1" d="M426.92,552.87c0,12.75,0,25.2,0,37.9c-3.4,0-6.51,0-10.02,0c0-29.95,0-60.08,0-90.68
		c12.5,0.24,25.02-1.07,37.82,2.54c0.31,0.35,1.27,0.66,2.38,1.07c8.46,3.08,10.65,10.42,11.65,18.3c0.4,3.15,0.16,6.4,0.04,9.6
		c-0.18,5.14-1.31,9.97-5.55,13.41c-2.6,2.11-4.07,5.67-7.9,6.2c4.72,13.21,12,25.46,15.69,39.62c-4.03,0-7.14,0-10.87,0
		c-6.2-11.97-10.06-25.27-15.81-37.95C438.72,552.87,433.28,552.87,426.92,552.87z M427.26,510.77c0,11.04,0,21.9,0,33.05
		c4.88,0,9.46-0.03,14.05,0.01c7.73,0.06,14.16-2.03,16.88-9.7c0-5.04,0-9.64,0-14.23c-1.74-4.92-5.74-7.27-9.66-9.12
		C441.26,510.77,434.37,510.77,427.26,510.77z"/>
	<path class="st2" d="M139.29,572.8c-3.05,9.49-8.39,15.1-18.54,18.23c-2.18,0-6.54-0.31-10.84,0.07
		c-8.11,0.71-17.88-4.49-22.51-16.37c-0.69-1.77-0.4-3.95-0.4-5.94c-0.03-14.85,0.08-29.69-0.05-44.54
		c-0.08-9.38,4.14-16.08,12.07-20.64c11.08-6.36,24.42-4.51,33.52,4.59c1.65,1.64,3.28,3.29,4.47,4.49
		c3.37,7.88,2.17,15.64,2.24,23.28C139.37,548.77,139.29,561.58,139.29,572.8z M124.41,515.19c-4.39-5.42-10.21-5.71-15.1-4.28
		c-4.83,1.42-10.43,3.67-11.87,10.5c0,14.6,0.09,29.75-0.06,44.9c-0.04,4.22,1.19,7.65,4.2,10.52c1.26,1.21,2.47,2.47,3.7,3.7
		c4.65,0,9.29,0,13.98,0c0.39-0.4,0.72-1.01,1.21-1.2c6.39-2.46,8.45-7.39,8.39-13.88c-0.13-15.13-0.04-30.26-0.04-45.23
		C127.17,518.44,125.09,517.2,124.41,515.19z"/>
	<path class="st2" d="M366.81,500.44c13.39-1.9,24.06,1.77,31.6,12.52c3.41,6.95,2.34,14.41,2.38,21.74
		c0.07,11.64-0.08,23.29,0.05,34.93c0.11,10.41-10.2,21.4-21.19,21.4c-4.91,0-9.83,0-12.61,0c-10.12-3.12-15.49-8.71-18.54-18.23
		c0-14.99,0.17-31.58-0.09-48.17c-0.1-6.18,2-11.42,5.46-16.07c1.64-2.21,4.68-3.4,7.16-4.94
		C362.87,502.48,364.82,501.52,366.81,500.44z M379.75,580.51c9.06-3.32,10.91-9.71,10.69-17.76c-0.36-13.39-0.09-26.8-0.1-40.2
		c0-0.85-0.07-1.7-0.11-2.5c-1.95-1.72-3.57-3.57-4.06-5.31c-2.94-1.56-5.32-2.82-7.84-4.16c-8.11-0.55-15.02,1.76-19.36,9.7
		c0,15.24,0.09,30.67-0.06,46.1c-0.04,4.24,1.29,7.62,4.25,10.5c1.25,1.21,2.4,2.52,3.44,3.63
		C371.52,580.51,376.17,580.51,379.75,580.51z"/>
	<path class="st1" d="M533.01,590.86c-15.62,0-30.93,0-45.87,0c-2.88-1.53-2.67-3.87-2.66-6.22c0.04-15.73,0.02-31.46,0.02-47.19
		c0-11.63,0-23.26,0-35.24c16.26,0,32.36,0,48.64,0c0,2.7,0,5.24,0,8.08c-11.9,0-23.72,0-36.32,0c-0.22,5.09-0.09,9.95-0.11,14.79
		c-0.02,4.91-0.01,9.81-0.01,15.02c10.42,0,20.51,0,30.99,0c0,3.62,0,6.94,0,10.59c-10.12,0-20.2,0-30.64,0c0,10.04,0,19.77,0,29.81
		c12,0,23.83,0,35.96,0C533.01,583.89,533.01,587.02,533.01,590.86z"/>
	<path class="st3" d="M208.7,590.72c3.99-13.03,7.97-25.58,11.67-38.22c3.56-12.17,7.11-24.32,11.03-36.39
		c1.48-4.57,2.59-9.37,4.38-14.1c3.62,0,7.3,0,10.92,0c2.57,8.36,5.19,16.59,7.63,24.86c2.99,10.11,5.72,20.29,8.77,30.38
		c2.57,8.51,5.24,17,8.28,25.34c0.94,2.57-1.43,5.91,3.79,8.09c-5.49,0-9.17,0-13.26,0c-1.95-6.52-4.03-13.46-6.14-20.48
		c-9.72,0-19.21,0-27.6,0c-5.74,1.89-1.49,7.52-5.21,9.72c1.15,3.85-2.13,6.85-2,10.8C217.07,590.72,213.18,590.72,208.7,590.72z
		 M253.28,559.37c-4.16-15.07-8.05-29.18-12.18-44.13c-4.27,15.31-8.29,29.71-12.32,44.13
		C236.63,559.37,244.37,559.37,253.28,559.37z"/>
	<path class="st4" d="M34.68,569.16c7.08,11.57,7.08,11.57,21.58,11.23c5.87-3.6,7.51-9.73,9.93-15.37c2.83,0,5.36,0,8.33,0
		c1.66,13.01-4.79,20.87-17.49,26.01c-2.34,0-6.11-0.29-9.82,0.05c-12.7,1.15-22.9-11.36-22.97-23.15
		c-0.07-13.99-0.19-27.97,0.03-41.96c0.21-13.32,6.38-20.7,17.91-25.34c13.19-5.3,30.33,5.4,32.53,19.7
		c0.29,1.91,0.07,3.84,2.08,5.65c-4.1,0-7.8,0-11.95,0c-1.45-1.27-0.07-3.45-0.61-5.53c-3.09-3.04-3.98-8.51-9.33-9.78
		c-3.46,0-6.93,0-10.55,0c-1.8,0.9-2.55,3.79-5.33,3.44c-1.76,2.46-1.99,5.74-4.33,7.87C34.68,537.7,34.68,553.43,34.68,569.16z"/>
	<path class="st5" d="M155.26,502.01c3.39,0,6.5,0,9.89,0c0,25.96,0,51.77,0,78.22c12.26,0.77,24.3-0.02,36.6,0.44
		c0,3.24,0,6.37,0,9.93c-15.2,0-30.7,0-46.49,0C155.26,561.42,155.26,532.11,155.26,502.01z"/>
</g>
<g>
	<path class="st1" d="M367.32,460.64c-4.15,5.87-10.83,7.88-16.95,9.47c-10.26,2.66-20.32,6.49-31.04,7.26
		c-6.06,3.61-13.03,1.27-19.58,3.1c-6.47,1.81-13.84,0.39-20.81,0.39c-6.97,0-13.96-0.21-20.91,0.09c-3.23,0.14-5.53-2.45-8.89-1.99
		c-2.61,0.35-5.28,0.3-8.16-1.21c-3.23-1.69-7.47-0.93-11.36-1.83c-11.39-2.63-22.35-6.3-33.37-10.08
		c-17.8-6.11-34.15-15.11-49.46-25.7c-7.53-5.21-15.03-10.87-21.74-17.46c-3.98-3.91-8.82-7.14-12.6-11.36
		c-10.1-11.28-20.28-22.63-28.2-35.51c-7.9-12.83-15.08-26.15-20.43-40.44c-2.46-6.58-4.77-13.17-7.06-19.8
		c-2.06-5.95-3.32-12.05-4.81-18.07c-2-8.08-2.51-16.53-3.95-24.68c-2.3-12.96-1.56-25.84-1.11-38.66
		c0.36-10.11,2.29-20.26,4.34-30.34c1.69-8.34,4.24-16.43,6-24.73c1.21-5.73,4.02-11.12,6.12-16.65c3.16-8.33,6.91-16.4,11.17-24.2
		c5.12-9.37,11.02-18.22,17.03-27.06c9.79-14.39,22.67-25.77,34.73-37.95c5.88-5.94,12.97-10.54,19.62-15.62
		c11.99-9.16,25.51-15.5,38.9-22c10.15-4.93,20.94-8.42,31.95-11.33c6.27-1.66,12.75-2.46,18.93-4.73
		c3.79-1.39,8.43,0.51,12.23-2.06c7.46,1.33,14.54-2.04,21.94-1.8c7.26,0.24,14.53,0.22,21.79-0.02c3.73-0.12,6.72,2.42,10.63,2
		c3.46-0.38,7-0.47,10.73,1.27c3.24,1.52,7.57,1.22,11.38,1.75c10.35,1.46,20.23,4.6,30.06,7.66c9.95,3.11,19.83,7.06,28.97,12.05
		c12.44,6.8,24.65,14.05,35.97,22.83c11.31,8.78,22.1,18.07,31.61,28.68c5.9,6.59,11.08,13.88,16.34,21.06
		c7.48,10.2,13.8,20.99,19.43,32.21c3.37,6.72,6.2,13.76,8.62,20.88c2.35,6.91,4.87,13.74,6.5,20.95c1.94,8.58,4.75,16.95,5,25.85
		c3.72,5.74,1.27,12.49,3.08,18.78c1.86,6.46,0.41,13.87,0.41,20.86c0,6.7,0.91,13.56-0.22,20.07c-1.53,8.74-1.54,17.69-3.97,26.27
		c-2.36,8.33-4.58,16.69-7.22,24.96c-2.8,8.79-6.3,17.28-10.25,25.47c-5.56,11.53-12.49,22.4-20.13,32.74
		c-5.19,7.03-10.16,14.28-16.71,20.11c-3.25,2.89-4.88,6.87-7.88,9.93c-6.43,6.56-14.12,11.63-20.42,18.37
		c-3.65,3.9-8.63,4.71-14.07,0.51c-2.18-3.62-3.29-8.14-0.36-13.13c0.59-1.01,1.18-2.03,2.02-2.61c12.05-8.2,21.4-19.35,31.09-29.9
		c11.86-12.92,20.59-28.21,28.09-44.17c4.36-9.29,8.9-18.6,11.31-28.48c2.33-9.56,6.32-18.87,6.05-29c2.62-4.15,0.29-9.4,2.06-13.11
		c2.36-4.95,0.9-9.58,1.34-14.3c0.43-4.62,0.09-9.32,0.09-13.98c0-4.66,0.01-9.32-0.02-13.99c0-0.22-0.35-0.43-0.66-0.78
		c-6.88,5.35-11.56,13.24-19.77,17.27c-8.35-1.51-10.4-8.73-12.58-15.42c-1.92-5.91-3.69-11.92-5.58-17.82
		c-2.07-6.46-6.88-11.78-10.97-17.26c-1.55-2.07-3.44-3.89-4.72-5.32c-2.01,0-3.15,0-4.64,0c0,2.59,0,5.13,0,7.3
		c-11.12,11.72-19.22,22.02-55.12,34.67c-5.59-0.82-8.96-4.67-11.34-9.6c-3.04-6.31-5.62-12.85-8.95-19
		c-3.1-5.72-6.72-11.14-9.62-16.99c-2.61-5.28-3.84-10.8-4.54-16.9c-3.21-2.98-6.58-6.32-10.57-9.15
		c-3.71-2.64-7.88-3.59-11.81-5.32c-4.5-1.98-7.94-4.58-8.83-10.39c1.7-2.7,2.24-6.51,6.77-8.01c1.99-0.66,4.09-1.36,5.66-0.78
		c8.65,3.21,17.71,5.67,24.32,12.92c4.31,4.73,9,9.1,13.73,13.85c0,3.22,0,6.66,0,8.99c3.32,7.1,6.06,13.26,9.07,19.29
		c3.01,6.04,6.27,11.95,9.73,18.49c11.12-1.1,19.2-8.9,28.51-15.48c-1.51-8.13-5.66-17.71,6.33-23.21c6.03,0,12.4,0.01,18.78,0
		c9.42-0.03,16.39,4.75,21.87,11.81c2.98,3.85,4.9,8.53,7.84,12.42c2.22,2.95,3.97,5.71,4.7,9.5c0.39,2.02,1.63,4.73,4.44,6.62
		c0.44-7.9,6.43-11.89,11.44-17.25c-2.2-6.47-4.25-13.2-6.76-19.76c-3.57-9.33-8.05-18.22-12.71-27.08
		c-5.81-11.03-12.76-21.09-20.37-30.92c-6.39-8.25-13.9-15.28-21.15-22.6c-11.01-11.13-24.2-19.32-37.25-27.83
		c-15.85-10.34-33.59-15.84-51.03-22.13c-5.57-2.01-11.71-2.89-17.59-3.7c-6.36-0.88-12.62-3.92-20.43-0.82
		c-4.87,6.9-11.82,14.18-17.45,22.57c-2.39,3.56-6.21,6.12-9.09,9.39c-2.96,3.36-7.31,4.21-10.96,5.09
		c-14.74,3.59-28.15,10.99-42.95,14.36c-6.95,1.58-9.33,8.13-11.56,13.99c-2.11,5.55-3.95,11.19-7,17.06c0,1.61,0,3.92,0,5.9
		c3.85,5.02,7.57,9.86,11.61,15.12c10.54-12.87,24.41-19.69,39.94-19.01c4.54,1.55,7.05,3.3,9.21,6.19c0,2.69,0,5.81,0,8.88
		c-3.09,3.43-6.92,4.39-11.4,4.26c-10.23-0.3-18.09,3.98-23.47,13.43c3.47,0.9,6.87,0.39,10.2,0.48c3.48,0.09,6.98,0.14,10.46,0
		c9.2-0.39,17.09,2.27,23.06,9.71c-0.52,7.8,3.83,12.2,11.14,15.03c2.68-2.51,5.08-5.79,9.01-6.91c12.22-2.06,23.28,3.36,34.31,7.06
		c9.04,3.04,15.41,11.29,18.53,20.42c1.85,5.4,4.74,10.27,6.56,15.68c1.59,4.73,3.87,9.44,5.89,14.14
		c4.28,9.95,11.98,14.87,22.42,15.76c3.23,0.28,5.65,1.62,8.21,3.46c3.09,2.23,3.31,1.92,5.47,5.35
		c3.02,11.94-3.97,19.41-10.02,26.95c-2.55,3.18-5.7,6.02-9.43,8.43c-6.07,3.92-10.16,10.17-12.58,17.31
		c-0.88,2.6-1.3,5.69-0.31,7.51c1.92,3.52,1.99,7.37,3.08,10.97c0.89,2.94,0.18,6.36-0.04,9.41c-1.38,6.66-6.72,10.68-10.29,15.87
		c-7.56,11-13.53,22.85-19.09,34.92c-6.44,14-17.38,22.5-31.7,27.19c-3.7,1.21-7.41,0.03-10.96,0.64c-0.54-0.54-0.89-1.22-1.37-1.32
		c-5.96-1.35-9.22-5.5-10.79-10.98c-0.88-3.07-3.33-4.91-4.67-7.68c-4.69-9.74-8.53-19.8-11.91-30.02c-0.75-2.27-2.92-4.28-2-7.05
		c-4.38-6.28-3.28-13.47-3.34-20.46c-0.01-0.83-0.04-1.81,0.36-2.46c3.96-6.43,3.14-13.56,3.07-20.58
		c-3.5-3.64-6.08-8.07-9.51-11.86c-1.63-1.8-2.78-5.24-2.67-8.41c0.11-3.19,0.03-6.4,0.03-9.55c-0.87-0.87-1.69-1.7-2.69-2.7
		c-3.51,0.52-7.76-1.37-10.77,0.78c-3.31,2.38-7.72-1.1-10.24,2.79c-3.85-0.72-7.66,0.45-11.75-1.05
		c-4.21-1.55-9.09-1.51-13.44-3.36c-11.19-4.76-19.96-12.67-25.8-22.98c-3.22-5.69-5.85-12.38-5.54-19.52
		c0.16-3.78,0.35-7.61-0.05-11.36c-0.62-5.83,1.64-10.98,3.7-15.99c3.6-8.77,9.92-15.85,15.84-23.16
		c5.94-7.35,12.2-14.47,17.44-23.05c-7.07-12.48-16.89-23.39-24.59-36.14c-1.27-3.72,0.24-7.71,1.8-11
		c5.44-11.46,9.76-23.36,14.36-35.13c2.18-5.58,7.11-7.34,11.23-8.55c16.06-4.69,31.35-11.54,47.39-16.26
		c4.81-1.41,9.36-4.36,12.75-9.32c2.91-4.26,5.58-9.1,11.77-13.41c-25.18,1.19-47.9,4.76-69.79,12.56
		c-21.31,7.6-40.86,18.67-59.3,32.66c2.1,1.97,4.4,4.08,6.65,6.25c8.9,8.6,12.56,19.33,12.56,31.49c0,4.3-4.17,14.9-7.15,17.99
		c-6.81,7.08-11.91,15.46-17.76,23.26c-3.23,4.31-5.81,9.19-8.14,14.08c-5.22,10.95-11.71,20.84-20.85,28.97
		c-2.89,2.58-7.19,3.48-8.97,7.77c4.35,6.67,9.63,13.02,12.32,20.97c-1.88,5.81-5.63,9.17-12.1,8.83
		c-4.77,3.73-10.73,1.06-16.13,3.11c-4.81,1.83-10.86,0.38-16.2,0.38c-1.62-1.4-2.67-3.26-4.61-3.71c-0.68,0.54-1.46,0.87-1.46,1.21
		c-0.07,6.4-0.05,12.8-0.05,19.41c3.82,1.84,6.92-0.96,10.11-1.87c6.24-1.79,12.02-5.41,18.15-4.57c7.25,3.97,12.7,9.22,19.01,13.11
		c6.04,3.73,10.13,9.63,16.29,13.22c5.21,3.03,10.5,5.58,16.35,6.87c4.02,0.89,8.17,1.23,12.12,2.35
		c9.41,2.67,16.81,9.87,20.77,18.84c1.14,2.58-1.09,6.01,2.28,7.78c-2.54,6.56-2.28,13.22-0.96,19.95
		c0.95,4.86,2.73,9.47,2.82,14.61c0.18,11.19-5.84,18.28-14.45,23.9c-2.47,1.61-5.21,2.81-8.24,4.42
		c-4.65,13.04-4.72,27.58-9.13,41.4c11.62,7.74,22.59,16.2,35.36,21.63c13.63,5.8,27.31,11.32,41.8,14.92
		c17.72,4.4,35.55,5.66,53.66,5.11c5.52-0.17,11.06-0.29,16.56,0.05c5.16,0.32,9.76-3.16,14.97-1.83
		c6.21-3.01,13.17-3.25,19.72-4.87c6.6-1.64,12.61-5.3,19.53-5.62c4.19-3.89,8.31-1.37,12.63,0.39
		C367.41,452.9,367.69,456.77,367.32,460.64z M220.47,177.46c-2.13,0.21-4.51,2.49-6.09,5.02c-3.11,4.99-6.91,9.39-10.42,14.04
		c-3.1,4.11-7.13,7.43-9.81,11.64c-2.55,4-6.95,7.4-6.35,13.04c-3.46,4.04-1.09,8.84-1.73,13.25c-0.98,6.75,1.59,12.63,5.3,17.86
		c4.79,6.75,11.41,11.41,19.47,13.38c5.11,1.25,19.93,0.02,25.2-2.07c8.35-3.32,14.88,0.15,21.37,4.65c4.6,3.19,6.07,8.5,9.04,13.22
		c0,3.73,0,7.76,0,11.23c4.23,6.1,9.17,11.04,12.02,18.96c0,0.57-0.82,3.22,0.14,4.5c4,5.32-1.85,10.19-0.2,15.23
		c-4.58,5.9-3.22,12.77-3.44,18.86c0.81,1.19,1.46,1.82,1.72,2.58c3.69,10.97,8.76,21.4,12.48,32.39c1.41,4.17,3.15,9.05,7.7,11.51
		c0.85-0.32,1.49-1.17,2.58-1.68c8.68-4.03,15.65-9.22,17.67-19.84c0.96-5.05,3.24-10.57,8.2-14.04c3.01-2.11,3.76-6.06,5.15-9.18
		c0.87-1.95,1.83-3.88,2.73-5.85c2.24-4.88,6.86-7.5,9.77-11.57c0-4.45,1.26-9.35-0.3-13.05c-2.19-5.18-0.93-10.12-1.38-15.13
		c-0.41-4.56,1.65-8.94,4.17-12.13c3.49-4.4,6.45-9.31,10.8-13.11c4.59-4,8.68-8.58,13-12.89c1-1,2.21-1.9,1.14-4.06
		c-5.32,0.16-10.77-1.42-15.02-4.64c-6.75-5.11-12.14-11.8-15.83-19.52c-4.76-9.95-8.7-20.24-12.41-30.66
		c-2.09-5.87-6.42-10.98-12.46-12.8c-5.15-1.55-10.38-3.12-15.93-4.57c-2.26,2.64-4.5,5.26-6.5,7.6c-4.11-1.51-6.37,2.76-9.66,1.43
		c-3.98-1.61-8.2-2.45-11.88-5.01c-5.79-4.03-11.93-7.56-17.82-11.23c-1.68-3.38-3.34-6.72-4.89-9.83
		C238.91,174.35,230.18,175.05,220.47,177.46z M70.99,280.35c0,3.84-0.86,7.35,0.15,10.18c4.44,12.46,5.93,25.72,11.8,37.88
		c5.44,11.25,13.68,29.66,19.59,38.11c10.18,14.55,21.09,28.49,33.76,40.81c3.48-3.42,2.31-8.27,3.61-12.4
		c1.22-3.86,2.95-7.79,2.56-12.04c-0.42-4.56,3.1-8.53,1.83-12.31c3.1-3.12,5.73-5.78,8.48-8.55c2.93,0.62,5.15-2.85,8.1-1.92
		c2.13-2.13,3.97-3.98,4.99-5c2.78-5.58-0.44-9.5-1.35-13.76c-1.03-4.82-4.37-9.85-2.57-14.38c2.07-5.19,0.69-10.06,1.47-14.52
		c-1.43-3.12-4.78-2.58-6.32-4.69c-6.24,0.56-11.8-2.35-17.71-3.46c-7.13-1.34-13.37-4.89-18.77-9.18
		c-6.35-5.04-12.85-9.99-18.91-15.36c-6.18-5.48-12.17-6.26-19.9-3.78C78.13,277.16,75.09,279.5,70.99,280.35z M84.91,225.63
		c3.39,0.01,4.96-2.06,7.66-2.9c-3.3-5.92-7.29-10.84-9.38-16.76c4.08-7.07,6.09-8.65,14.78-13.69c5.34-3.1,9.52-7.42,13.3-12.55
		c5.88-7.97,10.28-16.81,15.18-25.25c6.61-11.4,14.6-21.5,22.33-31.45c4.22-6.28,2.9-12.56-0.45-18.15
		c-3.39-5.65-7.55-11.09-15.41-10.5c-4.15,4.16-8.86,7.84-12.24,12.49c-7.46,10.27-16.07,19.71-22.27,30.89
		c-3.16,5.7-7.17,11.14-9.5,17.01c-2.47,6.22-5.34,12.35-7.67,18.66c-2.34,6.35-4.74,12.72-6.05,19.27
		c-1.55,7.77-5.46,15.21-4.01,23.46c1.69,1.69,3.12,3.65,5.02,4.91C78.89,222.85,81.91,224.1,84.91,225.63z"/>
	<path class="st6" d="M403.53,306.01c2.77,0,5.38,0,7.98,0c2.86,2,3.93,4.85,5.23,8.1c3.5,8.75,3.32,17.72,2.71,26.65
		c-0.24,3.47-2.92,6.83-3.93,10.49c-2.01,7.29-3.93,14.61-6.36,21.76c-2.79,8.23-5.55,16.53-11.96,22.94
		c-1.81,1.81-3.74,3.3-6.07,4.49c-1.42,0-2.84,0-4.26,0c-9.53-0.03-16.06-5.76-19.69-14.92c-2.51-6.33-1.48-12.18,0.39-17.74
		c3.03-9.01,3.75-18.07,3.17-27.21c0.47-0.6,0.83-1.03,1.16-1.48c3.52-4.91,7.01-9.87,13.82-10.36c4.06-4.29,8.99-7.88,11.29-13.61
		C398.36,311.7,399.88,308.47,403.53,306.01z M387.39,379.43c4.74-11.1,7.88-22.75,11.26-34.23c-0.96-0.91-1.75-1.67-2.59-2.47
		c-2,2.66-5.57,2.32-7.73,4.44c-0.23,7.37,1.23,14.99-1.93,21.9c-1.4,3.06-1.5,5.9-1.54,8.95c-0.01,0.46,0.52,0.93,0.81,1.41
		C386.23,379.43,386.81,379.43,387.39,379.43z"/>
	<path class="st7" d="M392.28,452.52c-1.14-1.96-3.02-1.28-4.97-1.4c-1.14-1.38-2.43-2.95-4.14-5.03c0-2.02,0-4.9,0-8.28
		c1.22-1.01,2.77-2.29,4.82-3.99c2.87,0,6.56,0,10.07,0c3.19,3.03,4.59,6.52,4.17,11.01C399.67,447.86,396.89,450.97,392.28,452.52z
		"/>
	<path class="st8" d="M294.73,141.64c-2.91,0-5.5,0-8.58,0c-0.94-1.37-2.08-3.03-4.04-5.88c0-1,0-3.84,0-7.47
		c1.2-1,2.93-2.43,4.94-4.1c2.3,0,5.17,0,8,0c1.46,1.46,2.88,2.89,4.31,4.33c0,2.87,0,5.75,0,8.84
		C298.01,138.61,296.54,139.97,294.73,141.64z"/>
</g>
</svg>
