<svg viewBox="0 0 42.09 42.15" xmlns="http://www.w3.org/2000/svg"><g transform="translate(-1.63 -1.6)"><path d="m14.12 41.83a19.48 19.48 0 0 1 -9.9-9.09c-5.94-11.38-1.31-24.34 10.44-29.52 8.56-3.77 19.35-.75 25 7a21.11 21.11 0 0 1 -6.85 31c-.48.27-1 .45-1.52.68-1.1.26-1.77-.72-2.72-1a10.64 10.64 0 0 1 -2.77-1.36.43.43 0 0 1 -.12-.33 1.73 1.73 0 0 1 1.71-1c1.48-.14 3.25-1.8 3.93-3.12s1.1-3 1.73-4.48c.28-.44.69-.76 1-1.17a3 3 0 0 0 -.24-4.27 2.47 2.47 0 0 1 -.53-.63 3.15 3.15 0 0 1 .21-1.87 19.24 19.24 0 0 0 2.46-6.93 6.06 6.06 0 0 0 -.46-2.56 10.72 10.72 0 0 0 -8.34-8.4c-4.17-1-8 0-11.6 1.91a9.61 9.61 0 0 0 -4.91 6.31c-1 3.49.19 6.5 1.47 9.57a3.76 3.76 0 0 1 .15 1.43 2.18 2.18 0 0 1 -.58.89c-1.56 1.82-1.37 3.69.52 5.21a1.69 1.69 0 0 1 .52.64 17.88 17.88 0 0 0 .88 3.76 4.63 4.63 0 0 0 2.77 3 11.29 11.29 0 0 1 2.73 1.7c-.46 1.1-1.53 1.45-2.46 1.9a8.4 8.4 0 0 1 -2.52.73z" fill="#ed6f47"/><path d="m25.8 39.39c1.06 0 1.79.91 2.77 1.16a14.24 14.24 0 0 1 2.7 1.29 15.49 15.49 0 0 1 -5.68 1.65c-.36 0-.86.22-.77-.49.23-.35-.11-.68-.05-1a11.25 11.25 0 0 1 .54-2.07.93.93 0 0 1 .49-.54z" fill="#777781"/><path d="m14.12 41.83c.41-.78 1.3-.64 1.93-.88a15.72 15.72 0 0 0 3.1-1.76.35.35 0 0 1 .49 0 8.14 8.14 0 0 1 .84 2.71c.06.3-.13.57-.05.87.13.55 0 .84-.65.74a15.44 15.44 0 0 1 -5.66-1.68z" fill="#787785"/><path d="m20.43 42.77a.84.84 0 0 1 -.19-.71c.22-.23.37-.53.65-.68a1.6 1.6 0 0 0 .85-1.87 3.42 3.42 0 0 1 4-.32l.07.2-.24.5a5.83 5.83 0 0 0 -.7-.15 1.25 1.25 0 0 0 -1.32.6c-.19.47.41.6.67.86a9.48 9.48 0 0 1 .81.87c0 .32.09.67-.2.93a1.68 1.68 0 0 0 -1-1.2c-.77-.28-1.56-.69-2.19.25-.74-.34-.86.39-1.21.72z" fill="#beac9d"/><path d="m21.65 42.05c.5-1.35.79-1.39 2.19-.25a2.68 2.68 0 0 0 -.51 1.54c.07.63-.48.34-.77.38s-.7.07-.52-.47-.19-.83-.39-1.2z" fill="#423a44"/><path d="m11.93 22.67a13.58 13.58 0 0 1 -2-8.29 10.28 10.28 0 0 1 6.22-8.48 23.46 23.46 0 0 1 5.79-1.63 11.81 11.81 0 0 1 11.22 3.55 10.51 10.51 0 0 1 2.76 5.73c.62 3.45-.45 6.35-2.27 9.13-.48 0-.75-.44-1.17-.56a35.28 35.28 0 0 0 -5.59-2.57 10.92 10.92 0 0 1 -1.87-1 25.86 25.86 0 0 1 -4.58-3.55c-.2-.21-.49-.46-.71-.2-1 1.15-2.11 2.2-3 3.43a30.66 30.66 0 0 1 -3.73 3.83c-.37.2-.49.81-1.07.61z" fill="#2f7d9e"/><path d="m11.93 22.67c.45-.06.49-.64.91-.74.51.35.31.86.3 1.32a14.56 14.56 0 0 0 .61 5.08c.79 2.33 2.35 3.2 4.75 2.65a17.35 17.35 0 0 1 8.29-.06c2.79.69 4.93-.85 5.31-3.74a24.38 24.38 0 0 0 .28-3.82c0-.46-.08-1 .36-1.32.49-.06.6.44.91.64-.06.62-.13 1.23-.19 1.85.46.76.1 1.57 0 2.34a12.5 12.5 0 0 1 -.27 3.66c-.57 1.35-.35 3-1.56 4.13-.36.32 0 .92-.25 1.22-1 1.08-2.06 2.27-3.57 2.52a4.06 4.06 0 0 0 -2.12.79 7.06 7.06 0 0 0 -4.06.46c-.8.25-1.38-.57-2.15-.44h-.37a7.67 7.67 0 0 1 -3.7-1.84c-1-.92-2.66-1.85-2.33-3.93.12-.72-.74-1.67-.66-2.65-.11-1.81-.36-3.61-.59-5.41a6.88 6.88 0 0 1 .17-1.31z" fill="#3a2112"/><path d="m12 24.07c.22 2.16 1 4.27.55 6.48 0 .08-.06.15-.08.22-.16-.55-.76-.48-1.1-.8a3.78 3.78 0 0 1 -.24-4.97z" fill="#e1a878"/><path d="m33.23 30.53a18.59 18.59 0 0 1 .23-6c2.04.85 2.44 4.34-.23 6z" fill="#e0aa78"/><path d="m25 42.07c-.77-.2-1.19-.89-1.82-1.29-.25-.16-.36-.37-.06-.68a1.61 1.61 0 0 1 2.42-.21z" fill="#f9f6f4"/><path d="m19.52 39.21c.94-.94 1.41.41 2.15.44.73.46 1 .94 0 1.42-.52.28-.77.94-1.45 1z" fill="#f7f6f4"/><path d="m32.74 22a42.22 42.22 0 0 1 -.27 5 5.68 5.68 0 0 1 -2 3.71 3.34 3.34 0 0 1 -3.36.62 15.13 15.13 0 0 0 -8-.19c-3.52.82-5.58-.65-6.08-4.26a49.34 49.34 0 0 1 -.18-5l3.78-3.84a4.31 4.31 0 0 1 3-.38c.47.09 1 .35 1.4.14 1.45-.74 2.7-.11 4 .45 2.46 1.46 5.39 1.99 7.71 3.75z" fill="#e0ab7a"/><path d="m25 18.3a25.52 25.52 0 0 0 -4.47-.22 25.23 25.23 0 0 1 -3.89 0c-.36-.42.19-.42.31-.56.83-1.05 1.73-2.05 2.57-3.09.23-.29.4-.55.71-.17 1.3 1.68 3.15 2.74 4.77 4.04z" fill="#3b2215"/><path d="m22.82 33.69a4 4 0 0 1 -2.6-.69c-.25-.17-.61-.38-.31-.76s.47-.13.73 0a3.47 3.47 0 0 0 4.22 0c.27-.17.57-.46.8-.06s-.13.59-.37.78a3.4 3.4 0 0 1 -2.47.73z" fill="#9c6d4a"/><path d="m16.15 25.73c.07-.73.38-1.36 1.19-1.37s1.18.59 1.2 1.35-.36 1.46-1.23 1.44-1.11-.65-1.16-1.42z" fill="#402413"/><path d="m29.35 25.79c-.12.73-.39 1.38-1.22 1.36s-1.13-.58-1.13-1.36.38-1.45 1.24-1.43 1.02.7 1.11 1.43z" fill="#402413"/><path d="m21.72 28.05c0-.67 0-1.34 0-2a.48.48 0 0 1 .56-.48c.29 0 .32.29.33.54a20.78 20.78 0 0 1 -.23 4c0 .21-.14.39-.37.38s-.33-.2-.34-.41v-2z" fill="#b78157"/><path d="m17.8 21.67c.22 0 .53.11.83.2s.87.24.69.75-.59.13-.91.06a3 3 0 0 0 -2.19.25c-.28.15-.62.39-.83 0s.19-.63.49-.8a4.46 4.46 0 0 1 1.92-.46z" fill="#4b2e1b"/><path d="m28.29 21.86a2.37 2.37 0 0 1 1.66.51c.19.15.41.33.26.59a.42.42 0 0 1 -.62.14 2.42 2.42 0 0 0 -2.79 0c-.26.15-.57.18-.72-.13s.16-.49.39-.64a3.11 3.11 0 0 1 1.82-.47z" fill="#452713"/></g></svg>