<svg viewBox="0 0 42.13 42.07" xmlns="http://www.w3.org/2000/svg"><g transform="translate(-1.61 -1.64)"><path d="m15.26 42.16a12.64 12.64 0 0 1 -5.19-2.65 19.71 19.71 0 0 1 -7.6-10.94c-1.86-7-.76-13.5 3.91-19.21a19.8 19.8 0 0 1 11.62-7.19 20.67 20.67 0 0 1 18.43 4.57 20.16 20.16 0 0 1 6 8.52 20.66 20.66 0 0 1 .72 12.16 20.77 20.77 0 0 1 -11.57 14.3 16.64 16.64 0 0 1 -1.66.63 1.07 1.07 0 0 1 -.58-.7c-.26-1.39-.13-1.52 1.2-1.21s2 0 2.58-1.37a1.05 1.05 0 0 1 1-.81c1.08-.08 1.46-.52 1.38-1.65a1.29 1.29 0 0 1 .92-1.56 1.45 1.45 0 0 0 .86-2 2.08 2.08 0 0 1 .31-2 1.89 1.89 0 0 0 .16-2 1.32 1.32 0 0 1 .1-1.55c.18-.22.38-.56.24-.77-.81-1.17-.65-2.74-1.58-3.84a1.53 1.53 0 0 1 -.46-1c0-1.08-1.34-1.36-1.43-2.21s.18-1.68-.62-2.41a1.09 1.09 0 0 1 -.19-1 3 3 0 0 0 -1.8-3.33 1.25 1.25 0 0 1 -.77-1.12c-.07-2.27-2.07-3.13-3.78-3.24a8.3 8.3 0 0 0 -4.23.59 1.72 1.72 0 0 1 -1.7-.06 4.91 4.91 0 0 0 -6.28 1.48 3.24 3.24 0 0 1 -1.49 1.32 4.45 4.45 0 0 0 -3 4.56 9.39 9.39 0 0 0 .13 1.91 1.4 1.4 0 0 1 -.37 1.44 2.1 2.1 0 0 0 -.64 2.07 1.19 1.19 0 0 1 -.63 1.39 2 2 0 0 0 -.87 2.68 1.9 1.9 0 0 1 -.18 2 2.24 2.24 0 0 0 .18 3 1.14 1.14 0 0 1 .14 1.49 2.17 2.17 0 0 0 .66 3.07 1.72 1.72 0 0 1 .73 1.4c.07 1.62.83 2.31 2.5 2.41.32 0 .66 0 .88.26a3.55 3.55 0 0 0 1.75 1.2.85.85 0 0 1 .62 1.12.42.42 0 0 1 -.4.25z" fill="#f2b43d"/><path d="m29.64 41.57.28.78a20.38 20.38 0 0 1 -14.21.16 1.83 1.83 0 0 1 -.45-.35l.24-.23a8.36 8.36 0 0 1 .43-2.75c.15-.27.17-.69.46-.81 1.51-.64 2.57-2.11 4.31-2.3 1.16.72 1.35 2 1.86 2.92.52-.86.75-2.16 1.86-2.93a3.43 3.43 0 0 1 2.79 1.35c.21.27.55.23.79.49.81.85 1.62 1.64 1.3 3a.66.66 0 0 0 .34.67z" fill="#b3385f"/><path d="m20.84 36.24a13.23 13.23 0 0 0 -4.09 2.31c-.74.51-.71 1.58-1 2.41-.11.31.12.72-.26 1 0-.47 0-.82-.61-1a2.08 2.08 0 0 1 -1.7-1.16c-.18-.46-.55-.17-.83-.16a2.53 2.53 0 0 1 -2.75-2.83.87.87 0 0 0 -.5-1 2.5 2.5 0 0 1 -.8-3.63c.25-.38.4-.51 0-.92a2.57 2.57 0 0 1 -.21-3.66 1 1 0 0 0 .11-1.32 2.32 2.32 0 0 1 1.13-3.38c.45-.25.39-.46.29-.85a2.12 2.12 0 0 1 .72-2.46c.54-.37.36-.8.29-1.27-.28-1.81-.35-3.58.88-5.13.24-.31.49-.74.82-.85 1.67-.54 2.58-1.94 3.77-3.06a5 5 0 0 1 5.76-.33c.48.34.79.13 1.2 0a8.24 8.24 0 0 1 6.72-.05 2.85 2.85 0 0 1 1.78 2.61 1.29 1.29 0 0 0 .91 1.31 2.67 2.67 0 0 1 1.67 2.05 30.49 30.49 0 0 0 .76 3.45 6.6 6.6 0 0 0 1.17 2.68c.49.69.53 1.73 1.34 2.3 0 0 .06.07.05.1-.19 1.16.48 2 1 3 .1.19.16.58.05.69-.89.85-.17 1.79-.25 2.68-.14 1.54-.94 3-.64 4.63 0 .13-.07.39-.17.43-1.44.51-1.62 1.68-1.77 3a1.16 1.16 0 0 1 -1.5.85c-.35-.08-.52-.11-.69.34-.74 2-1.38 2.29-3.38 1.66l-.53-.13c-.25.44 0 .75.08 1.09-.19-.06-.4-.13-.4-.37 0-2.43-1.73-3.5-3.59-4.48a2.68 2.68 0 0 0 -1.27-.49c-.62-1.5-.37-2.22 1-2.69a8.91 8.91 0 0 0 5.47-5.18 2.65 2.65 0 0 1 1.57-1.67 2.22 2.22 0 0 0 1.18-2.62.83.83 0 0 0 -.74-.67 1.94 1.94 0 0 1 -1.73-1.47 1 1 0 0 0 -1-.75 1 1 0 0 1 -.61-.34c-.36-.67-1-1.14-1.27-1.87-.16-.44-.54-.37-.91-.32a3.58 3.58 0 0 1 -3.62-1.6c-.3-.42-.52-.58-1.06-.41a5.45 5.45 0 0 1 -4-.18c-.47-.2-.69-.16-.86.38a4.89 4.89 0 0 1 -3 3.49.88.88 0 0 0 -.6.93 4.72 4.72 0 0 1 -.22 1.29c-.22.8-.7 1.21-1.49.72-.63-.38-.85-.13-1 .44a2.38 2.38 0 0 0 1.37 3.05 2.07 2.07 0 0 1 1.25 1.32 9.24 9.24 0 0 0 5.5 5.34c1.54.56 1.75 1.11 1.21 2.75z" fill="#d86e28"/><path d="m20.84 36.24a5.77 5.77 0 0 1 0-.72 1.47 1.47 0 0 0 -1.21-1.79 9 9 0 0 1 -5.79-5.6 1.42 1.42 0 0 0 -1.11-1c-1.63-.41-2.2-3.25-1-4.4.38-.36.51-.15.7.15s.48.57.89.4.46-.51.53-.87a4.33 4.33 0 0 1 1.81-2.73 4.85 4.85 0 0 0 2.09-3.95c1.88 1 3.78 1.52 5.73.3 1.27 2.23 1.94 2.56 4.5 2.21.2 0 .42-.14.45.16.09.95.88 1.52 1.22 2.33-1 .26-2.05-.2-3 .36a4.35 4.35 0 0 1 2.74.07c.27.08.46 0 .58-.23.84-.06 1.39.19 1.56 1.13a1.28 1.28 0 0 0 1.47 1.06c.79-.08.93.34 1 1a2.57 2.57 0 0 1 -2 3.1c-.41.14-.43.43-.53.7-1.23 3-3.18 5.2-6.41 6.06a.81.81 0 0 0 -.66 1v1.31l-1.76 3a20.39 20.39 0 0 1 -1.8-3.05z" fill="#fdd4b0"/><path d="m30 20.9c.19.71-.18.75-.68.54a3.31 3.31 0 0 0 -2.53 0c-.29.11-.64.34-.8-.09s.26-.58.59-.69a4.33 4.33 0 0 1 3.11.07z" fill="#af6142"/><path d="m22.41 32a2.22 2.22 0 0 1 -1.87-.63c-.47-.47-.92-1-.66-1.68s.91-.3 1.39-.32h3.23c.75 0 .89.37.59 1a2.76 2.76 0 0 1 -2.68 1.63z" fill="#c79881"/><path d="m29.09 24.29c-.09.72-.35 1.39-1.24 1.44s-1.29-.55-1.33-1.35.25-1.58 1.19-1.63 1.29.68 1.38 1.54z" fill="#3e2615"/><path d="m16.16 24.3c.06-.9.41-1.54 1.27-1.54s1.29.69 1.27 1.54-.35 1.43-1.25 1.43-1.22-.73-1.29-1.43z" fill="#3d2314"/><path d="m17.51 20.44a2.76 2.76 0 0 1 .82.06c.42.15 1.15.17 1 .78s-.69.08-1 0a3.56 3.56 0 0 0 -2.09.24c-.3.12-.54.16-.65-.21s.12-.44.34-.53a3.5 3.5 0 0 1 1.58-.34z" fill="#a85d3e"/><path d="m21.75 26.29c0-.47 0-.95 0-1.42 0-.25 0-.52.35-.53s.36.25.36.49v2.85c0 .26-.11.54-.37.54s-.33-.36-.33-.62c0-.44 0-.87 0-1.31z" fill="#c49373"/><path d="m24.46 30a2.28 2.28 0 0 1 -3.53.79c-.16-.16-.38-.32-.3-.59s.32-.19.5-.19z" fill="#fcf7f1"/></g></svg>