<svg viewBox="0 0 42.15 42.15" xmlns="http://www.w3.org/2000/svg"><g transform="translate(-1.6 -1.57)"><path d="m25.73 37.86-.49-.47c-.62-1.47-.37-2.29 1.05-2.69a8.76 8.76 0 0 0 5.31-4.7 2.35 2.35 0 0 1 1-1.14 3.4 3.4 0 0 0 .77-5.86.69.69 0 0 1 -.13-.2 8.05 8.05 0 0 1 .47-3.41 21.28 21.28 0 0 0 .56-5.21 3.5 3.5 0 0 0 -2-3.32 1.31 1.31 0 0 1 -.85-1.59c.17-1.08-.61-2-1.93-2.37a9.9 9.9 0 0 0 -4.05-.22 26.85 26.85 0 0 0 -9.12 2.76 7.64 7.64 0 0 0 -4.49 7.42 50.4 50.4 0 0 1 .23 5.49 2.5 2.5 0 0 1 -.57 1c-1.59 2.25-1.08 4.27 1.4 5.47.66.32.81.95 1.05 1.53a6.63 6.63 0 0 0 3.76 3.73c.47.2.94.41 1.4.65 1.22.63 1.39 1.12.86 2.5l-.5.68a45.27 45.27 0 0 1 -6.72 3.17 17.3 17.3 0 0 1 -6.66-5.47 19.9 19.9 0 0 1 -4.51-12.8 20.46 20.46 0 0 1 5.43-14.26 20.24 20.24 0 0 1 12.13-6.68 20.57 20.57 0 0 1 16.76 4.39 20.84 20.84 0 0 1 7.32 11.74 21.08 21.08 0 0 1 -8 21.57 15.75 15.75 0 0 1 -2.73 1.7 30.15 30.15 0 0 0 -4.89-2.27c-.5-.58-1.41-.48-1.86-1.14z" fill="#8ac6da"/><path d="m20 37.25c0-1.8-.58-2.23-2.53-2.93a6.55 6.55 0 0 1 -3.75-3.76c-.29-.67-.45-1.37-1.46-1.59-1.58-.33-2.45-3.07-1.72-4.67.34-.73 1-1.21 1.32-1.9.7.19.46.81.57 1.18a23.07 23.07 0 0 1 .29-5.22c.45-1.78 1.1-2.38 2.92-2.32 2.07.06 4.14.14 6.2.37a30.37 30.37 0 0 0 6.67-.3c3.44-.37 4.43.38 4.5 3.87a20.92 20.92 0 0 1 -.07 3.47 1 1 0 0 1 .51-.66 3.53 3.53 0 0 1 -.55 6.26c-.39.17-.77.37-.88.73-.43 1.57-1.68 2.53-2.65 3.7a4.92 4.92 0 0 1 -2.09 1.26c-2 .75-2 .71-2 2.65a1.3 1.3 0 0 0 -.43.18c-1.77 1.7-3.31.79-4.85-.32z" fill="#fdcd9b"/><path d="m12.78 41.1a9.08 9.08 0 0 1 3.22-1.7c1.25-.33 2.15-1.47 3.52-1.47.47 1.83.94 3.67 1.45 5.64a17.25 17.25 0 0 1 -8.19-2.47z" fill="#4d4252"/><path d="m25.73 37.86c.68.24 1.51.18 1.93 1a4.62 4.62 0 0 1 .63 3.14c0 .87-1.07.8-1.61 1.23-2.36.74-2.42.7-1.91-1.55.28-1.29.64-2.55.96-3.82z" fill="#574b5c"/><path d="m26.68 43.21c1.7-.8 1.41-2.19 1.09-3.59a7.5 7.5 0 0 1 -.11-.81c1.69.64 3.53 1 4.79 2.45a16.85 16.85 0 0 1 -5.77 1.95z" fill="#3e3441"/><path d="m22.72 43.67c-.83.18-1.06-.14-.86-1a2.55 2.55 0 0 0 -.32-2.38c-.23-.29.53-1.18 1-1.16a1.43 1.43 0 0 1 1 1.69 2.57 2.57 0 0 0 0 1.87c.11.73.06 1.18-.82.98z" fill="#3f3742"/><path d="m33.45 22.79c-.36.61-.12 1.41-.82 2.31v-4.47c0-.32 0-.64 0-1-.08-3.05-.89-3.66-3.91-3.22a49 49 0 0 1 -11.1 0c-.2 0-.39-.07-.59-.1-3.16-.37-4 .32-4.2 3.53-.09 1.71 0 3.42 0 5.45-.85-1.06-.54-2.13-1-3-.1-1.67-.17-3.34-.3-5-.33-4.27 1.72-7.08 5.47-8.7a24.54 24.54 0 0 1 11.12-2.3 4.47 4.47 0 0 1 2.86 1 1.87 1.87 0 0 1 .76 2.19c-.14.43-.14.68.4.89a3.88 3.88 0 0 1 2.52 3.81c.13 2.55-.64 4.95-1.08 7.41-.07.41-.09.81-.13 1.2z" fill="#8a644a"/><path d="m18.54 24c-.11.83-.35 1.48-1.19 1.51s-1.2-.51-1.22-1.29.26-1.44 1.18-1.46 1.05.71 1.23 1.24z" fill="#412614"/><path d="m22.81 32.18a5.4 5.4 0 0 1 -2.66-.75c-.23-.16-.49-.35-.35-.68s.46-.22.71-.09c1.56.81 3.09 1 4.54-.25a.38.38 0 0 1 .54 0 .46.46 0 0 1 0 .64 3.84 3.84 0 0 1 -2.78 1.13z" fill="#bf8b63"/><path d="m29.33 24.28c-.08.7-.37 1.28-1.22 1.26s-1.17-.63-1.17-1.37.38-1.43 1.28-1.38 1.09.68 1.11 1.49z" fill="#402513"/><path d="m21.67 26.41c0-.64 0-1.27 0-1.91 0-.29.09-.58.44-.6s.48.27.47.56a14.59 14.59 0 0 1 -.2 3.9c-.07.25-.13.48-.45.41s-.28-.26-.28-.46v-1.9z" fill="#d29e74"/><path d="m28.29 20.2a2.83 2.83 0 0 1 1.67.55c.22.17.44.39.19.69s-.39.19-.61 0a2.4 2.4 0 0 0 -2.69 0c-.31.17-.6.3-.78-.12s.19-.48.41-.61a3.49 3.49 0 0 1 1.81-.51z" fill="#77502c"/><path d="m17.94 20.17c-.16 0 0 0 .24 0 .47.07 1.15.15 1 .7s-.68.14-1 .08a2.78 2.78 0 0 0 -2.17.44c-.27.19-.51.24-.69-.08s0-.46.24-.6a3.52 3.52 0 0 1 2.38-.54z" fill="#764d29"/></g></svg>