<svg viewBox="0 0 42.1 42.16" xmlns="http://www.w3.org/2000/svg"><g transform="translate(-1.63 -1.6)"><path d="m14.28 41.91a19.61 19.61 0 0 1 -11.38-12.08 21 21 0 1 1 28.9 11.85c-.21.1-.45.15-.67.23a1 1 0 0 1 -.49-.65c-.58-2.75-2.4-4.28-4.95-5.12-.93-.18-1.16-.8-1.15-1.66a1.52 1.52 0 0 1 1.1-1.62 9.17 9.17 0 0 0 5.51-5.47 1.69 1.69 0 0 1 .85-1.08c1.87-.87 2.27-2 1.47-3.83a3.18 3.18 0 0 1 -.25-.67 8.61 8.61 0 0 1 0-2 9.37 9.37 0 0 0 -3.6-9 2.42 2.42 0 0 1 -1.11-2.51c.32-2.23-1.08-3.81-3.71-4.28a7.77 7.77 0 0 0 -4.79.57 3.53 3.53 0 0 0 -2.19 3.62 1.44 1.44 0 0 1 -.93 1.62c-4.24 1.9-5 6.13-4.83 10.07a11 11 0 0 1 .1 1.9 4.38 4.38 0 0 1 -.47 1.09 2.58 2.58 0 0 0 1.17 3.27 2.48 2.48 0 0 1 1.28 1.31 9.24 9.24 0 0 0 5.66 5.44 1.34 1.34 0 0 1 1 1.41c0 .77 0 1.54-.93 1.82-2.54.76-4.5 2.12-5.16 4.87a1.32 1.32 0 0 1 -.43.9z" fill="#de6f8f"/><path d="m14.28 41.91c.54-3.32 2.44-5.38 5.5-6a4.32 4.32 0 0 0 3.27 1.44c1.23-.05 1.93-.82 2.78-1.46a7.05 7.05 0 0 1 5.3 6 20.12 20.12 0 0 1 -16.85.02z" fill="#6a4d76"/><path d="m25.83 35.89c-.55 1.48-1.76 1.8-3.15 1.78s-2.43-.36-2.9-1.76c1-.25.72-1 .78-1.72s-.36-.79-.88-1a9.62 9.62 0 0 1 -5.9-6 1 1 0 0 0 -.5-.63c-2.28-1.14-2.69-2.51-1.28-4.8a1.83 1.83 0 0 1 .75 1.38 6 6 0 0 1 2.31-3c.09-.07.25-.18.32-.13 1.07.86 2.4-.51 3.45.44-.45-.4-.45-.4-1.51-.55-.31 0-.72 0-.8-.38s.28-.53.57-.67a16.77 16.77 0 0 1 3.35-1.28 24.89 24.89 0 0 0 5.75-2.31c.58-.32 1.16-.53 1.5.24.8 1.87 2.27 3.26 3.45 4.85a6.1 6.1 0 0 1 1.41 3.07c.31-.53.16-1.37.93-1.7a3.52 3.52 0 0 1 .46 3.48c-.22.47-.54 1-1 1.1-1.3.17-1.45 1.23-1.86 2.1a9.05 9.05 0 0 1 -5.24 4.72c-.83.31-.91.73-1 1.46s.31 1.15.99 1.31z" fill="#fdcc9b"/><path d="m33.45 21.74c-.46.69-.38 1.62-1.06 2.32a8.41 8.41 0 0 0 -2.39-4.68 12.43 12.43 0 0 1 -2.53-3.73c-.16-.4-.24-.72-.8-.34a22.16 22.16 0 0 1 -6.36 2.63 13.06 13.06 0 0 0 -3.68 1.6 4.51 4.51 0 0 1 2.39.4c.27.19.7.4.47.82s-.58.11-.87-.07a1.89 1.89 0 0 0 -2.23.1c-.79.51-.81 0-.72-.71a6.42 6.42 0 0 0 -2.83 3.48c-.53-.51-.43-1.27-.82-1.8a17.68 17.68 0 0 1 .18-6.76 7.92 7.92 0 0 1 4.48-5.43c.68-.32 1.05-.58.86-1.5-.32-1.61.72-3.18 2.64-3.94a7.53 7.53 0 0 1 6.82.36 3.53 3.53 0 0 1 1.89 4.32.94.94 0 0 0 .37 1.2 10 10 0 0 1 4.28 10.42 11.38 11.38 0 0 0 -.09 1.31z" fill="#4f301c"/><path d="m18.81 23.66c-.13.76-.33 1.51-1.32 1.51s-1.23-.62-1.25-1.42.29-1.53 1.25-1.54 1.18.66 1.32 1.45z" fill="#3e2514"/><path d="m29.19 23.64c-.15.84-.41 1.57-1.39 1.53s-1.22-.69-1.23-1.47.4-1.51 1.34-1.49 1.09.72 1.28 1.43z" fill="#3d2414"/><path d="m22.48 30.46a4.4 4.4 0 0 1 -2.48-.54c-.29-.16-.57-.42-.36-.76s.47-.07.72.07a4.45 4.45 0 0 0 4.21.07c.27-.11.55-.5.79-.08s-.22.56-.44.72a3.91 3.91 0 0 1 -2.44.52z" fill="#bd8b60"/><path d="m28 19.61a2 2 0 0 1 1.57.5c.19.16.39.36.24.6a.42.42 0 0 1 -.63.1 1.68 1.68 0 0 0 -2.2 0c-.22.16-.45.22-.63 0s0-.52.23-.69a1.92 1.92 0 0 1 1.42-.51z" fill="#472a16"/><path d="m22.54 25.55c-.29.67.38 1.8-.5 1.85-.59 0-.26-1.15-.26-1.77s-.35-1.77.37-1.75.05 1.12.39 1.67z" fill="#be895f"/></g></svg>