<svg xmlns="http://www.w3.org/2000/svg" viewBox="0 0 42.16 41.66"><title>Untitled-1</title><path d="M26.64,39.46c-.09-.35,0-.77-.37-1,.13-1-.7-1.52-1.13-2.24-.19-1.88-.12-2.1,1.57-2.67A8,8,0,0,0,31.38,29a2.07,2.07,0,0,1,1.22-1.22,3.1,3.1,0,0,0,1.29-5.13c-.33-.39-.79-.69-.9-1.25-.18-2.19.35-4.36.16-6.55a3.9,3.9,0,0,0-.08-1.18,1.1,1.1,0,0,1-.07-.47c.33-2.08-.8-3.44-2.25-4.68A8.39,8.39,0,0,0,26.8,7a18.53,18.53,0,0,0-4.23-.61,17.4,17.4,0,0,0-11,4,1.73,1.73,0,0,0-.44,1.86,1.7,1.7,0,0,1-.06,1.36c-.77,1.32-.71,1.44.52,2.44a.84.84,0,0,1,.2.29,40.24,40.24,0,0,1,.35,5.37c-.15.52-.6.83-.91,1.24a3,3,0,0,0,1.4,4.86,2.27,2.27,0,0,1,1.44,1.3,7.85,7.85,0,0,0,5.16,4.65,1.53,1.53,0,0,1,1,.64c.34,1.68.11,2.23-1.35,3.18a53.68,53.68,0,0,0-5,2.23c-.67.37-1,1-1.52,1.45a21,21,0,1,1,30.81-23.1c2.14,9.14-2.33,19.12-10.36,23.15-1.26-1.86-3.37-2.39-5.22-3.32-.35-.18-.5,0-.53.37s.06.88-.31,1.22c0,0-.07,0-.09,0A.31.31,0,0,1,26.64,39.46Z" transform="translate(-1.6 -1.85)" style="fill:#2f7e9e"/><path d="M12.41,41.23c.15-1,.89-1.4,1.63-1.87,1.34-.85,2.89-1.21,4.26-2,.18-.09.29,0,.39.14.4,1-.19,2.12.17,3.15a14.9,14.9,0,0,0,0,1.89c.09.84-.2,1.06-1,.84A22.35,22.35,0,0,1,12.41,41.23Z" transform="translate(-1.6 -1.85)" style="fill:#5f4027"/><path d="M26.64,39.46c.29-.67-.26-1.68.33-2s1.24.46,1.88.72a14.63,14.63,0,0,1,3.28,1.76,1.57,1.57,0,0,1,.73,1.35,21.7,21.7,0,0,1-5.37,2.15c-.66.19-1,.09-.95-.76C26.65,41.6,26.61,40.53,26.64,39.46Z" transform="translate(-1.6 -1.85)" style="fill:#5d3f26"/><path d="M18.86,40.69a18.43,18.43,0,0,1-.17-3.15,2.93,2.93,0,0,0,1.47-3.1.24.24,0,0,1,.34.21c-.11,1.73,1.18,2.26,2.4,2.85.49.28.82.75,1.28,1.06.25.16.5.51.82.27a.79.79,0,0,0,.2-1.07,4.23,4.23,0,0,1-.41-1c0-.33.15-.54.52-.53.49.66,1.83,1,1,2.2-.14.28-.32.55-.43.84-.54,1.5-.6,1.52-1.8.34-1.37-1.36-1.37-1.36-2.77-.1s-1.29,1.15-1.89-.46c-.07-.18-.07-.4-.52-.45Z" transform="translate(-1.6 -1.85)" style="fill:#f6f6f5"/><path d="M11.68,16.35c-1.63-.55-1.94-1.56-.84-2.9.24-.3.39-.4.11-.84-.64-1-.21-1.94.72-2.73a14.36,14.36,0,0,1,5.92-3.12c2.53-.59,5.12-1.1,7.8-.37a36.38,36.38,0,0,1,3.92,1c2.84,1.11,4.07,2.89,4,6.07,0,1.22-1,1.69-1.8,2.34-1.06.18-2.12.45-3-.46-.34-.34-.66,0-1,.14a17,17,0,0,1-5.35,1.58,3.17,3.17,0,0,1-2.7-.62,1,1,0,0,0-1.29-.12,7.16,7.16,0,0,1-2,.72,1.65,1.65,0,0,1-2-.84c-.4-.43-.69.09-1,.13S12.16,16.81,11.68,16.35Z" transform="translate(-1.6 -1.85)" style="fill:#bf944a"/><path d="M23,37.74c-1.69-.46-2.93-1.3-2.81-3.3-1.38-.65-2.95-.91-4.1-2A10.52,10.52,0,0,1,13.73,29c-.16-.38-.3-.75-.77-.81a2.94,2.94,0,0,1-2.65-2.65,3.37,3.37,0,0,1,1.61-3.67.75.75,0,0,1,.5.61c.12.46.11.94.85.88.37,0,.46.5.63.8a4,4,0,0,0,4.35,2c1.39-.21,2.31-1.18,2.65-3,.17-.88.47-1.36,1.45-1.35A1.49,1.49,0,0,1,24,23.23a3.28,3.28,0,0,0,3.07,3,3.79,3.79,0,0,0,4.06-2.49c.1-.26.17-.53.27-.79s.11-.72.46-.78.29.56.6.71c.36-.34,0-1.09.74-1.21,2.77,1.85,2.1,5.44.17,6.08-1.39.46-1.81,1.46-2.36,2.51a6.43,6.43,0,0,1-4,3.48c-1.53.39-1.91,1.15-1.71,2.51l-.47.47A3.14,3.14,0,0,1,23,37.74Z" transform="translate(-1.6 -1.85)" style="fill:#fdcc9b"/><path d="M33.24,21.67c-.36.47-.15,1.09-.43,1.59-.13.23-.17.6-.52.53s-.17-.46-.2-.7.14-.62-.07-.93c-.34.3-.25.74-.35,1.1a4.16,4.16,0,0,1-4.48,3.3c-2-.1-3.19-1.28-3.5-3.55-.12-.84-.47-1-1.24-1s-1.1.1-1.2,1C21,25.14,19.82,26.33,18,26.54c-2.19.26-3.84-.79-4.74-3.06-.45.76-.73.7-1-.13-.13-.5,0-1.06-.37-1.49a46.08,46.08,0,0,1-.24-5.51,5.76,5.76,0,0,0,2.19-.63c.21-.1.44-.25.44.17a11.7,11.7,0,0,0-1,3.32c-.16,1.36,0,1.57,1.32,1.59,4.06.07,8.13,0,12.19,0h3.83c1,0,1.34-.45,1.26-1.39s-.22-1.66-.35-2.49a2.18,2.18,0,0,1,0-1.29c.43-.85,1.46-1.22,1.76-2.18a17,17,0,0,1,.17,5.27C33.4,19.71,33.3,20.69,33.24,21.67Z" transform="translate(-1.6 -1.85)" style="fill:#392011"/><path d="M23,37.74c.61-.37,1.07-1,1.88-1,.56.28.66.92.84,1.38s-.26,1-.61,1.3-.59-.36-.93-.52A3.22,3.22,0,0,1,23,37.74Z" transform="translate(-1.6 -1.85)" style="fill:#faf8f7"/><path d="M31.57,15.65a12.45,12.45,0,0,1,.74,4.8c0,.58-.21.73-.77.73q-8.89,0-17.79,0c-.59,0-.9-.13-.82-.8.21-1.58-.08-3.3,1.38-4.5.25,1,1,1,1.79.88a7.31,7.31,0,0,0,2.54-1c.4-.28.57-.33.84.23.42.9,1.4.9,2.21.82a13.82,13.82,0,0,0,6.79-2.28C28.93,16.47,30.47,15.42,31.57,15.65Z" transform="translate(-1.6 -1.85)" style="fill:#fdcc9b"/><path d="M22.47,31.23A4.08,4.08,0,0,1,20,30.56c-.27-.17-.55-.46-.35-.79s.54-.09.8.07a3.94,3.94,0,0,0,4.07,0c.3-.15.67-.5.91,0s-.25.6-.54.76A4.26,4.26,0,0,1,22.47,31.23Z" transform="translate(-1.6 -1.85)" style="fill:#c18a64"/><path d="M22.48,25.43c0,.63,0,1.27,0,1.91,0,.24-.06.5-.38.49s-.33-.21-.33-.42c0-1.32,0-2.63,0-3.94,0-.25.13-.51.41-.5s.29.32.3.55v1.91Z" transform="translate(-1.6 -1.85)" style="fill:#cf9b74"/><path d="M17.46,25.72a3.32,3.32,0,0,1-3.47-3c-.08-.52,0-.73.55-.73,1.8,0,3.59,0,5.39,0,.27,0,.54,0,.6.4A3.13,3.13,0,0,1,17.46,25.72Z" transform="translate(-1.6 -1.85)" style="fill:#f9cc9a"/><path d="M27.64,22c.84,0,1.67,0,2.5,0,.63,0,.84.17.76.82a3.37,3.37,0,0,1-3.75,2.88,3.06,3.06,0,0,1-2.73-3.08c0-.49.15-.62.6-.61C25.9,22.05,26.77,22,27.64,22Z" transform="translate(-1.6 -1.85)" style="fill:#faca9b"/><path d="M27.94,19.66a2.86,2.86,0,0,1,1.79.51.48.48,0,0,1,.21.61c-.14.26-.4.21-.62.08a3,3,0,0,0-3.15,0c-.26.13-.57.16-.71-.17s.14-.42.33-.55A3.61,3.61,0,0,1,27.94,19.66Z" transform="translate(-1.6 -1.85)" style="fill:#472815"/><path d="M19.42,20.48c0,.47-.32.54-.59.38a3.17,3.17,0,0,0-3.18,0c-.23.11-.48.13-.6-.16s0-.37.17-.53c.65-.67,3.3-.7,4,0A1.78,1.78,0,0,1,19.42,20.48Z" transform="translate(-1.6 -1.85)" style="fill:#442714"/><path d="M17.16,24.57a4.71,4.71,0,0,1-.92-.2c-.43-.18-1.06-.42-.81-1,.32-.7.71,0,1,.17a1.34,1.34,0,0,0,1.73-.3c.2-.25.41-.57.76-.2s0,.63-.18.83A2,2,0,0,1,17.16,24.57Z" transform="translate(-1.6 -1.85)" style="fill:#be8a69"/><path d="M27.58,24.74a2.48,2.48,0,0,1-1.85-.95.5.5,0,0,1,.05-.74c.26-.21.42,0,.58.2a1.57,1.57,0,0,0,2.4.13c.22-.18.44-.41.7-.1s0,.53-.19.72A3.05,3.05,0,0,1,27.58,24.74Z" transform="translate(-1.6 -1.85)" style="fill:#be8c63"/></svg>