<svg viewBox="0 0 42.07 42.14" xmlns="http://www.w3.org/2000/svg"><g transform="translate(-1.64 -1.61)"><path d="m12.85 41.24a19.7 19.7 0 0 1 -9.75-10.87 21 21 0 0 1 13.9-27.94c12.35-3.65 25.56 5.34 26.62 18.18.69 8.3-2.51 14.83-9.29 19.63a6.64 6.64 0 0 1 -1.76 1 .93.93 0 0 1 -.57-.34 8.43 8.43 0 0 0 -3.62-2.26c-2.23-.85-2.45-1.32-1.92-3.8.52-.67 1.37-.79 2-1.21a8.24 8.24 0 0 0 3.28-3.86c.21-.5.35-1.09 1-1.27a3.07 3.07 0 0 0 1.88-4.07 9.15 9.15 0 0 1 -.6-1.56 35.38 35.38 0 0 0 .13-5.25 4 4 0 0 0 -1.59-3.43 2.49 2.49 0 0 1 -.81-1 9.35 9.35 0 0 0 -8.19-4.72c-2.82-.11-5.46.26-7.72 2.16a21.75 21.75 0 0 0 -2.84 3.53 3.25 3.25 0 0 0 -1.66 3c0 1.92-.46 3.86.12 5.76a2.8 2.8 0 0 1 -.35.88c-1 2.13-.51 3.73 1.61 4.78a2.06 2.06 0 0 1 1 1.17 8.08 8.08 0 0 0 4.6 4.57 1.4 1.4 0 0 1 .76.55 5.23 5.23 0 0 1 .1 2.13 1.29 1.29 0 0 1 -1 1.29 10.88 10.88 0 0 0 -5 2.87.54.54 0 0 1 -.33.08z" fill="#c7566c"/><path d="m26.53 34.82c-.4 2.2.47 3.4 2.69 3.89a5.4 5.4 0 0 1 3.35 2.52 18.72 18.72 0 0 1 -9.68 2.52 18.87 18.87 0 0 1 -10-2.51 6.8 6.8 0 0 1 4.42-3c1.31-.37 1.78-1 1.6-2.22a6.89 6.89 0 0 1 0-1.2 1.07 1.07 0 0 1 1.09-.31 23.35 23.35 0 0 0 5.35 0 1.18 1.18 0 0 1 1.18.31z" fill="#3d3240"/><path d="m12.66 28.74c-2.51-.74-3.14-3.35-1.4-5.74 1.52-.28 1.55-.28 1.52-2a43.47 43.47 0 0 0 -.15-5.93 1.4 1.4 0 0 1 .26-1.07c3.38-7.61 14.14-7.21 18-2.58.67.81 1.11 1.74 1.69 2.59a1.12 1.12 0 0 1 .29 1.1 43.51 43.51 0 0 0 -.2 5.89c0 1.73 0 1.73 1.52 2.05 1.68 2.36 1.06 4.88-1.4 5.69a.63.63 0 0 0 -.92.18 4.27 4.27 0 0 1 -5 1.19 10.25 10.25 0 0 0 -7.88 0 4.43 4.43 0 0 1 -5.41-1.27c-.34-.47-.58-.52-.92-.1z" fill="#fdcd9b"/><path d="m12.66 28.74.27-.9c.21.13.48.2.59.38 1.44 2.16 3.75 2.28 6.23 1.26a9.2 9.2 0 0 1 7 .22 4.06 4.06 0 0 0 5-1.15c.52-.58.83-.47 1.09.19-.45.08-.51.47-.64.79a8.51 8.51 0 0 1 -5.62 5.29c-.89-.27-1.71.18-2.57.23a47.36 47.36 0 0 1 -5.06-.23 8.37 8.37 0 0 1 -5.45-4.93 1.85 1.85 0 0 0 -.84-1.15z" fill="#d7bda7"/><path d="m12.89 14a56.86 56.86 0 0 1 .25 7.72c0 2 0 2-1.88 1.35-.8-2.36-.3-4.75 0-7.11a2.25 2.25 0 0 1 1.63-1.96z" fill="#b7aca0"/><path d="m34.19 23.05a7.3 7.3 0 0 0 -.79.26c-.72.34-1.1.08-1.08-.67.08-2.54-.26-5.08.2-7.6a6.37 6.37 0 0 0 0-1.07 2.76 2.76 0 0 1 1.85 2.84 19 19 0 0 1 -.18 6.24z" fill="#b6aca0"/><path d="m18.58 23.92c-.1.75-.38 1.41-1.19 1.41a1.17 1.17 0 0 1 -1.18-1.33c0-.79.26-1.44 1.2-1.43s1.03.7 1.17 1.35z" fill="#422515"/><path d="m29.36 24c-.14.73-.42 1.39-1.25 1.35s-1.17-.72-1.13-1.52.42-1.32 1.26-1.26 1.01.73 1.12 1.43z" fill="#412715"/><path d="m22.48 25.75v2.38c0 .24 0 .51-.31.55s-.4-.2-.4-.45c0-1.36 0-2.71 0-4.06 0-.3.13-.6.47-.56s.39.36.33.72a14.23 14.23 0 0 0 -.09 1.42z" fill="#cf9b75"/><path d="m30.23 20.61c0 .45-.28.61-.57.42a2.61 2.61 0 0 0 -2.91 0c-.23.12-.48.16-.62-.09s0-.43.18-.62a3.37 3.37 0 0 1 3.59-.08 2.21 2.21 0 0 1 .33.37z" fill="#4c2e19"/><path d="m17.25 21.4c-.47 0-.95 0-1.43 0-.24 0-.51-.07-.49-.39a.39.39 0 0 1 .4-.36h3.22a.37.37 0 0 1 .4.46c0 .27-.24.29-.43.3-.56 0-1.11-.01-1.67-.01z" fill="#462212"/><path d="m22.92 31.89a4.82 4.82 0 0 1 -2.76-.82c-.24-.16-.43-.4-.2-.69s.42-.1.64 0a3.71 3.71 0 0 0 4.4-.18c.2-.16.42-.31.63-.11s.1.51-.09.73a4 4 0 0 1 -2.62 1.07z" fill="#9f8672"/></g></svg>