<svg viewBox="0 0 316.97 295.68" xmlns="http://www.w3.org/2000/svg"><g transform="translate(-1.6 -1.85)"><path d="m301.45 293.48c-.09-.35 0-.77-.37-1 .12-1-.7-1.52-1.13-2.25-.19-1.88-.12-2.09 1.57-2.67a7.94 7.94 0 0 0 4.67-4.53 2 2 0 0 1 1.21-1.21 3.11 3.11 0 0 0 1.3-5.14c-.33-.39-.8-.68-.9-1.24-.18-2.19.35-4.36.16-6.55a4 4 0 0 0 -.08-1.19 1.24 1.24 0 0 1 -.08-.46c.34-2.09-.79-3.44-2.25-4.68a8.21 8.21 0 0 0 -3.94-1.56 18 18 0 0 0 -4.23-.62 17.46 17.46 0 0 0 -11 4 1.74 1.74 0 0 0 -.44 1.86 1.73 1.73 0 0 1 -.06 1.37c-.77 1.31-.71 1.44.51 2.44a.68.68 0 0 1 .21.29 41.75 41.75 0 0 1 .35 5.37 4.27 4.27 0 0 1 -.91 1.24 3 3 0 0 0 1.4 4.86 2.27 2.27 0 0 1 1.44 1.3 7.85 7.85 0 0 0 5.16 4.65 1.46 1.46 0 0 1 1 .64c.34 1.68.1 2.23-1.35 3.18-1.66.73-3.37 1.32-5 2.22-.66.38-1 1-1.51 1.45a21 21 0 1 1 30.82-23.1c2.14 9.14-2.33 19.11-10.36 23.14-1.26-1.86-3.37-2.38-5.22-3.32-.35-.18-.5 0-.53.37s.06.89-.32 1.23h-.08z" fill="#2f7e9e"/><path d="m287.22 295.24c.15-1 .89-1.39 1.63-1.86 1.34-.85 2.89-1.21 4.26-2 .18-.1.29 0 .39.14.4 1-.19 2.11.17 3.15a14.91 14.91 0 0 0 0 1.89c.1.83-.19 1.06-1 .83a22 22 0 0 1 -5.45-2.15z" fill="#5f4027"/><path d="m301.45 293.48c.29-.67-.26-1.68.33-2s1.24.46 1.88.72a14.63 14.63 0 0 1 3.28 1.76 1.55 1.55 0 0 1 .73 1.34 21.32 21.32 0 0 1 -5.37 2.15c-.66.19-1 .09-.95-.76.1-1.07.07-2.15.1-3.21z" fill="#5d3f26"/><path d="m293.67 294.71a18.43 18.43 0 0 1 -.17-3.15 2.94 2.94 0 0 0 1.47-3.1c.2-.07.35.06.34.2-.12 1.73 1.17 2.27 2.4 2.86.49.27.82.74 1.28 1.05.25.17.5.51.82.28a.8.8 0 0 0 .2-1.07 4.42 4.42 0 0 1 -.41-1c0-.34.15-.55.51-.53.5.66 1.84.94 1 2.2a7.27 7.27 0 0 0 -.43.83c-.54 1.51-.6 1.52-1.8.34-1.37-1.35-1.37-1.35-2.77-.1s-1.29 1.16-1.9-.46c-.06-.18-.06-.4-.51-.45z" fill="#f6f6f5"/><path d="m286.49 270.37c-1.64-.55-1.94-1.57-.84-2.91.24-.3.39-.39.11-.84-.64-1-.22-1.94.72-2.73a14.36 14.36 0 0 1 5.91-3.11c2.54-.6 5.13-1.11 7.81-.38a36.44 36.44 0 0 1 3.92 1c2.84 1.11 4.07 2.89 4 6.07 0 1.22-1 1.69-1.81 2.34-1.05.18-2.11.44-3-.46-.34-.35-.66 0-1 .13a17.27 17.27 0 0 1 -5.36 1.59 3.16 3.16 0 0 1 -2.69-.63 1 1 0 0 0 -1.29-.11 7.61 7.61 0 0 1 -2 .72 1.66 1.66 0 0 1 -2-.84c-.4-.43-.7.09-1 .13s-.97.48-1.48.03z" fill="#bf944a"/><path d="m297.78 291.75c-1.69-.45-2.93-1.29-2.81-3.3-1.38-.65-3-.91-4.1-2.05a10.17 10.17 0 0 1 -2.33-3.4c-.16-.38-.3-.75-.77-.81a2.93 2.93 0 0 1 -2.65-2.64 3.4 3.4 0 0 1 1.61-3.68.75.75 0 0 1 .5.62c.12.45.11.94.85.88.37 0 .46.49.63.8a4 4 0 0 0 4.35 2c1.39-.22 2.31-1.18 2.65-3 .17-.88.47-1.37 1.45-1.35a1.49 1.49 0 0 1 1.69 1.42 3.25 3.25 0 0 0 3.07 3 3.78 3.78 0 0 0 4.06-2.48c.1-.26.17-.54.27-.8s.11-.71.46-.77.29.55.59.71c.37-.34.05-1.1.75-1.21 2.77 1.85 2.1 5.44.17 6.08-1.39.46-1.81 1.46-2.36 2.5a6.44 6.44 0 0 1 -4 3.49 1.93 1.93 0 0 0 -1.72 2.51l-.46.47a3.1 3.1 0 0 1 -1.9 1.01z" fill="#fdcc9b"/><path d="m308.05 275.69c-.36.47-.15 1.09-.43 1.58-.14.24-.17.61-.52.54s-.17-.46-.2-.71.14-.62-.08-.93c-.33.31-.24.74-.34 1.11a4.15 4.15 0 0 1 -4.49 3.29c-2-.1-3.19-1.27-3.49-3.54-.12-.85-.47-1-1.24-1s-1.1.1-1.2 1c-.26 2.15-1.43 3.33-3.26 3.55-2.19.25-3.84-.8-4.74-3.06-.46.75-.73.69-1-.14-.13-.49 0-1.05-.37-1.49a45.91 45.91 0 0 1 -.24-5.5 5.76 5.76 0 0 0 2.19-.63c.21-.1.44-.26.44.17a11.24 11.24 0 0 0 -1 3.31c-.17 1.37 0 1.57 1.32 1.6 4.06.06 8.13 0 12.19 0h3.83c1 0 1.34-.45 1.26-1.4s-.22-1.65-.35-2.48a2.18 2.18 0 0 1 0-1.29c.43-.85 1.46-1.23 1.75-2.18a16.59 16.59 0 0 1 .18 5.26c-.05.98-.15 1.96-.21 2.94z" fill="#392011"/><path d="m297.78 291.75c.61-.37 1.07-1 1.87-1 .57.27.67.91.85 1.38.12.32-.26 1-.61 1.3s-.59-.36-.94-.53a3.12 3.12 0 0 1 -1.17-1.15z" fill="#faf8f7"/><path d="m306.38 269.67a12.42 12.42 0 0 1 .74 4.79c0 .59-.22.74-.77.74q-8.89 0-17.79 0c-.6 0-.9-.13-.82-.79.2-1.58-.09-3.31 1.38-4.5.25 1 1 1 1.79.87a7.13 7.13 0 0 0 2.54-1c.4-.27.57-.33.84.24.42.89 1.4.89 2.2.82a13.93 13.93 0 0 0 6.8-2.28c.45 1.93 1.99.87 3.09 1.11z" fill="#fdcc9b"/><path d="m297.28 285.25a4.15 4.15 0 0 1 -2.45-.67c-.27-.18-.55-.47-.35-.8s.54-.08.8.08a4 4 0 0 0 4.07 0c.3-.15.67-.51.91 0s-.25.6-.54.76a4.26 4.26 0 0 1 -2.44.63z" fill="#c18a64"/><path d="m297.29 279.44v1.91c0 .25-.06.51-.38.49s-.33-.21-.33-.42c0-1.31 0-2.62 0-3.94 0-.25.13-.5.41-.49s.29.31.29.54v1.91z" fill="#cf9b74"/><path d="m292.27 279.74a3.32 3.32 0 0 1 -3.47-3c-.09-.53 0-.74.55-.73h5.39c.27 0 .54 0 .59.41a3.12 3.12 0 0 1 -3.06 3.32z" fill="#f9cc9a"/><path d="m302.45 276.05h2.5c.63 0 .84.17.76.82a3.36 3.36 0 0 1 -3.75 2.87 3.05 3.05 0 0 1 -2.73-3.08c0-.49.15-.62.6-.61.87.01 1.75 0 2.62 0z" fill="#faca9b"/><path d="m302.75 273.67a2.93 2.93 0 0 1 1.79.51c.21.17.33.39.21.62s-.4.21-.62.08a3 3 0 0 0 -3.15 0c-.26.13-.57.16-.71-.17s.14-.42.33-.55a3.62 3.62 0 0 1 2.15-.49z" fill="#472815"/><path d="m294.23 274.49c0 .48-.32.55-.59.39a3.21 3.21 0 0 0 -3.19 0c-.22.11-.47.14-.59-.15a.46.46 0 0 1 .17-.53c.65-.67 3.3-.71 4 0a1.9 1.9 0 0 1 .2.29z" fill="#442714"/><path d="m292 278.58a4.71 4.71 0 0 1 -.92-.2c-.43-.17-1.06-.41-.81-1s.71 0 1 .17a1.35 1.35 0 0 0 1.73-.29c.2-.25.41-.58.75-.21s0 .63-.17.83a1.92 1.92 0 0 1 -1.58.7z" fill="#be8a69"/><path d="m302.39 278.76a2.48 2.48 0 0 1 -1.85-1 .49.49 0 0 1 0-.74c.26-.21.42 0 .58.21a1.58 1.58 0 0 0 2.4.12c.22-.18.44-.41.7-.09s0 .53-.19.72a3.23 3.23 0 0 1 -1.64.78z" fill="#be8c63"/><path d="m26.64 39.46c-.09-.35 0-.77-.37-1 .13-1-.7-1.52-1.13-2.24-.19-1.88-.12-2.1 1.57-2.67a8 8 0 0 0 4.67-4.55 2.07 2.07 0 0 1 1.22-1.22 3.1 3.1 0 0 0 1.29-5.13c-.33-.39-.79-.69-.9-1.25-.18-2.19.35-4.36.16-6.55a3.9 3.9 0 0 0 -.08-1.18 1.1 1.1 0 0 1 -.07-.47c.33-2.08-.8-3.44-2.25-4.68a8.39 8.39 0 0 0 -3.95-1.52 18.53 18.53 0 0 0 -4.23-.61 17.4 17.4 0 0 0 -11 4 1.73 1.73 0 0 0 -.44 1.86 1.7 1.7 0 0 1 -.06 1.36c-.77 1.32-.71 1.44.52 2.44a.84.84 0 0 1 .2.29 40.24 40.24 0 0 1 .35 5.37c-.15.52-.6.83-.91 1.24a3 3 0 0 0 1.4 4.86 2.27 2.27 0 0 1 1.44 1.3 7.85 7.85 0 0 0 5.16 4.65 1.53 1.53 0 0 1 1 .64c.34 1.68.11 2.23-1.35 3.18a53.68 53.68 0 0 0 -5 2.23c-.67.37-1 1-1.52 1.45a21 21 0 1 1 30.81-23.1c2.14 9.14-2.33 19.12-10.36 23.15-1.26-1.86-3.37-2.39-5.22-3.32-.35-.18-.5 0-.53.37s.06.88-.31 1.22c0 0-.07 0-.09 0a.31.31 0 0 1 -.02-.12z" fill="#2f7e9e"/><path d="m12.41 41.23c.15-1 .89-1.4 1.63-1.87 1.34-.85 2.89-1.21 4.26-2 .18-.09.29 0 .39.14.4 1-.19 2.12.17 3.15a14.9 14.9 0 0 0 0 1.89c.09.84-.2 1.06-1 .84a22.35 22.35 0 0 1 -5.45-2.15z" fill="#5f4027"/><path d="m26.64 39.46c.29-.67-.26-1.68.33-2s1.24.46 1.88.72a14.63 14.63 0 0 1 3.28 1.76 1.57 1.57 0 0 1 .73 1.35 21.7 21.7 0 0 1 -5.37 2.15c-.66.19-1 .09-.95-.76.11-1.08.07-2.15.1-3.22z" fill="#5d3f26"/><path d="m18.86 40.69a18.43 18.43 0 0 1 -.17-3.15 2.93 2.93 0 0 0 1.47-3.1.24.24 0 0 1 .34.21c-.11 1.73 1.18 2.26 2.4 2.85.49.28.82.75 1.28 1.06.25.16.5.51.82.27a.79.79 0 0 0 .2-1.07 4.23 4.23 0 0 1 -.41-1c0-.33.15-.54.52-.53.49.66 1.83 1 1 2.2-.14.28-.32.55-.43.84-.54 1.5-.6 1.52-1.8.34-1.37-1.36-1.37-1.36-2.77-.1s-1.29 1.15-1.89-.46c-.07-.18-.07-.4-.52-.45z" fill="#f6f6f5"/><path d="m11.68 16.35c-1.63-.55-1.94-1.56-.84-2.9.24-.3.39-.4.11-.84-.64-1-.21-1.94.72-2.73a14.36 14.36 0 0 1 5.92-3.12c2.53-.59 5.12-1.1 7.8-.37a36.38 36.38 0 0 1 3.92 1c2.84 1.11 4.07 2.89 4 6.07 0 1.22-1 1.69-1.8 2.34-1.06.18-2.12.45-3-.46-.34-.34-.66 0-1 .14a17 17 0 0 1 -5.35 1.58 3.17 3.17 0 0 1 -2.7-.62 1 1 0 0 0 -1.29-.12 7.16 7.16 0 0 1 -2 .72 1.65 1.65 0 0 1 -2-.84c-.4-.43-.69.09-1 .13s-1.01.48-1.49.02z" fill="#bf944a"/><path d="m23 37.74c-1.69-.46-2.93-1.3-2.81-3.3-1.38-.65-2.95-.91-4.1-2a10.52 10.52 0 0 1 -2.36-3.44c-.16-.38-.3-.75-.77-.81a2.94 2.94 0 0 1 -2.65-2.65 3.37 3.37 0 0 1 1.61-3.67.75.75 0 0 1 .5.61c.12.46.11.94.85.88.37 0 .46.5.63.8a4 4 0 0 0 4.35 2c1.39-.21 2.31-1.18 2.65-3 .17-.88.47-1.36 1.45-1.35a1.49 1.49 0 0 1 1.65 1.42 3.28 3.28 0 0 0 3.07 3 3.79 3.79 0 0 0 4.06-2.49c.1-.26.17-.53.27-.79s.11-.72.46-.78.29.56.6.71c.36-.34 0-1.09.74-1.21 2.77 1.85 2.1 5.44.17 6.08-1.39.46-1.81 1.46-2.36 2.51a6.43 6.43 0 0 1 -4 3.48c-1.53.39-1.91 1.15-1.71 2.51l-.47.47a3.14 3.14 0 0 1 -1.83 1.02z" fill="#fdcc9b"/><path d="m33.24 21.67c-.36.47-.15 1.09-.43 1.59-.13.23-.17.6-.52.53s-.17-.46-.2-.7.14-.62-.07-.93c-.34.3-.25.74-.35 1.1a4.16 4.16 0 0 1 -4.48 3.3c-2-.1-3.19-1.28-3.5-3.55-.12-.84-.47-1-1.24-1s-1.1.1-1.2 1c-.25 2.13-1.43 3.32-3.25 3.53-2.19.26-3.84-.79-4.74-3.06-.45.76-.73.7-1-.13-.13-.5 0-1.06-.37-1.49a46.08 46.08 0 0 1 -.24-5.51 5.76 5.76 0 0 0 2.19-.63c.21-.1.44-.25.44.17a11.7 11.7 0 0 0 -1 3.32c-.16 1.36 0 1.57 1.32 1.59 4.06.07 8.13 0 12.19 0h3.83c1 0 1.34-.45 1.26-1.39s-.22-1.66-.35-2.49a2.18 2.18 0 0 1 0-1.29c.43-.85 1.46-1.22 1.76-2.18a17 17 0 0 1 .17 5.27c-.06.99-.16 1.97-.22 2.95z" fill="#392011"/><path d="m23 37.74c.61-.37 1.07-1 1.88-1 .56.28.66.92.84 1.38s-.26 1-.61 1.3-.59-.36-.93-.52a3.22 3.22 0 0 1 -1.18-1.16z" fill="#faf8f7"/><path d="m31.57 15.65a12.45 12.45 0 0 1 .74 4.8c0 .58-.21.73-.77.73q-8.89 0-17.79 0c-.59 0-.9-.13-.82-.8.21-1.58-.08-3.3 1.38-4.5.25 1 1 1 1.79.88a7.31 7.31 0 0 0 2.54-1c.4-.28.57-.33.84.23.42.9 1.4.9 2.21.82a13.82 13.82 0 0 0 6.79-2.28c.45 1.94 1.99.89 3.09 1.12z" fill="#fdcc9b"/><path d="m22.47 31.23a4.08 4.08 0 0 1 -2.47-.67c-.27-.17-.55-.46-.35-.79s.54-.09.8.07a3.94 3.94 0 0 0 4.07 0c.3-.15.67-.5.91 0s-.25.6-.54.76a4.26 4.26 0 0 1 -2.42.63z" fill="#c18a64"/><path d="m22.48 25.43v1.91c0 .24-.06.5-.38.49s-.33-.21-.33-.42c0-1.32 0-2.63 0-3.94 0-.25.13-.51.41-.5s.29.32.3.55z" fill="#cf9b74"/><path d="m17.46 25.72a3.32 3.32 0 0 1 -3.47-3c-.08-.52 0-.73.55-.73h5.39c.27 0 .54 0 .6.4a3.13 3.13 0 0 1 -3.07 3.33z" fill="#f9cc9a"/><path d="m27.64 22h2.5c.63 0 .84.17.76.82a3.37 3.37 0 0 1 -3.75 2.88 3.06 3.06 0 0 1 -2.73-3.08c0-.49.15-.62.6-.61.88.04 1.75-.01 2.62-.01z" fill="#faca9b"/><path d="m27.94 19.66a2.86 2.86 0 0 1 1.79.51.48.48 0 0 1 .21.61c-.14.26-.4.21-.62.08a3 3 0 0 0 -3.15 0c-.26.13-.57.16-.71-.17s.14-.42.33-.55a3.61 3.61 0 0 1 2.15-.48z" fill="#472815"/><path d="m19.42 20.48c0 .47-.32.54-.59.38a3.17 3.17 0 0 0 -3.18 0c-.23.11-.48.13-.6-.16s0-.37.17-.53c.65-.67 3.3-.7 4 0a1.78 1.78 0 0 1 .2.31z" fill="#442714"/><path d="m17.16 24.57a4.71 4.71 0 0 1 -.92-.2c-.43-.18-1.06-.42-.81-1 .32-.7.71 0 1 .17a1.34 1.34 0 0 0 1.73-.3c.2-.25.41-.57.76-.2s0 .63-.18.83a2 2 0 0 1 -1.58.7z" fill="#be8a69"/><path d="m27.58 24.74a2.48 2.48 0 0 1 -1.85-.95.5.5 0 0 1 .05-.74c.26-.21.42 0 .58.2a1.57 1.57 0 0 0 2.4.13c.22-.18.44-.41.7-.1s0 .53-.19.72a3.05 3.05 0 0 1 -1.69.74z" fill="#be8c63"/></g></svg>