<svg viewBox="0 0 42.16 42.13" xmlns="http://www.w3.org/2000/svg"><g transform="translate(-1.6 -1.61)"><path d="m13 41.26a20 20 0 0 1 -10.25-11.79 21.06 21.06 0 1 1 30.25 11.53 4.61 4.61 0 0 1 -.56.2c-1-.46-1.36-1.41-1.92-2.22a13 13 0 0 0 -4-2.62c-.47-.23-1.05-.23-1.41-.69-.41-1.67-.25-2 1.31-2.42a7.71 7.71 0 0 0 4.96-4.25 4 4 0 0 1 1.84-1.92 3.08 3.08 0 0 0 1-4.45c-.28-.45-.71-.76-1-1.19-.13-1.47.17-2.93.14-4.4 0-3-.29-6-2.8-8.21a9.35 9.35 0 0 0 -5.2-2.21 18.31 18.31 0 0 0 -7.36.38 8.4 8.4 0 0 0 -5.93 7.2 21.67 21.67 0 0 0 0 5.69 2.24 2.24 0 0 1 -.46 2c-1.92 1.88-1.28 5 1.13 5.58.53.13.72.58.91 1a8.12 8.12 0 0 0 5.4 4.84c1.22.36 1.34.71 1 2.32-.31.54-.93.48-1.4.7a11.83 11.83 0 0 0 -3.77 2.67c-.64.76-.99 1.75-1.88 2.26z" fill="#6cb06d"/><path d="m14.69 38.85a9.56 9.56 0 0 1 3.92-2.65c.86-.25.76.51.89.9.53 1.71 1 3.43 1.74 5.2a4.6 4.6 0 0 0 .12-3 1.2 1.2 0 0 1 .53-1.45 1.34 1.34 0 0 1 1.57 0 1.08 1.08 0 0 1 .43 1.46c-.38 1.05.09 2 .15 3.2.68-1.91 1.37-3.64 1.82-5.46.1-.4.17-.9.78-.89a11.48 11.48 0 0 1 4.16 2.69 4.16 4.16 0 0 1 -.47 3.35 19.94 19.94 0 0 1 -15.39 0 4.57 4.57 0 0 1 -.25-3.35z" fill="#3d3340"/><path d="m14.69 38.85a21.77 21.77 0 0 1 .25 3.33 5.2 5.2 0 0 1 -2-.92 12.92 12.92 0 0 1 1.75-2.41z" fill="#836b62"/><path d="m30.33 42.22c.16-1.12.32-2.23.47-3.35l1.65 2.35a5.91 5.91 0 0 1 -2.12 1z" fill="#816c60"/><path d="m20 35.64c.23-1.26-.23-1.85-1.54-2.2-2.54-.68-4.09-2.59-5.12-4.91a1.26 1.26 0 0 0 -.86-.82 3.47 3.47 0 0 1 -1.06-6c.58.26.58.26.82 1.2a20.24 20.24 0 0 1 .67-6.4c.37-1.33.58-1.44 1.68-.7a2.27 2.27 0 0 0 2.49-.07c1.16-.6 1.18-.6 1.55.56a1 1 0 0 0 1.17.78 2.11 2.11 0 0 0 1.33-.49c.73-.69 1.35-1 2.19 0 .51.58 1.35.38 2 .09a8.68 8.68 0 0 0 3.5-2.62c.83-1.05 1.11-1 1.86 0a13.53 13.53 0 0 1 2 5.83c.13.86.28 1.71.44 2.55a.86.86 0 0 1 .26-1 2.78 2.78 0 0 1 1.67 2.76 2.89 2.89 0 0 1 -1.51 3 3.67 3.67 0 0 0 -2 2 7.7 7.7 0 0 1 -5.54 4.53c-1.31.29-.49 1.28-.68 1.94-1.78 2.11-3.4 2.23-5.32-.03z" fill="#fdcd9b"/><path d="m33.44 21.53c-.14.66.19 1.4-.37 2.12-.5-2-.52-4-1.11-5.92a13 13 0 0 0 -1.4-3.39c-.51-.77-.82-1.06-1.44-.12a7.49 7.49 0 0 1 -3.65 2.78c-1 .39-2.11.66-2.81-.6-.21-.36-.41-.3-.66-.07a3.51 3.51 0 0 0 -.34.33 2.61 2.61 0 0 1 -2.62.76c-1-.23-.7-1.18-.77-2a4.27 4.27 0 0 1 -2.8 1.1 1.55 1.55 0 0 1 -1.26-.52c-.12-.18-.15-.54-.44-.47s-.41.42-.5.75a24.59 24.59 0 0 0 -.73 6.83 6.8 6.8 0 0 1 -.09.83c-.79-.63-.25-1.72-1-2.18a2.32 2.32 0 0 0 .28-2.26 15.39 15.39 0 0 1 .18-6.38 8.08 8.08 0 0 1 4.58-5.92 14 14 0 0 1 5.89-1 13.88 13.88 0 0 1 6.74 1.32c3.09 1.57 4.33 4.29 4.55 7.64a51 51 0 0 1 -.23 6.37z" fill="#e8ae5d"/><path d="m20 35.64.1.07c1.73 1.6 3.45 1.57 5.17 0l1.35.51c-.63.42-.48 1.14-.66 1.72a36.68 36.68 0 0 1 -1.91 5.16 5.16 5.16 0 0 1 -.35-4 .73.73 0 0 0 -.4-1 1 1 0 0 0 -1.31 0c-.31.3-.69.53-.39 1.1.7 1.28 0 2.5-.22 3.77a24.52 24.52 0 0 1 -2.15-5.61c-.13-.43 0-1-.64-1.16z" fill="#86685d"/><path d="m22.52 31.17c-.94-.22-1.89-.15-2.65-.76-.22-.18-.65-.33-.39-.73s.48-.1.74 0a5.36 5.36 0 0 0 5-.1c.21-.11.47-.23.64 0s0 .53-.23.7c-.91.72-2.08.63-3.11.89z" fill="#be8a64"/><path d="m21.68 25.09c0-.63 0-1.27 0-1.9 0-.34.16-.65.56-.63s.33.37.36.63a33.74 33.74 0 0 1 -.24 3.9c0 .21-.1.4-.34.4s-.36-.26-.36-.5c0-.63 0-1.27 0-1.9z" fill="#d29e74"/><path d="m27.93 19.82a4.84 4.84 0 0 1 2.18.57c.29.15.57.4.37.75s-.48.1-.74 0a4.6 4.6 0 0 0 -2.88-.35c-.28.07-.7.2-.77-.26s.3-.45.56-.51c.42-.11.85-.14 1.28-.2z" fill="#ad7f4a"/><path d="m17.07 19.85a5 5 0 0 1 .69 0c.49.06 1.28 0 1.17.66s-.77.14-1.18.1a5.27 5.27 0 0 0 -2.45.39c-.26.1-.58.19-.7-.18s.19-.41.38-.53a3.47 3.47 0 0 1 2.09-.44z" fill="#ab7b47"/><path d="m16.79 23a1.46 1.46 0 0 1 .55 0c.51.2 1.52.07 1.37.8s-.93.1-1.38 0a5 5 0 0 0 -2 .21c-.26.05-.57.32-.72 0s.19-.59.5-.7a3.37 3.37 0 0 1 1.68-.31z" fill="#bf8a62"/><path d="m27.91 23a3.28 3.28 0 0 1 1.69.26c.23.07.45.23.39.51s-.29.32-.56.24a3.86 3.86 0 0 0 -3 .05.39.39 0 0 1 -.56-.27c-.08-.29.15-.44.37-.53a3 3 0 0 1 1.67-.26z" fill="#bf8a61"/></g></svg>