<svg viewBox="0 0 42.2 42.17" xmlns="http://www.w3.org/2000/svg"><g transform="translate(-1.58 -1.59)"><path d="m16 42.42a12.89 12.89 0 0 1 -5.75-2.73 19.82 19.82 0 0 1 -6.94-8.82 20.52 20.52 0 0 1 -1.48-11.15 21.56 21.56 0 0 1 4.66-10.52 19.57 19.57 0 0 1 8.12-6 21 21 0 0 1 11.54-1.28 21.82 21.82 0 0 1 10.76 5.24 20.51 20.51 0 0 1 5.83 9.12 20.23 20.23 0 0 1 .43 11.3 20.38 20.38 0 0 1 -7.35 11.51 18.31 18.31 0 0 1 -5.58 3.17c-.51-.21-.63-.66-.76-1.14a3.88 3.88 0 0 0 -2.17-2.69c-.91-.52-2.15-.59-2.52-1.84a1.3 1.3 0 0 1 1-1.72 9.42 9.42 0 0 0 5.21-4.33 1.79 1.79 0 0 1 .9-.92 2.4 2.4 0 0 0 2.2-1.62c.18-.55.69-.57 1.17-.66 1.2-.22 1.56-.59 1.61-1.83a1.32 1.32 0 0 1 .63-1.18 1.22 1.22 0 0 0 .38-1.69c0-.07-.12-.15-.1-.21.42-1.87-.93-3.23-1.39-4.85a1.59 1.59 0 0 0 -.49-.93c-.85-.62-.92-1.88-2-2.34a.31.31 0 0 1 -.11-.31 1.9 1.9 0 0 0 -1.89-2.16c-.41 0-.57-.35-.64-.75a3.73 3.73 0 0 0 -4.21-3.4 2.07 2.07 0 0 1 -2-.69 2.6 2.6 0 0 0 -3-.33 2.13 2.13 0 0 1 -2 .37c-.14-.06 0-.09-.11 0-1.18.8-2.54.17-3.77.52s-2.12.79-2.11 2.22c0 .63-.53.74-1 .89a4.62 4.62 0 0 0 -2.43 1.85 1 1 0 0 0 -.22.42 3.08 3.08 0 0 1 -1.53 2.8c-.52.31-.44 1.09-.32 1.68a1.52 1.52 0 0 1 -.57 1.66 2.16 2.16 0 0 0 -.62 2.7c.15.37.42.73.32 1.13-.24 1.09.45 1.73.89 2.6a9.22 9.22 0 0 0 2.41 2.92c.81.72 1.24 1.54 2.5 1.14.48-.15.85.37 1.27.58a2.07 2.07 0 0 1 .58.6 9.65 9.65 0 0 0 5.35 4.16 1.17 1.17 0 0 1 .9 1.63c-.37.92-1.22 1.24-2 1.64-1.73.46-2.36 1.85-2.87 3.35-.17.39-.11.93-.73.89z" fill="#fbcb4e"/><path d="m27.36 38.1a4.3 4.3 0 0 1 2.47 3.2 5 5 0 0 0 .41 1 19.19 19.19 0 0 1 -11.42 1.1c-1-.19-2.06-.16-2.85-.94.62-.9.65-2.07 1.31-3a3.24 3.24 0 0 1 2.17-1.46 5.79 5.79 0 0 0 6.7.58 5.29 5.29 0 0 1 1.21-.48z" fill="#3ba086"/><path d="m14.69 30.3a3.3 3.3 0 0 0 -2.14-.23c-.77.24-1.38-.34-1.51-1.16-.09-.58-.28-.87-.9-.75a.82.82 0 0 1 -.46-.08c-.38-.17-.86-.51-.8-.83.33-1.67-2.24-2.14-1.55-3.87a1.34 1.34 0 0 0 -.16-1.31 2.48 2.48 0 0 1 .83-3.43c.32-.2.44-.29.37-.7-.39-2.09-.33-2.21 1.44-3.18.21-.12.24-.18.22-.42a3.47 3.47 0 0 1 2.59-3.86c.71-.21 1.19-.27 1.14-1.31s1-1.5 1.95-1.84a5.08 5.08 0 0 1 1.29-.25c.82-.07 1.75.54 2.43-.41a.12.12 0 0 1 .11 0c1.19.64 2.09-.23 3.12-.51a2.34 2.34 0 0 1 2.93 1c.31.57.66.36 1.09.3a4.65 4.65 0 0 1 4.44 1.79c.55.66.22 1.57.44 2.24.15.45 1.43 0 2 .65a.6.6 0 0 0 .08.08c.54.59.11 1.57.51 2s1.26.49 1.16 1.39c0 .32.2.37.39.5s.65.4.68.64a7 7 0 0 0 1.62 3.25.58.58 0 0 1 .12.45 3.19 3.19 0 0 0 .27 2.71.81.81 0 0 1 -.1.79 5 5 0 0 0 -1.29 2.68c-.38 1.1-1.88.72-2.42 1.24s-.79 1.68-1.86 1.93a2.86 2.86 0 0 1 -.71 0c-.61-.27-.31-.74-.21-1.12a22 22 0 0 1 .58-2.19c.65-1.73-.6-3.06-.82-4.59 0-.2-.25-.3-.44-.38a2 2 0 0 1 -1.32-1.95.84.84 0 0 0 -.3-.63 2.63 2.63 0 0 1 -1-2.1c-1.07.81-2.05 1.28-3.24.79-.35-.15-.58.15-.81.37a3.46 3.46 0 0 1 -2.92 1.11 1.65 1.65 0 0 0 -1.22.37 3 3 0 0 1 -1.85.77 2 2 0 0 0 -1.89 1.19 3 3 0 0 1 -1.94 1.48c-.73.13-.87.6-.83 1.22a21.37 21.37 0 0 0 .78 4.95c.13.36.42.77.11 1.21z" fill="#331c10"/><path d="m14.69 30.3a19.78 19.78 0 0 1 -1.2-6.64c0-.64.06-1 .87-1 1.17-.05 1.79-1 2.31-1.87.34-.59.57-1 1.42-.81 1.15.21 1.92-1.11 2.83-1.21s2.07.17 2.89-.59 1.19-1.18 2.34-.71c.9.37 1.71-.6 2.63-1.21 0 1.09 0 2.17 1.25 2.58.26.09.12.31.09.51-.16 1 .18 1.71 1.28 1.88.24 0 .44.06.53.36.77 2.38 1.25 4.75.12 7.16a1 1 0 0 0 -.07 1c-.39.13-.48.5-.65.8a9 9 0 0 1 -5.33 4.56 1.21 1.21 0 0 0 -1 1.41 1.87 1.87 0 0 1 -3.48 0c.1-.84-.27-1.21-1.1-1.47a9.71 9.71 0 0 1 -5.73-4.75z" fill="#8e6035"/><path d="m21.44 36.55c1.17 1.24 2.33 1 3.48 0a5 5 0 0 0 2.44 1.58 6.06 6.06 0 0 1 -6.2 1.29 2.55 2.55 0 0 1 -1.71-1.42z" fill="#d8d6d5"/><path d="m31 28.74a1.8 1.8 0 0 1 -1.89 1.51c-.78-.12-1.68-.42-1.65-1.39s.84-1.18 1.65-1.17 1.71.03 1.89 1.05z" fill="#ad6851"/><path d="m17.23 30.08c-.94.06-1.76-.23-1.76-1.2s.91-1.17 1.75-1.2 1.52.3 1.54 1.26-.76 1.18-1.53 1.14z" fill="#ae6852"/><path d="m19.25 25.8c-.12.6-.34 1.28-1.22 1.36-.66.05-1.46-.91-1.37-1.67s.41-1.39 1.31-1.4c.72-.01 1.29.72 1.28 1.71z" fill="#3d2212"/><path d="m27.14 25.53a1.12 1.12 0 0 1 1.14-1.41c.91 0 1.26.64 1.29 1.51a1.26 1.26 0 0 1 -1.32 1.48c-.81-.01-1.16-.7-1.11-1.58z" fill="#3d2211"/><path d="m23.37 32.46a4.77 4.77 0 0 1 -2.79-.64c-.3-.17-.74-.31-.43-.77s.53-.05.8.09a3.57 3.57 0 0 0 4.21-.14c.23-.18.5-.34.71 0s0 .54-.24.72a4.11 4.11 0 0 1 -2.26.74z" fill="#5e3818"/><g fill="#452612"><path d="m20 22.46c-.09.44-.35.48-.62.31a2.3 2.3 0 0 0 -2.67 0 .4.4 0 0 1 -.53-.09c-.17-.2-.05-.35.07-.52a2.72 2.72 0 0 1 3.55-.11 2.29 2.29 0 0 1 .2.41z"/><path d="m28.46 21.44a2.65 2.65 0 0 1 1.57.61.48.48 0 0 1 .16.64c-.17.24-.42.19-.63 0a1.79 1.79 0 0 0 -2.12 0c-.21.13-.45.26-.64 0s-.05-.53.17-.73a2.15 2.15 0 0 1 1.49-.52z"/></g></g></svg>