<svg viewBox="0 0 42.11 40.36" xmlns="http://www.w3.org/2000/svg"><g transform="translate(-1.62 -2.5)"><path d="m20.24 37.78c-.78.31-1.56.59-2.32.92a5.36 5.36 0 0 0 -3.21 3.47c-.19.65-.46.74-1.1.44a20.92 20.92 0 0 1 -11.69-22.22c1.58-9.06 6.97-14.89 15.78-17.21 11.89-3.18 23.8 4.98 25.78 17.31a21.07 21.07 0 0 1 -11.77 22.12c-.39.18-.79.54-1-.21-.8-2.92-3.18-3.84-5.74-4.53-.84-1.14-.69-2 .55-2.41a15.35 15.35 0 0 0 4.19-2.68 8.22 8.22 0 0 0 4.74-8 29.19 29.19 0 0 0 -.83-6.74c-2.34-9.34-13-10.38-18.12-6a11.19 11.19 0 0 0 -2.4 3 18.14 18.14 0 0 0 -2.35 11.71c.4 3.16 2.42 5.2 5.23 6.51a23.5 23.5 0 0 0 3.94 2.23c1.08.43 1.08 1.35.32 2.29z" fill="#ed6f47"/><path d="m20.24 37.78c.53-1.44.43-1.65-.91-2.22a10 10 0 0 1 -3.33-2.05c-2.31-1.37-2.7-3.71-3.06-6.06-.06-.39 0-.79-.08-1.19-.3-2.32 0-2.9 2.17-3.92a30.44 30.44 0 0 1 5.75-2 25.14 25.14 0 0 0 7.94-2.91c.52-.34 1-.33 1.28.29 2 4.25 3.27 8.59 1.4 13.25a3.59 3.59 0 0 1 -1.67 2.03 9.81 9.81 0 0 1 -4.25 2.76c-1.25.4-.55 1.33-.5 2.08a4 4 0 0 0 -1.24.32 1.82 1.82 0 0 1 -2.17 0 6.45 6.45 0 0 0 -1.33-.38z" fill="#f5cd99"/><path d="m29.73 33c2.75-3.28 2.64-7 1.66-10.86a17.75 17.75 0 0 0 -1.91-4.92c-2.46 1.9-5.38 2.55-8.26 3.3a28.81 28.81 0 0 0 -6.5 2.33c-1.71.91-1.78 1.11-1.57 3a18.89 18.89 0 0 0 .61 4 9 9 0 0 0 2.24 3.66 8.53 8.53 0 0 1 -5.76-8 19.23 19.23 0 0 1 2.63-10.76c2.57-4.16 6.37-5.75 11.13-5.37a10.5 10.5 0 0 1 9.65 7.68 20.51 20.51 0 0 1 1 9.79 7.64 7.64 0 0 1 -4.92 6.15z" fill="#331c10"/><path d="m22.53 33a3.84 3.84 0 0 1 -2.53-.61c-.22-.14-.54-.36-.37-.65s.48-.1.74 0a4.26 4.26 0 0 0 4.41-.1c.22-.13.43-.28.61 0s0 .46-.21.61a3.42 3.42 0 0 1 -2.65.75z" fill="#bb8b61"/><path d="m19.52 26c0 .38-.23.56-.48.42a3.88 3.88 0 0 0 -3.19-.3c-.1 0-.31-.1-.37-.21s0-.35.19-.49a4.25 4.25 0 0 1 3.63.26 2.68 2.68 0 0 1 .22.32z" fill="#452a18"/><path d="m28 25.07a3.59 3.59 0 0 1 1.54.24c.24.11.43.23.34.52s-.36.31-.58.24a3.29 3.29 0 0 0 -2.85.24.4.4 0 0 1 -.61-.14c-.12-.26.08-.44.29-.58a3 3 0 0 1 1.87-.52z" fill="#452b19"/><path d="m27.94 22.78a8.13 8.13 0 0 1 .83.12c.43.09 1.15 0 1 .68s-.71.08-1.08.09a5.57 5.57 0 0 0 -2.11.21c-.22.09-.51.15-.63-.12s0-.55.36-.63c.58-.13 1.16-.25 1.63-.35z" fill="#422a16"/><path d="m17.66 22.81a3.24 3.24 0 0 1 .67 0c.5.21 1.48 0 1.37.78s-.82 0-1.26.06a6.69 6.69 0 0 0 -1.88.24c-.22.08-.58.2-.67-.21s.17-.5.46-.57z" fill="#4a2e1b"/><path d="m21.63 28.57.24-2c0-.2.07-.42.33-.4a.41.41 0 0 1 .37.39 21.37 21.37 0 0 1 -.24 3.3c0 .16-.18.25-.36.22a.32.32 0 0 1 -.28-.32c0-.4 0-.79 0-1.19z" fill="#c09366"/></g></svg>