<svg viewBox="0 0 42.14 42.04" xmlns="http://www.w3.org/2000/svg"><g transform="translate(-1.61 -1.66)"><path d="m10.64 39.8c-1.8-.77-3-2.27-4.19-3.68a20.45 20.45 0 0 1 -4.54-9.87 20 20 0 0 1 .09-7.36 20 20 0 0 1 3.18-7.89 21.11 21.11 0 0 1 34.4-.85 21 21 0 0 1 -.09 25.22 15.32 15.32 0 0 1 -4.76 4.48c-.47-.39-.38-.94-.39-1.45-.05-5.94-.39-11.88-.25-17.83a15.29 15.29 0 0 0 -.56-4.26 9.51 9.51 0 0 0 -7.42-7.31 12.89 12.89 0 0 0 -8.11.41c-4.49 1.85-6.62 5.47-6.64 10.17 0 6.15-.45 12.29-.3 18.44.01.61.17 1.29-.42 1.78z" fill="#f2b43d"/><path d="m10.64 39.8c.11-6.7.19-13.4.32-20.11a11.81 11.81 0 0 1 3.38-8.44c4.4-4.42 15.15-4.35 18.58 2.37a14.71 14.71 0 0 1 1.49 6.58q.17 9.81.32 19.63a13.29 13.29 0 0 1 -4.82 2.6 1.14 1.14 0 0 1 -.52-.89 4.52 4.52 0 0 0 -2.24-3.68 14.54 14.54 0 0 1 -1.84-1.15l-.48-.32c-.85-1-.66-1.93.58-2.38a9.2 9.2 0 0 0 3.35-2 9.53 9.53 0 0 0 3-9 27.39 27.39 0 0 0 -2-6.76c-.52-1.09-.54-1.11-1.55-.46a56.16 56.16 0 0 1 -8.49 4.44 4.88 4.88 0 0 1 -1.37.44c.14.15.34.12.5.2.52.26 1.09.59.85 1.25s-.86.3-1.33.18a2.49 2.49 0 0 0 -1.3 0c-.56.16-1 .41-1.58-.27s-2.07.42-2 1.18c.26 2.74.44 5.51 2.32 7.79a10.61 10.61 0 0 0 4.52 3c1.17.46 1.34 1.41.5 2.44l-.46.31a19.61 19.61 0 0 1 -1.86 1.13 4.53 4.53 0 0 0 -2.23 3.73c-.13.41-.18.88-.76.91a13.56 13.56 0 0 1 -4.88-2.72z" fill="#331c10"/><path d="m20.8 36.42c.52-1.48.38-1.76-1-2.27-4.11-1.55-6.1-4.64-6.49-8.9 0-.32 0-.64-.07-1-.32-2.71-.27-2 2.13-2.88.16-.06.47-.15.46.09s-.34.62.14.77.55-.28.84-.38a2.14 2.14 0 0 1 1.95.17c.22.16.5.4.72.09s-.05-.6-.31-.79a3.45 3.45 0 0 0 -1.95-.54 58.7 58.7 0 0 0 7.08-3.18q2.19-1.23 4.29-2.6c.55-.35.77-.28 1 .29a26.55 26.55 0 0 1 2.59 9.13 10 10 0 0 1 -6.51 9.76c-1.29.46-1.4.71-.92 2.17-.79.86-.93 2.06-1.54 3-.45.71-.72.61-1 0s-.7-1.58-1-2.39c-.05-.22-.05-.51-.41-.54z" fill="#e0ab7a"/><path d="m18.37 37.6a4.56 4.56 0 0 1 2-.87c-.08 2.47.89 4.65 2.07 6.9a11.62 11.62 0 0 1 -4.72-.53c-.37-.51.11-.93.16-1.4a14.2 14.2 0 0 0 .49-4.1z" fill="#8e7558"/><path d="m25.31 36.71a6.41 6.41 0 0 1 2 .88 8.07 8.07 0 0 0 .66 4.64.93.93 0 0 1 -.2.91 16 16 0 0 1 -4.6.55 14.59 14.59 0 0 0 2.14-6.98z" fill="#8d7558"/><path d="m18.09 41.91-.4 1.19a8.45 8.45 0 0 1 -2.2-.6c.46-.19.38-.66.54-1a2.12 2.12 0 0 1 2.06.41z" fill="#d7ab81"/><path d="m27.73 43.14v-.93a1.54 1.54 0 0 1 1.94-.73l.27 1a6.49 6.49 0 0 1 -2.21.66z" fill="#dbaf86"/><path d="m29.64 41.48-1.94.73a7.17 7.17 0 0 1 -.88-3.65c0-.37-.11-.84.45-1a4.49 4.49 0 0 1 2.37 3.92z" fill="#f9f6f3"/><path d="m18.09 41.91-2.09-.43a4.36 4.36 0 0 1 2.34-3.88c.71 1 .23 2 .1 3a8.27 8.27 0 0 1 -.35 1.31z" fill="#fbf8f5"/><path d="m22.59 32.38a2.6 2.6 0 0 1 -2.51-1.11c-.46-.58-.41-1.05.5-1.05h4.42c.26 0 .6-.09.72.27s-.11.52-.29.74a3.08 3.08 0 0 1 -2.84 1.15z" fill="#a6754f"/><path d="m29.25 24.72c-.05.83-.35 1.46-1.24 1.48s-1.28-.66-1.27-1.51.26-1.43 1.26-1.44 1.2.67 1.25 1.47z" fill="#3e2313"/><path d="m18.91 24.66c0 .85-.31 1.5-1.21 1.53s-1.31-.63-1.3-1.47.32-1.52 1.31-1.47 1.14.75 1.2 1.41z" fill="#3c2313"/><path d="m28.31 20.87a4.71 4.71 0 0 1 .74.23c.43.18 1.05.39.78 1s-.64 0-1-.16a1.83 1.83 0 0 0 -1.71.16c-.27.19-.55.4-.78 0s.1-.52.32-.68a2.69 2.69 0 0 1 1.65-.55z" fill="#4b2e17"/><path d="m22 28.4c0-1.06 0-2.11 0-3.16 0-.19 0-.41.26-.47s.37.05.38.19c0 1.17.33 2.38-.26 3.48z" fill="#b57f54"/><path d="m20.71 31a24.56 24.56 0 0 1 4.1-.07 2.77 2.77 0 0 1 -4.1.07z" fill="#f7f0e7"/></g></svg>