<svg viewBox="0 0 42.07 42.18" xmlns="http://www.w3.org/2000/svg"><g transform="translate(-1.64 -1.59)"><path d="m12.48 41a20.06 20.06 0 0 1 -10.48-14.51 20.9 20.9 0 0 1 13.26-23.49c12.32-4.76 26.3 3.27 28.18 16.35 1.29 9-2 16.07-9.55 21.18a8.78 8.78 0 0 1 -1.06.54 41.54 41.54 0 0 0 -6.5-2.81c-1.2-.46-1.34-.88-1.11-2.73.24-.63.86-.66 1.37-.83a8.36 8.36 0 0 0 5-4.52 2.49 2.49 0 0 1 1.11-1.33c2.34-1.15 2.79-3.15 1.25-5.3a1.49 1.49 0 0 1 -.18-.3 2.15 2.15 0 0 1 .56-1.76 2.47 2.47 0 0 0 .49-2.36c-.06-.23-.19-.51-.1-.7.76-1.65.13-3.14-.44-4.66-.11-.29-.09-.65-.34-.87a1.53 1.53 0 0 1 -.46-1.4 1.82 1.82 0 0 0 -1.28-2.1 1.68 1.68 0 0 1 -.91-.73 2.54 2.54 0 0 0 -2.71-1.11 2.11 2.11 0 0 1 -2-.49 1.78 1.78 0 0 0 -1.13-.34 1.14 1.14 0 0 1 -1-.57c-.53-1-1.24-.75-1.87-.2s-1.22.89-2 .3c-.16-.12-.47-.2-.56-.09-1 1.26-3.12.5-3.78 2.28-.22.58-.84.69-1.42.7a1.48 1.48 0 0 0 -1.57 1.2 1.92 1.92 0 0 1 -1.14 1.28 2.82 2.82 0 0 0 -1.41 3.62 1.52 1.52 0 0 1 -.29 1.85 1.31 1.31 0 0 0 -.1 1.84 1.73 1.73 0 0 1 .28 1.8c-.41 1 .56 1.6.66 2.45a7.17 7.17 0 0 1 -.59 1.8 2.84 2.84 0 0 0 1.57 3.57 3 3 0 0 1 1.62 1.64 7.93 7.93 0 0 0 5.15 4.52c1.6.51 1.63.61 1.39 2.3a4 4 0 0 1 -1.1 1.17 1.87 1.87 0 0 1 -.31.17c-1.37.54-2.8.9-4.17 1.47-.81.33-1.38 1.17-2.33 1.17z" fill="#2f7e9e"/><path d="m25.32 35.52c.17 2.23.25 2.24 2.76 3.06 1.7.56 3.53.94 4.75 2.46a17.74 17.74 0 0 1 -7.43 2.51 19.67 19.67 0 0 1 -12.92-2.55 10.78 10.78 0 0 1 5.05-2.46c.5-.12.9-.53 1.46-.46.32.77.52 1.58.84 2.35.19.46.37.66.85.25s1.14-1.38 2-1.42 1.3.83 1.92 1.31.86.3 1.05-.3a6.92 6.92 0 0 0 .3-.91c.05-.15-.19-.09 0-.07s0 0 0 .12a7.19 7.19 0 0 1 -.27.78c-.2.6-.57.7-1.09.31s-1.12-1.35-1.89-1.33-1.2.84-1.78 1.3-.91.28-1.14-.36a7.67 7.67 0 0 1 -.6-2.05c.16-.51.67-.63 1-.94a2.5 2.5 0 0 1 1 .36c.77.4 1.47.88 2.43.29.79-.49 1.43-1 1.44-2a.3.3 0 0 1 .27-.25z" fill="#a4d285"/><path d="m25.32 35.52c.25 1.76-1.1 2.28-2.29 2.91-.19.1-.55.16-.67 0-.66-.59-1.7-.54-2.22-1.34 0-.36 0-.72 0-1.08 0-.51-.1-.76-.67-.89a8.25 8.25 0 0 1 -6-5.13c-.17-.42-.32-.85-.82-.95-2.41-.49-3.07-3.44-1.75-5.39a2.68 2.68 0 0 0 .19-.42.38.38 0 0 1 .39-.21c1.43-.06 1.62-.27 1.33-1.72-.13-.65-.14-1.12.49-1.53a1.84 1.84 0 0 0 .66-1.6c0-.69.33-1 1-1a3.24 3.24 0 0 0 2.52-1.17c.37-.42.71-.59 1.2-.14a1.22 1.22 0 0 0 1.65.07 1.62 1.62 0 0 1 1.88-.09 3.34 3.34 0 0 0 3-.17c.48-.23.89-.32 1.25.2a1.67 1.67 0 0 0 2.23.55c.6-.27 1-.15 1.22.47.05.15.13.34.27.38 1.22.44 1.52 1.49 1.93 2.57a3.51 3.51 0 0 1 .5 2.11c-.19 1 .17 1.24 1.31 1.25a3.4 3.4 0 0 1 -1 5.88 1.26 1.26 0 0 0 -.85.72 8.52 8.52 0 0 1 -6.51 5.51c-.08-.01-.16.13-.24.21z" fill="#fdcd9b"/><path d="m33.92 23.17c-.23.42-.55.76-1.05.45a1.41 1.41 0 0 1 -.63-1.57 2.17 2.17 0 0 0 -.4-2.08c-.55-.84-.47-2.08-1.85-2.33-.4-.08-.49-.68-.54-1.17-1.26.42-2.55 1-3.37-.67-.17-.36-.39-.09-.58 0a3.71 3.71 0 0 1 -4.06 0c-.29-.19-.38 0-.57.11-1.25.89-1.73.86-2.77-.17a3.59 3.59 0 0 1 -3.33 1.73c-.53 0-.51.17-.5.63a2 2 0 0 1 -1.11 2.19c-.44.17-.26.37-.17.62s.14.29.19.44c.49 1.75-.17 2.36-2.09 1.94-.5-1-1.42-2-.57-3.26.15-.23-.2-.48-.37-.69a1.76 1.76 0 0 1 .13-2.58 1 1 0 0 0 .21-1.33 3 3 0 0 1 1.72-4.15 1 1 0 0 0 .69-.85 1.76 1.76 0 0 1 2.1-1.63 1.05 1.05 0 0 0 1.19-.7c.43-1 1-1.59 2.2-1.26.36.1.49-.09.64-.36a1.2 1.2 0 0 1 2.06-.33c.46.4.64.25.94-.1 1.16-1.32 1.71-1.28 2.76.2 0 0 .05.09.06.09 1.24-.22 2.09 1 3.2.94 1.57-.13 3-.15 3.68 1.56.09.23.31.2.49.27 1.37.51 1.78 1.1 1.55 2.51-.07.47-.07.75.37 1 .11 0 .3.15.3.19-.38 1.7 2 3.05.62 4.9-.33.46-.06 1 .1 1.49a2.25 2.25 0 0 1 -.45 2.34 3.35 3.35 0 0 0 -.79 1.63z" fill="#4f301c"/><path d="m19.13 38.08a6.61 6.61 0 0 1 .78 2c.18.54.33.57.82.24.69-.46 1.15-1.45 2-1.44s1.24.92 1.87 1.39.73.22.93-.35a2.59 2.59 0 0 1 .89-1.6 10.06 10.06 0 0 1 -.86 2.68c-.16.37-.34.38-.62.14a10.93 10.93 0 0 1 -1.1-.92c-.82-.94-1.51-.78-2.35 0-1.41 1.38-1.46 1.35-2.16-.5a2.93 2.93 0 0 1 -.33-1.62.23.23 0 0 1 .13-.02z" fill="#78ab59"/><path d="m22.62 32.82a4.63 4.63 0 0 1 -3-1.17.91.91 0 0 1 -.38-.94c.13-.42.52-.29.81-.3h5.39c.29 0 .71-.15.82.27a1 1 0 0 1 -.35.84 5 5 0 0 1 -3.29 1.3z" fill="#ba8968"/><path d="m29.34 24.33c-.06.64-.28 1.26-1.15 1.28s-1.19-.61-1.19-1.33.35-1.47 1.23-1.46 1.1.64 1.11 1.51z" fill="#402716"/><path d="m16.1 24.23c.1-.78.42-1.43 1.22-1.41s1.24.64 1.18 1.49-.38 1.33-1.23 1.29-1.05-.71-1.17-1.37z" fill="#402615"/><path d="m22.53 26.4v1.92c0 .28-.09.6-.45.59s-.48-.32-.43-.6a30.34 30.34 0 0 0 .2-3.93c0-.22.11-.4.35-.4s.36.26.36.51v1.91z" fill="#bd8962"/><path d="m30.25 21.23c0 .45-.31.49-.66.29a2.56 2.56 0 0 0 -2.82 0 .4.4 0 0 1 -.54 0 .43.43 0 0 1 0-.55c.49-.87 3.44-.86 4 0a.93.93 0 0 1 .02.26z" fill="#58351c"/><path d="m17.36 20.33a2.51 2.51 0 0 1 1.88.55.42.42 0 0 1 .1.62.37.37 0 0 1 -.53 0 2.63 2.63 0 0 0 -2.91 0c-.22.13-.47.2-.62-.06s.06-.52.28-.68a2.77 2.77 0 0 1 1.8-.43z" fill="#5a3620"/><path d="m25.41 30.9a3.66 3.66 0 0 1 -5.16.27 28.84 28.84 0 0 1 5.16-.27z" fill="#f0e8df"/></g></svg>