<svg viewBox="0 0 42.13 42.11" xmlns="http://www.w3.org/2000/svg"><g transform="translate(-1.61 -1.62)"><path d="m12.5 41a19.82 19.82 0 0 1 -9.5-10.75 21.05 21.05 0 0 1 38.29-17.42 20.93 20.93 0 0 1 -8 28l-.51.32a21.43 21.43 0 0 0 -6.41-3 2.08 2.08 0 0 1 -1.25-1.21c-.33-2-.23-2.15 1.68-2.83a7.4 7.4 0 0 0 4.53-4 4 4 0 0 1 2-2.08c1.84-.88 2.05-3.9.45-5.19-.24-.2-.55-.33-.72-.61a1.38 1.38 0 0 1 -.16-.81 28.59 28.59 0 0 0 0-7 2.81 2.81 0 0 1 .63-1.76c.39-.68.9-1.36.13-2.16-.27-.27 0-.68.05-1a4.14 4.14 0 0 0 .29-1.93c-.49-.09-.8.24-1.2.29-.61.07-1.15 0-1.19-.76 0-.37-.1-.69-.56-.44-1.93 1-3.91.52-5.85.14a11.8 11.8 0 0 0 -9.36 1.78 7.61 7.61 0 0 0 -3.43 6.42c-.07 2.55 0 5.1 0 7.65a1.55 1.55 0 0 1 -.15.7s-.06.09-.08.09c-1-.25-1.24-.09-1.55 1a3 3 0 0 0 1.49 3.56 3.72 3.72 0 0 1 1.88 1.88 7.87 7.87 0 0 0 5.13 4.33c1.16.32 1.27.7 1.17 2.73a6.22 6.22 0 0 1 -3.43 2 10.74 10.74 0 0 0 -3.79 1.9 1.21 1.21 0 0 1 -.58.16z" fill="#ed6f47"/><path d="m12.5 41c1.26-1.55 3.11-2.09 4.89-2.62a21.85 21.85 0 0 0 2.82-1.55c.58-.16 1 .25 1.38.53a1.63 1.63 0 0 0 2.25 0c.36-.31.76-.75 1.36-.52 1.41 1.48 3.48 1.55 5.16 2.46.89.48 1.9.82 2.38 1.84a20.9 20.9 0 0 1 -19.74.22 2.61 2.61 0 0 1 -.5-.36z" fill="#225f89"/><path d="m25.2 36.83s-.08 0-.11.05c-1.64 1.56-3.27 1.44-4.88 0 .12-1.79-1-2.34-2.49-2.86a7.48 7.48 0 0 1 -4.26-4.44 1.72 1.72 0 0 0 -1-1.05c-2.71-1-3.1-4.2-.77-6.09.34.25.05.69.3 1 .55.3.7.05.7-.47v-3.19a7.57 7.57 0 0 1 .19-1.9 3.2 3.2 0 0 1 3.36-2.66 15.56 15.56 0 0 1 3.89.62 17.39 17.39 0 0 0 10.87-.71c.87-.35 1.09-.19 1.25.79a38.75 38.75 0 0 1 .3 6.08 7.22 7.22 0 0 0 .06 1.37c.34-.39.18-.92.59-1.17 1.52.48 1.87 1.7 1.9 3.08a3 3 0 0 1 -1.9 3.12 2.09 2.09 0 0 0 -1.38 1.32 7.71 7.71 0 0 1 -5.66 4.79 1 1 0 0 0 -.9 1.25 6.34 6.34 0 0 1 -.06 1.07z" fill="#fdcd9b"/><path d="m33.2 22.21c-.07.55-.12 1.11-.22 1.65 0 .23-.12.52-.43.48s-.36-.28-.36-.54c0-.68 0-1.36 0-2a54.15 54.15 0 0 0 -.22-6c0-.36.13-.89-.62-.51-3.26 1.65-6.73 1.71-10.25 1.1-1.22-.2-2.42-.49-3.63-.72-2.9-.53-4.34.62-4.43 3.58v4.07c0 .39.23 1-.42 1.05s-.47-.62-.6-1c0-2.71 0-5.42 0-8.13.12-4.74 2.81-7.21 7-8.57 2.75-.9 5.44-.31 8.14.16a5.27 5.27 0 0 0 3.92-.57c.18-.12.32-.44.58-.29a.72.72 0 0 1 .34.73c-.05.27-.1.54-.15.83 1 .39 1.65-.35 2.5-.66a5.24 5.24 0 0 1 -.43 2.88c-.11.3-.59.8.31.66.5-.07.37.31.32.56a4.33 4.33 0 0 1 -1 2.16 1.25 1.25 0 0 0 -.34 1.08 48.57 48.57 0 0 1 -.01 8z" fill="#4f301c"/><path d="m23.49 29.44h2.12s1 .34.79 1c-.32 1.21-2.34 2.43-3.83 2.32a4.19 4.19 0 0 1 -3.42-2.57c-.11-.51.2-.47.52-.54a22.32 22.32 0 0 1 3.82-.21z" fill="#ba8b6b"/><path d="m29.34 23.6c0 .81-.35 1.45-1.15 1.48s-1.25-.64-1.24-1.44.35-1.36 1.19-1.36 1.11.63 1.2 1.32z" fill="#3f2513"/><path d="m16.13 23.47c.07-.64.39-1.22 1.23-1.19s1.14.67 1.14 1.41-.38 1.39-1.18 1.39-1.21-.66-1.19-1.61z" fill="#402514"/><path d="m22.61 25.38a14 14 0 0 1 -.24 2.45c0 .28-.1.6-.47.53s-.24-.37-.24-.59c0-1.16 0-2.32 0-3.47 0-.38-.09-.93.46-.95s.47.53.48.91.01.64.01 1.12z" fill="#d29e75"/><path d="m28.21 19.41a3 3 0 0 1 1.79.59c.24.17.44.4.21.69s-.41.18-.63 0a2.45 2.45 0 0 0 -2.7 0c-.26.13-.53.27-.73 0s.13-.58.38-.72a3.86 3.86 0 0 1 1.68-.56z" fill="#492c17"/><path d="m19.37 20.08c-.12.37-.28.55-.63.37a2.64 2.64 0 0 0 -2.82.25.39.39 0 0 1 -.61-.11c-.13-.2 0-.36.11-.53a3.65 3.65 0 0 1 3.6-.39 1.91 1.91 0 0 1 .35.41z" fill="#492d19"/><path d="m23 30.13h1.79c.28 0 .7-.2.83.21s-.27.54-.49.75a3.26 3.26 0 0 1 -4.61 0c-.18-.2-.47-.4-.39-.68s.47-.22.72-.22h2.15z" fill="#faf7f4"/></g></svg>