<svg viewBox="0 0 42.08 42.13" xmlns="http://www.w3.org/2000/svg"><g transform="translate(-1.64 -1.61)"><path d="m14.16 41.85a20 20 0 0 1 -11.1-11.62 21 21 0 1 1 40.65-7.35c-.14 8.45-4.19 14.6-11.56 18.63a6.81 6.81 0 0 1 -.89.34 1.77 1.77 0 0 1 -1.05-1.37 4.53 4.53 0 0 0 -3.09-3.21c-.64-.37-1.34-.65-2-1.07a1.1 1.1 0 0 1 -.34-.4c-.42-1.72-.43-1.74 1.2-2.38a8.65 8.65 0 0 0 4.85-4.72 3.81 3.81 0 0 1 1.69-1.92 2.46 2.46 0 0 0 .69-3.78 2 2 0 0 1 -.48-.68c0-2.06.46-4.09.11-6.18-.87-5.09-3.69-7.57-8.78-8a15.08 15.08 0 0 0 -5.78.66c-3.57 1.1-5.76 4.24-5.93 8.28a30.65 30.65 0 0 0 .29 4.17 2.52 2.52 0 0 1 0 1.06c-.33.54-.88.91-1.08 1.55a2.55 2.55 0 0 0 1.25 3 2.49 2.49 0 0 1 1.37 1.24 9.36 9.36 0 0 0 5.53 5.45c1.31.54 1.44 1 .88 2.3a2.32 2.32 0 0 1 -.55.44c-.59.36-1.28.5-1.86.89a5.56 5.56 0 0 0 -3.14 3.46c-.1.47-.14 1.16-.88 1.21z" fill="#b3385f"/><path d="m27.11 37a4.77 4.77 0 0 1 3.54 3.59c.14.47.46.81.61 1.25a14.57 14.57 0 0 1 -5.54 1.61 6.21 6.21 0 0 0 -.12-1.87 1 1 0 0 1 .54-1.31 1.6 1.6 0 0 0 .75-1.93 1.37 1.37 0 0 1 .22-1.34z" fill="#62606f"/><path d="m14.16 41.85c.71-1 .76-2.34 1.66-3.26a4.46 4.46 0 0 1 2.44-1.59c.26 1.46.33 2.92 1.36 4.19.48.59-.31 1.95-.93 2.09a13.14 13.14 0 0 1 -4.53-1.43z" fill="#61616e"/><path d="m18.69 43.3c.71-.62 1-2.29.35-2.7a2 2 0 0 1 -.81-2.6 3.33 3.33 0 0 0 0-.95c.33-.75 1.17-.53 1.71-.91 1 .84.74 2 .91 3.11.28 1.23.52 2.48.85 3.69.18.65.1.94-.61.79a10.55 10.55 0 0 1 -2.4-.43z" fill="#7e7d8b"/><path d="m27.11 37a3.46 3.46 0 0 0 0 1.07 1.86 1.86 0 0 1 -1.06 2.6c-.53.26-.29.69-.14 1a1.39 1.39 0 0 1 -.23 1.75c-2.34.45-2.29.46-1.8-1.79.2-1 .92-1.9.36-3a6.87 6.87 0 0 1 1-2.64 3.9 3.9 0 0 1 1.87 1.01z" fill="#7e7d8a"/><path d="m25.27 36.07c-.19.93-.13 2-1 2.64-.14-.09-.28-.16-.4-.25-1.53-1.05-1.87-1-3 .76-.3-1-.61-2.07-.91-3.11l.49-.35a12 12 0 0 0 4.5 0z" fill="#ebe9e8"/><path d="m25 35.77a4.49 4.49 0 0 1 -4.5 0c.4-1 .15-1.62-1-2a8.86 8.86 0 0 1 -5.5-5.51 1.37 1.37 0 0 0 -1-1 2.45 2.45 0 0 1 -1.77-2.45 2.26 2.26 0 0 1 1.3-2.46c.36.13.39.59.68.76.39-.08.43-.39.52-.64a49.42 49.42 0 0 0 1.89-6.65c.22-1.16.77-1.4 1.73-.64a16.5 16.5 0 0 0 3.4 2c.61.29 1.17.5 1.48-.46.22-.69.77-.36 1.17-.11a10.1 10.1 0 0 0 3.12 1.62c.29-.21.16-.47.19-.69.11-.85.54-.88 1.15-.46s1.31 1.16 2.05 1.64c.3.19.56.49.93.51.79 0 1 .59 1.11 1.19.17.81.28 1.64.43 2.48.27-.13.29-.5.61-.51a2.41 2.41 0 0 1 1.18 2.75 2.3 2.3 0 0 1 -1.78 2.14c-.69.17-.79.71-1 1.2a8.75 8.75 0 0 1 -5.12 5.19c-1.21.38-1.67.93-1.27 2.1z" fill="#fdcc9b"/><path d="m32.93 22.36-.52 1.39c-.63-.67-.39-1.49-.62-2.16-.28-.84.15-1.92-1.42-2.18-.95-.16-1.73-1.29-2.6-2-.2-.17-.36-.54-.66-.41s-.24.58-.15.85c.31.92.05.92-.74.63a14.15 14.15 0 0 1 -3.12-1.73c-.55-.37-.78-.34-.77.35s-.46.8-1 .57a13.33 13.33 0 0 1 -4.16-2.29c-.27-.24-.53-.53-.93-.39s-.28.59-.35.92a58.64 58.64 0 0 1 -2 7.13c-.09.26-.25.66-.61.67s-.41-.42-.51-.71-.15-.45-.22-.68c-.36-2.68-.77-5.38 0-8a8.35 8.35 0 0 1 6.66-6.08 15.07 15.07 0 0 1 7.43 0 8.24 8.24 0 0 1 6.06 5.66 17 17 0 0 1 .23 8.46z" fill="#b6aca0"/><path d="m29.18 24.37c-.08.83-.41 1.54-1.34 1.52s-1.23-.65-1.22-1.47.33-1.53 1.3-1.52 1.14.71 1.26 1.47z" fill="#412414"/><path d="m16.26 24.28c.06-.72.34-1.42 1.32-1.38s1.18.68 1.19 1.48-.39 1.54-1.3 1.52-1.19-.69-1.21-1.62z" fill="#3f2514"/><path d="m22.46 31.29a3.5 3.5 0 0 1 -2.63-1.18c-.14-.17-.38-.35-.12-.6s.42-.07.61.1a3.07 3.07 0 0 0 4.19.31c.21-.15.4-.3.58 0s0 .45-.2.6a3.69 3.69 0 0 1 -2.43.77z" fill="#be8b62"/><path d="m17.76 20.48a5.5 5.5 0 0 1 .84.24c.42.18 1.07.41.82 1s-.68-.05-1-.16a2.08 2.08 0 0 0 -2 .24c-.23.18-.51.31-.71 0s0-.52.26-.7a3.23 3.23 0 0 1 1.79-.62z" fill="#4b2c18"/><path d="m28 20.51a2.7 2.7 0 0 1 1.57.64c.18.18.3.41.14.63s-.42.17-.63 0a1.66 1.66 0 0 0 -2.19 0 .41.41 0 0 1 -.63 0c-.2-.24 0-.45.15-.62a2.76 2.76 0 0 1 1.59-.65z" fill="#4f2f1a"/><path d="m21.94 28.41a21 21 0 0 1 -.06-3.7.33.33 0 0 1 .29-.33.36.36 0 0 1 .37.23 6.56 6.56 0 0 1 -.6 3.8z" fill="#bf8b5f"/></g></svg>