<svg viewBox="0 0 42.13 42.21" xmlns="http://www.w3.org/2000/svg"><g transform="translate(-1.61 -1.57)"><path d="m18.57 37.1c-1.22.48-2.44.95-3.66 1.46a4.44 4.44 0 0 0 -2.35 1.73c-.35.6-.77.47-1.21.17a21.11 21.11 0 0 1 -7.89-9.2 20.84 20.84 0 0 1 .36-17.92 19.67 19.67 0 0 1 10.11-9.75c7.77-3.38 15.14-2.51 21.83 2.64a19.91 19.91 0 0 1 7.76 13.52 20.55 20.55 0 0 1 -1.52 11.44 20.77 20.77 0 0 1 -7.88 9.22c-.44.28-.81.4-1.24-.1-1.67-2-4.08-2.48-6.4-3.16a.48.48 0 0 1 -.48-.15 2.14 2.14 0 0 1 -1-1.19 1.75 1.75 0 0 1 .12-1.06c.44-.53 1.11-.57 1.68-.83 2-.92 3.78-2.08 4.37-4.4a2.76 2.76 0 0 1 1.51-2 3.2 3.2 0 0 0 .91-5.32 2.41 2.41 0 0 1 -.36-.48 21.15 21.15 0 0 1 -.12-4.72 10.87 10.87 0 0 0 -2-6.61 6 6 0 0 0 -2.53-1.94c-3.08-1.45-6.25-1.31-9.51-.89-4.28.55-7 5.34-6.89 9a36.43 36.43 0 0 1 -.07 4.9c-.68 1.09-1.66 2.05-1.38 3.54a2.82 2.82 0 0 0 1.74 2.36 2 2 0 0 1 1.42 1.45c.62 2.81 2.62 4.29 5.1 5.31.43.17.94.22 1.18.71a1.88 1.88 0 0 1 0 1.26 1.41 1.41 0 0 1 -.88.79 4.05 4.05 0 0 0 -.72.22z" fill="#9dcdb2"/><path d="m24.12 39.32c-.76.93-.54 2-.48 3.07.05.82.09 1.41-1.07 1.39s-.86-.83-.85-1.45c0-1 .38-2.14-.51-3a1.29 1.29 0 0 1 1.45-1.33 1.35 1.35 0 0 1 1.46 1.32z" fill="#3f3541"/><path d="m24.12 39.32c-1.42-1.55-1.56-1.55-2.91 0a2.4 2.4 0 0 0 -.61.34c-.63.62-.78.18-1-.37-.29-.75-.3-1.64-1-2.17 0-.31.21-.42.5-.41.61.29.69.91.88 1.45s.52.71 1 .32.81-.87 1.41-1a1.4 1.4 0 0 1 .5 0 3.49 3.49 0 0 1 1.32 1c.51.48.83.45 1.14-.24.2-.46.14-1.15.87-1.26l.24.24c-.22.55-.44 1.09-.65 1.64-.53 1.33-.53 1.33-1.69.46z" fill="#b7b6ba"/><path d="m33.44 21.74c1.65.69 1.53 2.14 1.44 3.52a2.49 2.49 0 0 1 -1.75 2.4 2.19 2.19 0 0 0 -1.61 1.92 6.16 6.16 0 0 1 -6.2 3.81 2.62 2.62 0 0 1 -1.87-.65 1 1 0 0 0 -1.3-.15 5.44 5.44 0 0 1 -6.4-.63 5.22 5.22 0 0 1 -2-3 2.86 2.86 0 0 0 -1.68-1.43 3.46 3.46 0 0 1 -.94-5.22 7.69 7.69 0 0 1 .76-.75c.81.33.43 1.07.6 1.64a22.81 22.81 0 0 1 .5-6.33c.53-2.19 1.4-2.72 3.62-2.47a44.35 44.35 0 0 0 11.22 0c3.49-.5 4.19.06 4.8 3.56a49.62 49.62 0 0 1 .23 5.04c.06-.54.06-1 .58-1.26z" fill="#fdcd9b"/><path d="m33.44 21.74c-.48.77 0 1.74-.56 2.69a8.12 8.12 0 0 1 -.41-2.88 18.59 18.59 0 0 0 -.47-5.09c-.41-1.57-.81-1.93-2.4-1.85-2.26.11-4.52.36-6.78.46a38.38 38.38 0 0 1 -6.77-.43 2 2 0 0 0 -2.53 1.6 21.22 21.22 0 0 0 -.72 6.76 3.73 3.73 0 0 1 -.18 1.76c-.63-1.09-.32-2.22-.74-3.17 0-1.71 0-3.43 0-5.14a9.52 9.52 0 0 1 5.35-8.8 6.74 6.74 0 0 1 2.61-.65c3.46-.24 7-.41 10.05 1.74a8.38 8.38 0 0 1 3.11 4.58 10.46 10.46 0 0 1 .46 3.52c-.06 1.64-.03 3.27-.02 4.9z" fill="#c3976d"/><path d="m13.74 29a6.66 6.66 0 0 0 6.64 4.11 1.59 1.59 0 0 0 1.44-.66 1 1 0 0 1 1.56-.2c1.16 1.4 2.59.92 3.94.67 1.94-.36 3.1-1.82 4.2-3.3a6.45 6.45 0 0 1 -3.59 4.17 21 21 0 0 1 -2.64 1 5.81 5.81 0 0 1 -5.25 0c-2.28-.69-4.35-1.71-5.63-3.84-.35-.6-.96-1.15-.67-1.95z" fill="#361f12"/><path d="m20 34.78a17.12 17.12 0 0 0 5.25 0v1.17a4.76 4.76 0 0 1 -2.41 1.64h-.41a9.62 9.62 0 0 1 -2.43-1.48z" fill="#f9cd9d"/><path d="m20 36.11a4 4 0 0 1 2.43 1.49c-.58.47-1.17.92-1.72 1.41s-.67.22-.85-.24c-.26-.7-.53-1.39-.8-2.08z" fill="#faf9f7"/><path d="m22.85 37.6a10.92 10.92 0 0 1 2.41-1.6l1 .95c-.2.42-.42.84-.6 1.27-.55 1.35-.59 1.36-1.7.35z" fill="#f9f8f7"/><path d="m22.92 30.67a4.19 4.19 0 0 1 -2.37-.58c-.26-.15-.43-.41-.22-.69s.41-.11.63 0a3.88 3.88 0 0 0 5-1c.16-.19.32-.42.57-.28s.19.48 0 .73c-.8 1.51-2.36 1.59-3.61 1.82z" fill="#be8a61"/><path d="m18.58 22.83c-.07.89-.42 1.52-1.2 1.51s-1.23-.66-1.2-1.47.38-1.32 1.23-1.3 1.03.71 1.17 1.26z" fill="#412614"/><path d="m21.7 25.11c0-.6 0-1.2 0-1.8 0-.33.07-.7.49-.67s.44.39.45.72a16.77 16.77 0 0 1 -.24 3.81c0 .2-.07.42-.31.45s-.39-.23-.39-.47c0-.68 0-1.36 0-2z" fill="#d29e74"/><path d="m27.67 19.19a7.6 7.6 0 0 1 1.07.22c.46.18 1.23.36 1 .94s-.76 0-1.15-.13a2.76 2.76 0 0 0 -2.09.2c-.29.16-.63.38-.83 0s.22-.64.52-.77c.52-.2 1.06-.33 1.48-.46z" fill="#4e2f1b"/><path d="m19.43 19.69c-.15.32-.32.49-.66.3a2.6 2.6 0 0 0 -2.71.21c-.21.13-.4.24-.62 0s-.11-.35 0-.53c.54-.81 3.08-1.08 3.76-.37a2.49 2.49 0 0 1 .23.39z" fill="#4a2c18"/><path d="m29.36 23.06c-.05.09-.08.28-.19.34a.35.35 0 0 1 -.51-.13c-.64-1.08-1.26-.85-1.89 0a.39.39 0 0 1 -.52.13c-.1-.07-.21-.3-.17-.38a1.89 1.89 0 0 1 1.83-1.23c.82.01 1.18.52 1.45 1.27z" fill="#be8a62"/></g></svg>