<svg viewBox="0 0 42.07 42.08" xmlns="http://www.w3.org/2000/svg"><g transform="translate(-1.64 -1.64)"><path d="m14.33 41.84a17.49 17.49 0 0 1 -7.33-5.17 19.82 19.82 0 0 1 -5.08-10.5 20.6 20.6 0 0 1 5.78-18.29 20.14 20.14 0 0 1 13.21-6.17c8.38-.64 14.85 2.77 19.53 9.58a19.1 19.1 0 0 1 3.19 9.49 20.62 20.62 0 0 1 -6.27 17 15.69 15.69 0 0 1 -6.24 4.08 1.06 1.06 0 0 1 -.63-.66 5.55 5.55 0 0 0 -3.31-3.6c-.57-.38-1.29-.36-1.88-.74-1-.65-1.1-2.47 0-2.84 3.69-1.22 5.46-4 6.52-7.47.05-.15 0 0 .05-.11a8.87 8.87 0 0 0 1.13-3.18c.67-3.55 1.27-7.1-.48-10.54a2.11 2.11 0 0 1 0-1.74 3.4 3.4 0 0 0 -.82-3.55c-1.91-2.21-4.39-2.76-7.15-2.37a3.83 3.83 0 0 0 -3.1 2.24 2.15 2.15 0 0 1 -1.88 1.25 10.43 10.43 0 0 0 -8.89 8.18 16.49 16.49 0 0 0 2.85 13.19c.06-.43 0-.84.3-1.15.62-.2.75.31.94.68a8.34 8.34 0 0 0 4.95 4.24c.75.25 1.16.58 1.17 1.41a1.73 1.73 0 0 1 -1.06 1.9 5.75 5.75 0 0 0 -1.57.55 4.14 4.14 0 0 0 -2.82 2.64 2.57 2.57 0 0 1 -1.11 1.65z" fill="#8ac6da"/><path d="m27.25 37.39a4.45 4.45 0 0 1 3.3 3.08 8.14 8.14 0 0 1 .57 1.36 15 15 0 0 1 -5.6 1.67 18.41 18.41 0 0 1 -11.19-1.66c.44-.88.9-1.75 1.3-2.64a3.43 3.43 0 0 1 2.59-1.86 1 1 0 0 1 .92 0c.14.08.26.19.39.28 2.5 1.73 3.85 1.73 6.41 0 .42-.29.8-.54 1.31-.23z" fill="#facb4e"/><path d="m13.8 28.8.12 1.92a6.07 6.07 0 0 1 -1.83-2.43 16.61 16.61 0 0 1 -1.48-12.72 10.55 10.55 0 0 1 9-7.34 1.54 1.54 0 0 0 1.57-1.11 4.11 4.11 0 0 1 3.33-2.4c3.37-.7 7.18 1.09 8.3 3.92a2.5 2.5 0 0 1 .09 2.1 2.38 2.38 0 0 0 .1 2.43 13.38 13.38 0 0 1 .67 7.74 14.2 14.2 0 0 1 -1.67 5.8c-.57-.76-.15-1.65-.35-2.46a12 12 0 0 1 .05-1.34 34.5 34.5 0 0 0 -1.31-6.27 11.79 11.79 0 0 1 -2.78 1.46c-.88.25-1.8.54-2.57-.25-.43-.43-.62 0-.89.18a5.87 5.87 0 0 1 -3.65 1.27c-.32 0-.71 0-.91-.22-.6-.75-1-.28-1.4.17a6 6 0 0 1 -3.42 2.26c-.45.06-.62.45-.69.87a5.06 5.06 0 0 0 -.11 3c-.15 1.11.15 2.28-.17 3.42z" fill="#ab244d"/><path d="m32 24a9.52 9.52 0 0 1 0 2.71 11.53 11.53 0 0 1 -4.18 6.55 4.6 4.6 0 0 1 -1.82.74c-1 .3-1.18.77-1.17 1.69s1 .85 1.44 1.27c.25.22.84-.16.95.45-1 0-1.53.79-2.21 1.23-2 1.32-3.86.41-5.59-.68a2.78 2.78 0 0 0 -1.23-.6c.32-.7 1.1-.48 1.61-.69 1-.41.66-1.11.73-1.75s-.51-.65-1-.84a9 9 0 0 1 -5.24-4.73c-.12-.28-.21-.51-.54-.53a6 6 0 0 1 0-3.64c.51.15.7.63 1 1 1.74 1.69 5 1.82 5.79-1 .28-.94 1-1.16 1.86-1.13s1.69-.11 2.1.93c.55 1.43 1.44 2.51 3.16 2.41a3.94 3.94 0 0 0 3.72-2.69c.2-.35.21-.7.62-.7z" fill="#fdd4b0"/><path d="m13.88 22.34c0-.77.19-1.2 1.14-1.2 1.1 0 1.84-.87 2.56-1.61.52-.53 1-1.1 1.65-1.81 0 1.48.92 1.42 1.83 1.33a7.54 7.54 0 0 0 3.94-2.05c-.05 1 .56 1.14 1.28 1.12a6.39 6.39 0 0 0 3.29-1.28c.3-.19.57-.42.93-.68a30.21 30.21 0 0 1 1.5 6.61 3.74 3.74 0 0 1 -2.38-.77c-1.39-1.09-1.88-.9-3.1.31a6.39 6.39 0 0 1 -3 1.53 3.1 3.1 0 0 1 -2.83-.5c-.57-.48-1.24-.76-1.66-1.48s-2-.81-3 0a1.94 1.94 0 0 1 -2.15.48z" fill="#fdd4b0"/><path d="m13.88 22.34a3.57 3.57 0 0 0 2.12-1 2.12 2.12 0 0 1 3.44.77.48.48 0 0 0 .07.18 4.25 4.25 0 0 0 5.08.57 2.5 2.5 0 0 1 .64-.3c.55-.17 1.08-.16 1.18-1 .08-.68 1.94-1.09 2.64-.43.88.84 2 1 3 1.63 0 .41-.05.81-.08 1.22a4.29 4.29 0 0 1 -3.29 3.55c-1.93.54-3.51-.34-4.26-2.43a1 1 0 0 0 -1.31-.83c-.72.12-1.68-.45-2 .69-.48 1.53-1.37 2.62-3.1 2.66a4.13 4.13 0 0 1 -4.14-2.47c-.69-.94-.33-1.88.01-2.81z" fill="#3f2312"/><path d="m22.5 31.71a3 3 0 0 1 -2.25-.91c-.16-.15-.41-.32-.19-.59s.42-.13.61 0c1.25 1.12 2.51.93 3.78 0 .19-.14.4-.36.6-.08s0 .45-.16.62a3.52 3.52 0 0 1 -2.39.96z" fill="#c49273"/><path d="m22.48 26.56v1.44c0 .25-.05.51-.34.55s-.37-.24-.37-.48c0-.95 0-1.9 0-2.86 0-.25.1-.53.36-.55.42 0 .33.35.34.61v1.31z" fill="#c69375"/><path d="m17.91 23.06a1 1 0 0 1 .23 0c.85.16 2.06-.16 2.29.93.27 1.27-1.18 2.77-2.47 2.9a3.73 3.73 0 0 1 -3.8-3.12c-.06-.45.06-.64.52-.72a5.83 5.83 0 0 1 3.26.07c-.27.31-.71.36-1 .66a1.23 1.23 0 0 0 -.11 1.64.77.77 0 0 0 1.13.3 1.19 1.19 0 0 0 .4-1.58c-.11-.4-.55-.61-.45-1.08z" fill="#f6d0af"/><path d="m27.82 22.85a22.85 22.85 0 0 1 2.74.13c.48.11.64.28.59.79a3.61 3.61 0 0 1 -3.15 3.07c-1.41.2-2.36-.59-2.93-2.22-.28-.81-.11-1.19.72-1.33a8.81 8.81 0 0 0 1-.27c.5-.1 1-.19.63.59-.08.18-.21.34-.3.52a1.09 1.09 0 0 0 .27 1.5.73.73 0 0 0 1.07-.09 1.3 1.3 0 0 0 .14-1.65c-.21-.39-.89-.41-.78-1.04z" fill="#f5d0ad"/><path d="m27.82 22.85a5.12 5.12 0 0 1 1.06.88 1.52 1.52 0 0 1 -.21 2.14 1 1 0 0 1 -1.58 0 1.48 1.48 0 0 1 -.09-2.27c.58-.56.36-.58-.23-.58.33-.29.7-.16 1.05-.17z" fill="#3f2515"/><path d="m16.55 22.08c1-.62 1.22-.61 2.07 0z" fill="#e8bfa3"/><path d="m29.14 22.1h-2.21a1.61 1.61 0 0 1 2.21 0z" fill="#e0c0a8"/><path d="m17.91 23.06c.37.4.84.72.91 1.32a1.48 1.48 0 0 1 -.91 1.74 1.12 1.12 0 0 1 -1.47-.68 1.55 1.55 0 0 1 .4-2 1.21 1.21 0 0 1 1.1-.32z" fill="#3e2615"/></g></svg>