<svg xmlns="http://www.w3.org/2000/svg" viewBox="0 0 42.15 42.15"><title>face0</title><path d="M22.68,1.57a21.08,21.08,0,0,0-9.83,39.72h0A45,45,0,0,0,19.56,38c.16-.23.33-.46.5-.68.52-1.38.36-1.87-.86-2.5-.46-.24-.93-.45-1.41-.65A6.65,6.65,0,0,1,14,30.4c-.24-.58-.4-1.21-1-1.53-2.48-1.2-3-3.22-1.4-5.47a2.5,2.5,0,0,0,.57-1,53.05,53.05,0,0,0-.23-5.49,7.61,7.61,0,0,1,4.49-7.42A26.85,26.85,0,0,1,25.54,6.7a16.53,16.53,0,0,1,1.72-.1,7.65,7.65,0,0,1,2.32.32c1.32.41,2.11,1.29,1.94,2.37a1.3,1.3,0,0,0,.85,1.59,3.5,3.5,0,0,1,2,3.32,21.28,21.28,0,0,1-.56,5.21,7.72,7.72,0,0,0-.47,3.4l.13.21a3.4,3.4,0,0,1-.76,5.88,2.42,2.42,0,0,0-1,1.14,8.74,8.74,0,0,1-5.3,4.69c-1.43.4-1.67,1.22-1.06,2.69l.5.47c.44.66,1.36.56,1.85,1.15a29.75,29.75,0,0,1,4.86,2.25A21.08,21.08,0,0,0,22.68,1.57" transform="translate(-1.6 -1.57)" style="fill:#90c4ba"/><path d="M27.26,6.6a16.53,16.53,0,0,0-1.72.1,26.85,26.85,0,0,0-9.12,2.76,7.61,7.61,0,0,0-4.49,7.42,53.05,53.05,0,0,1,.23,5.49,2.5,2.5,0,0,1-.57,1c-1.6,2.25-1.08,4.27,1.4,5.47.65.32.81.95,1,1.53a6.65,6.65,0,0,0,3.75,3.73c.48.2.95.41,1.41.65,1.22.63,1.38,1.12.86,2.5-.17.22-.34.45-.5.68a45,45,0,0,1-6.71,3.33h0c.56.3,1.14.57,1.73.82a22.51,22.51,0,0,0,7.67,1.6h.43a20.93,20.93,0,0,0,9.82-2.43A29.75,29.75,0,0,0,27.64,39c-.49-.59-1.41-.49-1.85-1.15l-.5-.47c-.61-1.47-.37-2.29,1.06-2.69A8.74,8.74,0,0,0,31.65,30a2.42,2.42,0,0,1,1-1.14A3.4,3.4,0,0,0,33.43,23l-.13-.21a7.72,7.72,0,0,1,.47-3.4,21.28,21.28,0,0,0,.56-5.21,3.5,3.5,0,0,0-2-3.32,1.3,1.3,0,0,1-.85-1.59c.17-1.08-.62-2-1.94-2.37a7.65,7.65,0,0,0-2.32-.32" transform="translate(-1.6 -1.57)" style="fill:#dee0e4"/></svg>