<svg viewBox="0 0 42.14 42.08" xmlns="http://www.w3.org/2000/svg"><g transform="translate(-1.61 -1.64)"><path d="m14 41.81a18.21 18.21 0 0 1 -7.49-5.58 20.66 20.66 0 0 1 -4.89-14.23 20.88 20.88 0 0 1 4.69-12.53 20.17 20.17 0 0 1 13.26-7.59 20.37 20.37 0 0 1 17.22 5.24 20 20 0 0 1 6.94 16.25c-.32 8.05-4.24 14.1-11.33 18a8.44 8.44 0 0 1 -1 .41c-.5-.38-.4-.86-.22-1.36a1.57 1.57 0 0 1 .76-.53 6.16 6.16 0 0 0 3.46-7.68 18.35 18.35 0 0 1 -1.08-6.81c.1-2.39 0-4.79 0-7.18a10.46 10.46 0 0 0 -2.71-6.74c-2.57-3.25-6.14-3.85-10.09-3.69-4.13.18-7 2.19-9.14 5.45a11.86 11.86 0 0 0 -1.81 6.36 71.85 71.85 0 0 0 .08 7.9 6.89 6.89 0 0 1 -.51 3.28 7.34 7.34 0 0 0 .86 7.22 4.86 4.86 0 0 0 3 2c.91.85.91.92 0 1.81z" fill="#8ac6da"/><path d="m31.34 40.53c0 .43.05.86.08 1.28a20.88 20.88 0 0 1 -13.62 1.35 14.07 14.07 0 0 1 -3.8-1.35c.06-.51.63-1 .06-1.52.94-1.63 1.77-3.29 3.53-4.29a10.26 10.26 0 0 1 3.41-1.3 4.21 4.21 0 0 1 1.61 2.63c.69-1 .92-2.21 2-2.66a14.48 14.48 0 0 1 3.09 1.18 5.64 5.64 0 0 1 2.79 3c.25.57 1.06.89.85 1.68z" fill="#f499bb"/><path d="m31.34 40.53a15.34 15.34 0 0 1 -1-1.65 6.91 6.91 0 0 0 -4.34-3.48 4.93 4.93 0 0 0 -1.38-.53c-.48-.76 0-1.08.62-1.34a15.7 15.7 0 0 0 2.76-1.13 9.29 9.29 0 0 0 3.72-5.28 26.14 26.14 0 0 0 .7-3.39 2.06 2.06 0 0 0 -.5-2 12 12 0 0 1 -3.28-5.62c-.27-.92-.62-1-1.43-.51a45.24 45.24 0 0 1 -13 5.14c-1.23.3-1.37.47-1.17 1.73.24 1.5.28 3 .65 4.5a8.35 8.35 0 0 0 6.31 6.43 2.78 2.78 0 0 1 .79.29c.48.29.68.66.23 1.15-2.2.84-4.4 1.65-5.69 3.86-.33.56-.23 1.5-1.2 1.59-2.33-.27-3.46-1.88-4.32-3.82a7.46 7.46 0 0 1 .18-6 7.13 7.13 0 0 0 .45-2.93c-.14-2.63-.23-5.27-.12-7.89.2-4.63 2-8.4 6.22-10.76 4.83-2.71 12.48-2 16 3a10.19 10.19 0 0 1 2.2 5.74c0 2.72.11 5.44 0 8.15a17.22 17.22 0 0 0 1.06 6.52 6.32 6.32 0 0 1 -3.92 8c-.19.04-.36.15-.54.23z" fill="#c0944a"/><path d="m21 34.84c.27-1-.54-1-1.11-1.13a8.56 8.56 0 0 1 -6.13-5.52c-.79-2.12-.79-4.37-1.09-6.57-.12-.83.42-1 1.05-1.12a44.85 44.85 0 0 0 13.28-5.14c1.43-.88 1.43-.88 1.94.76a11.53 11.53 0 0 0 3.36 5.54 1.07 1.07 0 0 1 .47.91c-.22 3.23-.81 6.32-3.1 8.82a8 8 0 0 1 -4.2 2.37c-.59.15-1.06.36-.87 1.11a5.3 5.3 0 0 0 -1.42 2.28c-.06.32-.12.5-.48.51s-.43 0-.43-.27c.02-1.08-.84-1.71-1.27-2.55z" fill="#fdcc9b"/><path d="m22.28 31.09a3.06 3.06 0 0 1 -2.28-.83c-.21-.18-.46-.42-.25-.7s.48-.14.72 0a3.32 3.32 0 0 0 4.44 0c.22-.15.43-.3.61-.06s0 .47-.16.63a3.71 3.71 0 0 1 -3.08.96z" fill="#bf8a62"/><path d="m17.38 24.64c-.48-.29-1.33.4-1.32-.6a1.26 1.26 0 0 1 1.26-1.43c.88 0 1.28.58 1.3 1.38.03 1.18-.94.2-1.24.65z" fill="#432815"/><path d="m27.65 24.62c-.42-.29-1.28.44-1.25-.59 0-.75.37-1.43 1.27-1.43s1.27.57 1.27 1.4c.06 1.18-.94.24-1.29.62z" fill="#442816"/><path d="m29.88 20.83c0 .31-.15.46-.35.4a4.72 4.72 0 0 0 -3.25.06.27.27 0 0 1 -.37-.19.57.57 0 0 1 .1-.42c.48-.62 3.16-.69 3.72-.11a1 1 0 0 1 .15.26z" fill="#ac7d49"/><path d="m21.77 26.31a8.76 8.76 0 0 1 .2-1.89c0-.22.15-.41.37-.39a.38.38 0 0 1 .33.43c-.06 1.07-.13 2.15-.22 3.21a.46.46 0 0 1 -.3.32c-.23.05-.36-.14-.37-.35-.03-.4-.01-.8-.01-1.33z" fill="#c59066"/><path d="m19.32 20.93c-.1.4-.33.53-.62.37a2.87 2.87 0 0 0 -2.63 0c-.19.08-.4.12-.52-.09a.46.46 0 0 1 .17-.62 4.17 4.17 0 0 1 3.32 0 2.73 2.73 0 0 1 .28.34z" fill="#a97d49"/></g></svg>