<svg viewBox="0 0 42.08 42.1" xmlns="http://www.w3.org/2000/svg"><g transform="translate(-1.64 -1.63)"><path d="m13.27 41.47a21.41 21.41 0 0 1 -8.68-8.14 20.47 20.47 0 0 1 -2.53-14.73 20.43 20.43 0 0 1 9.47-13.8 20.22 20.22 0 0 1 9.65-3.12 20.45 20.45 0 0 1 16.63 6.32 19.9 19.9 0 0 1 5.88 13.47c.34 8-2.93 14.18-9.4 18.75-.68.48-1.43.85-2.15 1.27a15.27 15.27 0 0 0 -5.76-2.75 7.45 7.45 0 0 1 -1.5-1.36c0-2 0-2 1.82-2.65a7.72 7.72 0 0 0 4.81-4.33 3.09 3.09 0 0 1 1.58-1.66 3.18 3.18 0 0 0 1.17-4.74c-.17-.26-.46-.44-.59-.74a62.59 62.59 0 0 1 -.16-6.57 8.23 8.23 0 0 0 -3.83-7 7.9 7.9 0 0 0 -2.2-.94 16.82 16.82 0 0 0 -9.33 0 8.45 8.45 0 0 0 -6 8.21c-.05 1.48 0 3 0 4.44a4.09 4.09 0 0 1 -.81 2.66 3.15 3.15 0 0 0 1.32 4.95 2.44 2.44 0 0 1 1.19 1.26 7.92 7.92 0 0 0 4.84 4.51c1.86.6 1.86.63 1.85 2.7a10.18 10.18 0 0 1 -1.68 1.25c-1.86.85-4.01 1.27-5.59 2.74z" fill="#9dcdb2"/><path d="m26.46 38.68a11 11 0 0 1 5.69 2.46c.06 0 0 .23 0 .34a22.37 22.37 0 0 1 -8 2.16c0-.69.7-1 .82-1.65.25-.32 0-.79.32-1.09.47-.7.5-1.63 1.17-2.22z" fill="#577234"/><path d="m13.27 41.47c0-.56.4-.71.76-.94a22.19 22.19 0 0 1 4.67-2.08c.88.84.95 2.08 1.51 3.07 0 .85.92 1.26 1.12 2.11a21.88 21.88 0 0 1 -8.06-2.16z" fill="#567234"/><path d="m20.21 41.52a6.92 6.92 0 0 1 -1.51-3.07c.54-.35.9-1 1.65-1 1.11 0 1.76 1 2.72 1.28a23.9 23.9 0 0 1 2.38 2.34l-.45.93c-.08-.7-.7-1-1.11-1.42-.77-.46-1.54-.83-2.3 0z" fill="#ebeae8"/><path d="m21.56 40.58c.9-1.47 1.19-1.47 2.3 0a2.27 2.27 0 0 0 -.38 2.24c.09.26.27.71-.13.83a2.36 2.36 0 0 1 -1.29 0c-.42-.12-.18-.56-.11-.82a2.28 2.28 0 0 0 -.39-2.25z" fill="#3e3642"/><path d="m11.86 21.48a27 27 0 0 1 0-5.61c.73-4.85 3.75-7.65 8.75-8.1a18.14 18.14 0 0 1 7.1.59 8.4 8.4 0 0 1 6.12 8c.07 2.31 0 4.63 0 6.94a1.68 1.68 0 0 1 0 1.5c-.13.42-.38.76-.87.39s-.63 0-.74.4c-.44 1.79-.61 1.92-2.4 1.93-1.23 0-2.47 0-3.7 0s-1.72-.39-2-1.72c-.07-.34-.06-.75-.55-.8s-.59.28-.69.65-.08.75-.53.84c-.28.06-.5-.18-.84-.86-.45 1.54-.88 1.88-2.51 1.9-1.11 0-2.23 0-3.35 0-1.82 0-2.36-.54-2.57-2.43-.19.27-.17.72-.6.72s-.51-.34-.62-.63a2.91 2.91 0 0 1 -.12-1.77 4.47 4.47 0 0 0 .12-1.94z" fill="#331c10"/><path d="m11.86 21.48a7.1 7.1 0 0 1 .14 2.52 2.66 2.66 0 0 0 .47 1.67c.41-.35.18-.78.26-1.14s.11-.4.35-.39.33.19.36.4a.49.49 0 0 0 0 .12c.47 2.54.47 2.54 3 2.54h2.88c1.32 0 1.69-.38 1.77-1.68 0-.32-.19-.87.32-.89s.37.57.41.92 0 .73.62.72a7.25 7.25 0 0 0 .05-.93c-.06-.77.41-.79 1-.8s.93.13 1 .85c.06 1.67.24 1.8 1.92 1.81h3.71c1.52 0 1.75-.23 1.82-1.69 0-.46-.12-1 .55-1.15s.5.58.94.89c.16-.69.3-1.31.45-1.94a3.05 3.05 0 0 1 1.25 3.12 2.85 2.85 0 0 1 -1.9 2.57 2.1 2.1 0 0 0 -1.36 1.32 7.64 7.64 0 0 1 -5.34 4.72c-1 .25-1.38.7-1.27 1.7a1.77 1.77 0 0 1 -.22.66 2.82 2.82 0 0 1 -2 1.37c-1.14 0-1.73-1-2.68-1.38.17-1.88-1.15-2.24-2.56-2.76a7.7 7.7 0 0 1 -4.27-4.45 1.68 1.68 0 0 0 -1-1.06 3.4 3.4 0 0 1 -1.46-5.46 3.28 3.28 0 0 0 .79-2.18z" fill="#875c30"/><path d="m23 38.81 2-1.37a2.13 2.13 0 0 1 1.42 1.24 6.15 6.15 0 0 1 -1 2.37 6.43 6.43 0 0 1 -2.42-2.24z" fill="#faf8f6"/><path d="m32.89 21.23v1.64c0 .28 0 .58-.39.64s-.51-.1-.58-.44c-.16-.79-.79-.94-1.45-.95-1.52 0-3 0-4.55 0a1.5 1.5 0 0 0 -1.22.64 2.51 2.51 0 0 1 -3.86 0 1.63 1.63 0 0 0 -1.38-.59h-4.31a1.53 1.53 0 0 0 -1.42.71c-.13.2-.23.44-.54.33s-.43-.22-.42-.51a14 14 0 0 1 1-6.17 1.57 1.57 0 0 1 1.7-.85c2.94.26 5.89.28 8.84.27a28.91 28.91 0 0 0 4.74-.43c2-.35 3.31.49 3.52 2.52a13.52 13.52 0 0 1 .32 3.19z" fill="#875c30"/><path d="m27.51 22.91c-.6.92-.94 1.85.1 2.63a.94.94 0 0 0 1.31-.1c.74-.84.45-1.67-.19-2.47a2.8 2.8 0 0 1 1.42-.12c.72 0 1.05.32 1.08 1.09.08 2.49.11 2.49-2.4 2.48-.88 0-1.75 0-2.63 0-.71 0-1-.31-1-1a5.76 5.76 0 0 0 0-.59c.01-2.05.08-2.11 2.31-1.92z" fill="#835c31"/><path d="m16.78 22.9c-.75.94-.94 1.82 0 2.6a.9.9 0 0 0 1.3 0c.72-.8.63-1.65-.25-2.57.94 0 1.82-.4 2.35.33a3.55 3.55 0 0 1 .16 2.65c-.06.39-.39.56-.81.56h-4.2c-.66 0-.95-.31-.92-1 0-.2 0-.4 0-.6-.02-2.1 0-2.11 2.37-1.97z" fill="#835b31"/><path d="m22.71 32.43a3.63 3.63 0 0 1 -2.71-1c-.13-.15-.3-.31-.16-.51s.36-.15.55-.05a4.38 4.38 0 0 0 4.74 0 .34.34 0 0 1 .5.15.48.48 0 0 1 -.23.62 4.79 4.79 0 0 1 -2.69.79z" fill="#5d3718"/><path d="m28.07 20.43a3.19 3.19 0 0 1 1.76.31c.26.13.49.35.36.66s-.45.23-.7.1a2.42 2.42 0 0 0 -2.69.11c-.19.14-.41.31-.62.06s0-.54.16-.73a1.94 1.94 0 0 1 1.73-.51z" fill="#382010"/><path d="m19.44 21.19c0 .39-.27.53-.49.4a3.14 3.14 0 0 0 -3.06 0 .32.32 0 0 1 -.46-.23.49.49 0 0 1 .19-.52 4.11 4.11 0 0 1 3.51-.07 2.45 2.45 0 0 1 .31.42z" fill="#381e12"/></g></svg>