<svg viewBox="0 0 42.19 42.14" xmlns="http://www.w3.org/2000/svg"><g transform="translate(-1.58 -1.61)"><path d="m15.43 42.4a20.8 20.8 0 0 1 -13.3-15.17 21 21 0 0 1 14-24.59c9.9-3.06 20 .8 25 9.9a20.89 20.89 0 0 1 -10.78 29.64 7.58 7.58 0 0 1 -1.27-4.07c.81-.71 1.8-1.15 2.61-1.88a10.05 10.05 0 0 0 3.31-7.68c.08-2.71-.4-5.41-.24-8.13a12.11 12.11 0 0 0 -.33-3.42c-1.15-5-4.12-8.41-9.21-9.44-4.77-1-9 .48-12.24 4.93a13 13 0 0 0 -2.32 7c-.21 3-.14 6.06-.17 9.09 0 4.06 1.56 7.19 5.31 9a1.88 1.88 0 0 1 .67.48 8.37 8.37 0 0 1 -1.04 4.34z" fill="#de6f8f"/><path d="m16.37 38.24a9.08 9.08 0 0 1 -6.17-8.33 54 54 0 0 1 .46-13 12.58 12.58 0 0 1 11.04-9.91c7.74-.63 13.3 5.45 13.36 12.44 0 3.16.32 6.31.23 9.46a9.74 9.74 0 0 1 -6.13 9.31c-1-.56-1.71-1.49-2.74-2a6.85 6.85 0 0 1 -1.42-.87l-.4-.31c-.59-1.11-.4-1.63.93-2.09a9.19 9.19 0 0 0 5.72-5.57 18.8 18.8 0 0 0 .86-3.37 6.92 6.92 0 0 0 -.48-4.77 14 14 0 0 1 -.83-3.23c-.12-.49-.3-.71-.82-.48a2.32 2.32 0 0 1 -1.76.14c-1.09-.51-1.75 0-2.5.67a7.17 7.17 0 0 1 -3.38 1.45 1.67 1.67 0 0 1 -1.29-.09c-1-.78-1.67-.27-2.42.41a3 3 0 0 1 -2.58.7c-.63-.1-.82.23-1.18.68-2 2.52-1.3 5.19-.5 7.84.86 2.85 3 4.53 5.69 5.57 1.26.48 1.4.88.91 2.19l-.33.24c-.38.59-1 .79-1.58 1.15a4.28 4.28 0 0 0 -1.63 1.13 1.46 1.46 0 0 1 -1.06.64z" fill="#4f301c"/><path d="m21 35.08c.27-1 0-1.57-1.15-2-4.38-1.53-6.19-5-6.53-9.37-.11-1.34-.37-2.73 1-3.69a.26.26 0 0 0 .07-.1c.48-.86.47-2 2.24-1.45 1.28.41 2.45-.88 3.26-2.12a2.27 2.27 0 0 0 2.65 1 6.67 6.67 0 0 0 4.07-2.3c.13-.16.28-.57.5-.34 1.29 1.44 2.52.48 3.86-.07a49.72 49.72 0 0 0 1.61 6.36c1.27 4.25-2.38 10.72-6.68 12.15-1.07.36-1.52.82-1.29 1.91a3.3 3.3 0 0 1 -3.61.02z" fill="#fdcc9b"/><path d="m26.47 36a5.17 5.17 0 0 1 2.69 2.18c.4 1.33.79 2.65 1.19 4a14.89 14.89 0 0 1 -5.49 1.32c-.37 0-.83.3-1.05-.17s.1-.71.36-1a2.8 2.8 0 0 0 1.08-2.73.17.17 0 0 1 0-.12c.99-.93.97-2.24 1.22-3.48z" fill="#3e3340"/><path d="m16.37 38.24c.87-.67 1.37-1.87 2.67-2 .33.31.2.76.33 1.12a31.19 31.19 0 0 1 1.38 4.16c.07.36.48.62.72.94s.42.53.25.86-.56.18-.86.22a1 1 0 0 1 -.47-.08 16 16 0 0 1 -5-1.09c.05-1.37.81-2.71.98-4.13z" fill="#3d3340"/><path d="m26.47 36a4.75 4.75 0 0 0 .16 1.4c.14.53.23 1.1-.54 1.35a.77.77 0 0 0 -.56.94c.52 1.29-.27 2-1.07 2.75-.23.22-.54.48-.43.8s.57.07.83.23a.66.66 0 0 1 -.2.11c-1.72.29-1.76.25-1.34-1.45.56-2.27 1.12-4.55 1.69-6.82a2.47 2.47 0 0 1 1.46.69z" fill="#564a5b"/><path d="m20.39 43.49c.37-.15.93.16 1.1-.2s-.39-.68-.64-1c-.58-.72-1.16-1.43-.73-2.45a.48.48 0 0 0 -.19-.62c-1.24-.71-.86-1.89-.89-2.95a4.13 4.13 0 0 1 1.6-1c.66 2.75 1.33 5.5 2 8.3a4.28 4.28 0 0 1 -2.25-.08z" fill="#56495b"/><path d="m29.32 23.7c-.12.81-.39 1.53-1.34 1.52s-1.24-.64-1.27-1.43.38-1.55 1.25-1.59 1.23.7 1.36 1.5z" fill="#402615"/><path d="m19 23.73c-.14.73-.37 1.5-1.34 1.49s-1.22-.65-1.24-1.46.38-1.54 1.28-1.55 1.15.69 1.3 1.52z" fill="#402514"/><path d="m22.87 30.51a3.92 3.92 0 0 1 -2.8-.74c-.18-.15-.39-.34-.17-.59s.36-.09.54 0a4.26 4.26 0 0 0 4.41.08c.2-.1.43-.31.61 0a.47.47 0 0 1 -.22.62 3.62 3.62 0 0 1 -2.37.63z" fill="#be8a60"/><path d="m19.66 20.64c-.08.3-.35.46-.53.32a2.35 2.35 0 0 0 -3 0c-.08.05-.33 0-.4-.13a.51.51 0 0 1 0-.43c.55-1 3.11-1 3.72-.05a2 2 0 0 1 .21.29z" fill="#472715"/><path d="m28.1 19.62a2.36 2.36 0 0 1 1.58.55c.18.17.36.35.19.6a.4.4 0 0 1 -.63.06 1.68 1.68 0 0 0 -2.19 0 .39.39 0 0 1 -.62-.06c-.18-.26 0-.44.17-.61a2.36 2.36 0 0 1 1.5-.54z" fill="#442615"/><path d="m22.67 25.7c-.28.6.42 1.73-.47 1.78-.62 0-.27-1.15-.26-1.76s-.47-1.86.42-1.92c.64-.03.08 1.2.31 1.9z" fill="#bf8963"/></g></svg>