<svg viewBox="0 0 42.13 42.2" xmlns="http://www.w3.org/2000/svg"><g transform="translate(-1.61 -1.58)"><path d="m2.36 28.58c-.07-.43-.11-.87-.21-1.29a21.05 21.05 0 0 1 40.85-10.29 20.92 20.92 0 0 1 -10.29 24.11 1.4 1.4 0 0 1 -.35.1 1.46 1.46 0 0 1 -1.25-.21c-1.42-.72-2.95-1.2-4.4-1.87a2.93 2.93 0 0 1 -1.58-1.38 1.59 1.59 0 0 1 0-.89c.44-.73 1.23-1.08 1.8-1.67a3.76 3.76 0 0 1 2.08-.79 3.29 3.29 0 0 0 2.78 1.12c.62 0 .89-.24.63-.9-.35-.87-.06-1.39.9-1.5.62-.07.84-.36.55-1a2.52 2.52 0 0 1 .36-2.59 13 13 0 0 0 1.95-9.73c-.15-.79-.2-1.51.73-1.89.29-.11.49-.4.2-.66-1.59-1.42-2-3.49-3-5.25a11 11 0 0 0 -8-5.67 17.08 17.08 0 0 0 -8.86.41 8.1 8.1 0 0 0 -4.75 4 4.6 4.6 0 0 1 -.8 1.19c-2.11 2.07-2.7 4.73-2.83 7.57a19.32 19.32 0 0 0 2 9.51 3.69 3.69 0 0 1 .08 3.46c-.36.68-.07.87.47 1 .71.16 1.56 0 1.44 1.25 0 .43.55.36.88.34a2.64 2.64 0 0 1 1.7.33c.66.42 1.17-.22 1.69-.57.77-.38 1.27.19 1.84.53a3.85 3.85 0 0 1 1.28 1.29 2 2 0 0 1 .07 1.09 2.47 2.47 0 0 1 -.84 1.17 2.9 2.9 0 0 1 -.93.54 18.35 18.35 0 0 0 -4 1.62 3.71 3.71 0 0 1 -1.33.47 9.77 9.77 0 0 1 -3.93-2.37 22 22 0 0 1 -5.9-7.52 14.08 14.08 0 0 1 -1.03-3.06z" fill="#f26d66"/><path d="m2.36 28.58a33.44 33.44 0 0 0 2.9 5.84 20.11 20.11 0 0 0 7.89 6.86c1.31.31 2.52.88 3.8 1.26 1.55.45 1.6.43 1.6-1.15a2 2 0 0 1 0-.35c.07-.42.06-1 .66-.89s.72.68.37 1.23c-.56.86.29 1.35.52 2a6 6 0 0 1 -4 .08 23.62 23.62 0 0 1 -3.33-1.36c-1.8-.74-2.91-2.4-4.46-3.33-2-1.2-2.73-3.33-4.37-4.79-1.42-1.25-1.78-3.38-1.58-5.4z" fill="#f9f7f6"/><path d="m19.59 41.38a1.09 1.09 0 0 0 -.51-1.1c-.37.46-.13 1-.24 1.4-.95-.77-.63-1.64-.19-2.52l.69-.44c.37.17.44.62.81.83a1.71 1.71 0 0 0 2.29-.47c1-.33 1.73-1.24 2.86-1.23l1.48 1.15a5.93 5.93 0 0 1 .07 4.27c-.59-.41-.22-1-.3-1.53-.05-.3-.11-.55-.43-.63s-.35.23-.46.42a2.8 2.8 0 0 0 -.19.43c-1.74-.74-1.08 1-1.57 1.52 0 .05-.15.05-.22.07a1.29 1.29 0 0 1 -.15-1.44c.22-.63.26-1.16-.42-1.51s-1.1.09-1.47.59a1.24 1.24 0 0 1 -.38.44c-.63.37-1.26.78-1.67-.25z" fill="#f8f7f6"/><path d="m26.85 43.26c0-1.42 0-2.85-.07-4.27a21.92 21.92 0 0 1 4.81 2 3.84 3.84 0 0 0 .77.25 17 17 0 0 1 -5.51 2.02z" fill="#a38566"/><path d="m21.26 41.62c0-.92.68-1.33 1.32-1.63s.83.45 1.25.71a.55.55 0 0 1 .17.9 2.74 2.74 0 0 0 -.32 1.94l-1.16.12c-.49 0-.76-.13-.65-.68a1.15 1.15 0 0 0 -.61-1.36z" fill="#483021"/><path d="m17.27 34.91c-.35.74-1.21 1.33-1.69 1-1-.74-2-.32-3-.55-.35-.08-.54-.33-.26-.71.16-.22.41-.4.24-.83a2.07 2.07 0 0 1 -1.45 0c-.68-.29-1.56-.28-.43-1.39.92-.9.4-2.27-.15-3.36a18.92 18.92 0 0 1 -1.95-9.38c.11-3 .65-5.87 3.09-8a.83.83 0 0 0 .23-.27c1.52-3.78 4.7-5.15 8.39-5.57a17.29 17.29 0 0 1 9.35 1.39c2.84 1.26 4.36 3.76 5.67 6.45.62 1.32 1 2.72 2.38 3.59.6.38-.2.89-.54 1-1 .18-.79.72-.66 1.39a13.15 13.15 0 0 1 -1.94 10.06 2.09 2.09 0 0 0 -.12 2.72c.56.75-.22.94-.74 1-1.29.25-1.31.23-.69 1.5.2.41.19.64-.27.82a3.43 3.43 0 0 1 -3.89-1.27c.22-.75 1-1 1.41-1.58 1.87-2.23 2.33-4.94 2.67-7.68a16.49 16.49 0 0 0 .27-3c0-.57-.15-1-.77-1.19a25.24 25.24 0 0 1 -6.51-3.05c-.13 0-.2.05-.17.15.46 2 .29 2.18-1.74 1.69a14.72 14.72 0 0 1 -5.89-3.07 6.2 6.2 0 0 1 .32 2.44c-.08.66-.43.91-1.07.72a7.56 7.56 0 0 1 -2.8-1.59c-.31 2-1.6 3.61-1.91 5.42a11.82 11.82 0 0 0 1.06 6.4 8.44 8.44 0 0 0 3.12 4.14.71.71 0 0 1 .44.61z" fill="#331c10"/><path d="m17.27 34.91c-3.28-2-4.34-5.2-4.88-8.75a6.06 6.06 0 0 1 .71-4.44 12.06 12.06 0 0 0 1.33-4 7.49 7.49 0 0 0 2.27 1.64c.44.16.95.59 1.32.32s.17-1 .1-1.46c-.09-.7-.31-1.38-.53-2.31a14.63 14.63 0 0 0 7.19 3.76c.31.06.66.27.91 0s-.05-.66-.12-1c-.11-.49-.47-.92-.4-1.53 1.34.77 2.62 1.54 3.92 2.27a11.55 11.55 0 0 0 3.67 1.41c.45.08.79.21.77.83a27 27 0 0 1 -1.53 8.92 7.55 7.55 0 0 1 -3.18 3.93c-.48.57-1.24.56-1.84.88-1.27.53-2.53 1-3.65-.33a.56.56 0 0 0 -.93 0c-.87 1.17-2 1-3.08.52a.61.61 0 0 0 -.46 0c-.56-.1-.86-.81-1.59-.66z" fill="#e0ab7a"/><path d="m18.65 39.16a13.31 13.31 0 0 0 .19 2.52c-.08 1.67-.08 1.68-1.78 1.18a11.88 11.88 0 0 1 -3.91-1.58c1.28-.45 2.42-1.19 3.7-1.66a7.11 7.11 0 0 1 1.8-.46z" fill="#a28565"/><path d="m18.88 35.58c.14-.64.5-.27.8-.17 1 .3 2 .64 2.58-.7a.74.74 0 0 1 1.29-.09c.67 1.47 1.71 1.08 2.78.73a.72.72 0 0 1 .67 0c-.26.81-1.06 1-1.64 1.48a4.46 4.46 0 0 1 -5.26-.18z" fill="#381f12"/><path d="m20.1 36.68a7.56 7.56 0 0 0 5.26.18l-.06 1c-1 .44-1.75 1.25-2.85 1.45a4.18 4.18 0 0 1 -2.35-1.5z" fill="#e1aa7a"/><path d="m20.1 37.8a11.3 11.3 0 0 1 2.35 1.5c-.42.38-.73 1.26-1.32 1s-1.93-.2-1.79-1.53z" fill="#f9f7f6"/><path d="m29.43 24.62c0 .95-.4 1.56-1.18 1.56s-1.25-.65-1.25-1.48.37-1.33 1.23-1.31 1.12.68 1.2 1.23z" fill="#412514"/><path d="m18.63 24.77c-.1.76-.4 1.41-1.21 1.41a1.18 1.18 0 0 1 -1.19-1.36c0-.82.3-1.45 1.21-1.43s1.07.7 1.19 1.38z" fill="#402514"/><path d="m22.47 32.75a4.18 4.18 0 0 1 -2.39-.6c-.35-.18-.64-.45-.41-.85s.53-.09.8.08a3.84 3.84 0 0 0 4.17 0c.26-.15.56-.51.83-.15s-.11.67-.39.85a3.94 3.94 0 0 1 -2.61.67z" fill="#a77247"/><path d="m22.7 26.55a18.77 18.77 0 0 1 -.23 2.45c0 .24 0 .53-.33.54s-.39-.34-.39-.61c0-1.27 0-2.55 0-3.82 0-.33.08-.69.51-.65s.41.34.41.63.03.91.03 1.46z" fill="#b58157"/><path d="m28.35 20.79a2.82 2.82 0 0 1 1.77.59c.2.16.34.38.19.62a.4.4 0 0 1 -.62.1 2.54 2.54 0 0 0 -2.81 0c-.27.15-.54.2-.7-.13s.15-.5.36-.63a3.4 3.4 0 0 1 1.81-.55z" fill="#4a2b15"/><path d="m17.73 20.73a3.29 3.29 0 0 1 .71.06c.42.14 1.11.16.9.82s-.65.1-1 0a2.81 2.81 0 0 0 -2.14.39c-.29.16-.57.41-.79 0s.13-.55.39-.72a3.21 3.21 0 0 1 1.93-.55z" fill="#482915"/></g></svg>