<svg id="Layer_1" enable-background="new 0 0 256 256" height="512" viewBox="0 0 256 256" width="512" xmlns="http://www.w3.org/2000/svg"><g><path d="m229.9 59.2c-5.6 17.2-24 26.6-41.2 21s-26.6-24-21-41.2c2.7-8.2 8.5-15 16.1-19-45.6-16.8-96.2 6.5-113 52s6.5 96.2 52 113 96.2-6.5 113-52c9.1-24.2 6.9-51.3-5.9-73.8z" fill="#edf4fc"/><path d="m4 232.8 58-58c2-2 5.4-2 7.4 0l11.7 11.7c2 2 2 5.4 0 7.4l-58 58c-2 2-5.4 2-7.4 0l-11.7-11.7c-2-2-2-5.3 0-7.4z" fill="#5290db"/><path d="m85.9 158.9-16.2 16.2 11.1 11.1 16.2-16.2c-2-1.7-4-3.4-5.8-5.3s-3.6-3.8-5.3-5.8z" fill="#edf4fc"/><path d="m15 199.9h55.1v27.1h-55.1z" fill="#29589f" transform="matrix(.707 -.707 .707 .707 -138.436 92.619)"/><path d="m198.9 81.8c-18 0-32.7-14.6-32.7-32.7 0-5.9 1.6-11.8 4.7-16.9-38.8-9.6-78.1 14-87.8 52.9s14 78.1 52.9 87.8 78.1-14 87.8-52.9c3.8-15.3 2.5-31.5-3.7-46-6 5-13.5 7.8-21.2 7.8z" fill="#70d6f9"/><path d="m166.3 51.5c-4.2-1.2-8.5-1.8-12.9-1.8-12.8-.1-25 5.4-33.5 14.9-14.7 16.5-14.6 41.4-.6 58.5l28.9 35.2c2.4 2.9 6.6 3.3 9.4.9.3-.3.7-.6.9-.9l28.9-35.2c9.5-11.5 12.8-27 8.8-41.4-16-1.3-28.8-14.2-29.9-30.2z" fill="#fc657e"/><circle cx="198.9" cy="49.1" fill="#87d147" r="32.7"/><circle cx="153.4" cy="93.9" fill="#ef4460" r="30.8"/><circle cx="153.4" cy="93.9" fill="#70d6f9" r="21.5"/><path d="m191.8 62.1-9.8-9.8c-2.2-2.2-2.2-5.7 0-7.8 2.2-2.2 5.7-2.2 7.8 0l5.9 5.9 12.5-12.5c2.2-2.1 5.7-2.1 7.8.1 2.1 2.1 2.1 5.6 0 7.7l-16.4 16.4c-2.1 2.1-5.6 2.1-7.8 0z" fill="#edf4fc"/><path d="m117 203.3h-2.2v-2.3c0-1.7-1.4-3-3-3-1.7 0-3 1.4-3 3v2.2h-2.2c-1.7 0-3 1.4-3 3 0 1.7 1.4 3 3 3h2.2v2.2c0 1.7 1.4 3 3 3 1.7 0 3-1.4 3-3v-2.2h2.2c1.7 0 3-1.4 3-3 .1-1.6-1.3-2.9-3-2.9z" fill="#fc657e"/><path d="m255.8 39.5c-4.3-.8-7.7-4.1-8.5-8.4 0-.1-.1-.2-.2-.2s-.1.1-.2.2c-.9 4.3-4.2 7.6-8.5 8.4-.1 0-.2.1-.2.2s.1.2.2.2c4.3.8 7.7 4.1 8.5 8.4 0 .1.1.2.2.2s.1-.1.2-.2c.9-4.3 4.2-7.6 8.5-8.4.1 0 .2-.1.2-.2s-.1-.2-.2-.2z" fill="#f5c84c"/><path d="m47.5 121.4c-2.9-.5-5.2-2.8-5.8-5.7 0-.1-.1-.1-.2-.1s-.1.1-.1.1c-.6 2.9-2.9 5.2-5.8 5.7-.1 0-.1.1-.1.1 0 .1.1.1.1.1 2.9.5 5.2 2.8 5.8 5.7 0 .1.1.1.2.1s.1-.1.1-.1c.6-2.9 2.9-5.2 5.8-5.7.1 0 .1-.1.1-.1s-.1-.1-.1-.1z" fill="#70d6f9"/><circle cx="139.2" cy="214.4" fill="#87d147" r="3.2"/><circle cx="47.2" cy="94.4" fill="#f5c84c" r="3.2"/><circle cx="232.2" cy="14.4" fill="#fc657e" r="3.2"/><path d="m153.4 193c-50 0-90.5-40.5-90.5-90.5 0-24 9.5-47 26.5-64 25-24.9 62.2-33 95.3-20.9 1.3.5 2 1.9 1.5 3.2-.2.6-.6 1.1-1.2 1.4-14.8 7.6-20.6 25.8-13 40.6s25.8 20.6 40.6 13c7.1-3.6 12.4-9.9 14.9-17.5.4-1.3 1.8-2 3.1-1.6.6.2 1.1.6 1.4 1.1 24.6 43.5 9.4 98.7-34.1 123.3-13.5 7.9-28.8 11.9-44.5 11.9zm.1-175.8c-47.2 0-85.5 38.2-85.5 85.3 0 47.2 38.2 85.5 85.3 85.5s85.5-38.2 85.5-85.3c0-13-3-25.9-8.7-37.6-8.8 17.3-30 24.2-47.3 15.4s-24.2-30-15.4-47.3c2.5-4.9 6.1-9.1 10.5-12.4-7.8-2.4-16.1-3.6-24.4-3.6z"/><path d="m19.5 256c-2.1 0-4-.8-5.5-2.3l-11.7-11.7c-3-3-3-7.9 0-10.9l58-58c3-3 7.9-3 11 0l11.7 11.7c3 3 3 7.9 0 11l-58 58c-1.5 1.4-3.5 2.2-5.5 2.2zm46.2-80.2c-.7 0-1.4.3-1.9.8l-58 58c-1.1 1.1-1.1 2.8 0 3.9l11.7 11.7c1.1 1 2.8 1 3.9 0l58-58c1.1-1.1 1.1-2.8 0-3.9l-11.7-11.7c-.6-.5-1.3-.8-2-.8z"/><path d="m80.8 188.8c-.7 0-1.3-.3-1.8-.7l-11.1-11.1c-1-1-1-2.6 0-3.5l16.2-16.2c1-1 2.6-1 3.5 0 .1.1.1.1.1.2 1.8 2.1 3.4 4 5.2 5.7s3.6 3.4 5.7 5.2c1.1.9 1.2 2.5.3 3.5 0 .1-.1.1-.1.2l-16.2 16.2c-.5.2-1.1.5-1.8.5zm-7.6-13.6 7.6 7.6 12.5-12.5c-1.4-1.2-2.7-2.4-3.9-3.7s-2.5-2.5-3.7-3.9z"/><path d="m32.7 245c-.7 0-1.3-.3-1.8-.7l-19.1-19.1c-1-1-1-2.6 0-3.5l38.9-38.9c1-1 2.6-1 3.5 0l19.1 19.1c1 1 1 2.6 0 3.5l-38.9 38.9c-.4.4-1.1.7-1.7.7zm-15.6-21.7 15.6 15.6 35.4-35.4-15.6-15.6z"/><path d="m153.4 177.5c-41.4 0-75-33.6-75-75 0-19.9 7.9-38.9 22-53 18.5-18.7 45.5-26.2 71-19.8 1.3.3 2.2 1.7 1.8 3-.1.2-.2.5-.3.7-8.6 14.3-4 32.8 10.3 41.4 11.1 6.7 25.2 5.5 35.1-2.8 1.1-.9 2.6-.8 3.5.3.2.2.3.4.4.6 16.3 38-1.3 82.1-39.3 98.4-9.3 4.2-19.3 6.2-29.5 6.2zm-.2-144.9c-38.6.1-69.9 31.6-69.7 70.2.1 18.5 7.4 36.2 20.5 49.2 27.3 27.3 71.6 27.3 98.9 0 19.4-19.4 25.7-48.4 16-74-16 11.1-37.9 7.1-49-8.8-7.2-10.4-8.3-23.8-2.9-35.2-4.5-.9-9.1-1.4-13.8-1.4z"/><path d="m153.4 163.2c-2.8 0-5.4-1.2-7.1-3.4l-28.9-35.2c-14.8-18.1-14.5-44.6.7-61.7 8.9-10.1 21.8-15.9 35.3-15.8 4.6 0 9.2.6 13.6 1.9 1 .3 1.7 1.2 1.8 2.2 1.1 14.8 12.9 26.6 27.7 27.9 1 .1 1.9.8 2.2 1.8 4.3 15.2.8 31.5-9.2 43.7l-28.9 35.2c-1.8 2.2-4.4 3.4-7.2 3.4zm0-111.1c-12.1-.1-23.6 5-31.6 14.1-13.6 15.3-13.8 39.1-.5 55.2l28.9 35.2c1.5 1.8 4.1 2.1 5.9.6.2-.2.4-.4.6-.6l28.9-35.2c8.6-10.4 11.8-24.3 8.7-37.5-15.9-2.1-28.3-14.6-30.3-30.5-3.5-.8-7-1.3-10.6-1.3z"/><path d="m198.9 84.3c-19.4 0-35.2-15.7-35.2-35.2 0-19.4 15.7-35.2 35.2-35.2s35.1 15.8 35.1 35.2-15.7 35.2-35.1 35.2zm0-65.4c-16.7 0-30.2 13.5-30.2 30.2s13.5 30.2 30.2 30.2 30.1-13.5 30.1-30.2c0-16.6-13.5-30.1-30.1-30.2z"/><path d="m153.4 127.3c-18.4 0-33.3-14.9-33.3-33.3s14.9-33.3 33.3-33.3 33.3 14.9 33.3 33.3c0 18.3-14.9 33.2-33.3 33.3zm0-61.7c-15.7 0-28.3 12.7-28.3 28.3s12.7 28.3 28.3 28.3 28.3-12.7 28.3-28.3c0-15.6-12.6-28.3-28.3-28.3z"/><path d="m153.4 117.9c-13.3 0-24-10.7-24-24s10.7-24 24-24 24 10.7 24 24-10.7 24-24 24zm0-43c-10.5 0-19 8.5-19 19s8.5 19 19 19 19-8.5 19-19c0-10.5-8.5-19-19-19z"/><path d="m195.7 66.2c-2.1 0-4.2-.8-5.7-2.3l-9.8-9.8c-3.2-3.1-3.2-8.2-.1-11.3s8.2-3.2 11.3-.1c0 0 .1.1.1.1l4.2 4.2 10.7-10.7c3.1-3.2 8.2-3.2 11.3-.1 3.2 3.1 3.2 8.2.1 11.3 0 0-.1.1-.1.1l-16.4 16.4c-1.4 1.4-3.4 2.2-5.6 2.2zm-2.1-5.9c.6.6 1.3.9 2.1.9.8 0 1.6-.3 2.1-.9l16.4-16.4c1.2-1.2 1.2-3.1 0-4.3-1.2-1.1-3.1-1.1-4.3 0l-12.5 12.5c-1 1-2.6 1-3.5 0l-5.9-5.9c-1.2-1.1-3.1-1.1-4.3 0-1.2 1.2-1.2 3.1 0 4.3z"/></g></svg>