<?xml version="1.0"?>
<svg xmlns="http://www.w3.org/2000/svg" xmlns:xlink="http://www.w3.org/1999/xlink" version="1.1" id="Capa_1" x="0px" y="0px" viewBox="0 0 426.667 426.667" style="enable-background:new 0 0 426.667 426.667;" xml:space="preserve" width="512px" height="512px"><g><g>
	<g>
		<path d="M330.704,170.667H95.963C78.405,170.667,64,184.951,64,202.572v192.19c0,17.593,14.31,31.905,31.963,31.905h234.742    c17.557,0,31.963-14.284,31.963-31.905v-192.19C362.667,184.979,348.357,170.667,330.704,170.667z M320,384H106.667V213.333H320    V384z" data-original="#000000" class="active-path" data-old_color="#000000" fill="#0E853C"/>
	</g>
</g><g>
	<g>
		<path d="M217.082,0h-7.498c-56.815,0-102.918,46.172-102.918,102.978v81.645h42.667v-81.645c0-33.256,27.014-60.311,60.251-60.311    h7.498c33.22,0,60.251,27.032,60.251,60.311v81.645H320v-81.645C320,46.134,273.866,0,217.082,0z" data-original="#000000" class="active-path" data-old_color="#000000" fill="#0E853C"/>
	</g>
</g></g> </svg>
