<svg xmlns="http://www.w3.org/2000/svg" viewBox="0 0 500 500"><g id="freepik--background-simple--inject-75"><path d="M216.05,158.6c44.37,51,203.59-19.59,191.83,98-9.6,95.89-121.29,95.24-177.7,47.66C172.84,255.86,57,303.32,71.56,186.39c4.47-35.77,25.77-80.22,63.09-91.46C194.05,77.05,189,127.52,216.05,158.6Z" style="fill:#0E853C"></path><path d="M216.05,158.6c44.37,51,203.59-19.59,191.83,98-9.6,95.89-121.29,95.24-177.7,47.66C172.84,255.86,57,303.32,71.56,186.39c4.47-35.77,25.77-80.22,63.09-91.46C194.05,77.05,189,127.52,216.05,158.6Z" style="fill:#fff;opacity:0.9"></path></g><g id="freepik--Shadow--inject-75"><ellipse id="freepik--path--inject-75" cx="250" cy="416.24" rx="193.89" ry="11.32" style="fill:#f5f5f5"></ellipse></g><g id="freepik--Character--inject-75"><path d="M198.81,114.81c.11.61.52,1,.92,1s.64-.64.53-1.25-.52-1-.92-1S198.71,114.2,198.81,114.81Z" style="fill:#263238"></path><path d="M199.27,115.85a21.32,21.32,0,0,0,3.83,4.62,3.72,3.72,0,0,1-2.84,1.14Z" style="fill:#ed893e"></path><path d="M196,111.88a.36.36,0,0,0,.27-.12,3,3,0,0,1,2.48-1,.38.38,0,0,0,.43-.3.35.35,0,0,0-.29-.42,3.74,3.74,0,0,0-3.14,1.21.36.36,0,0,0,0,.51A.34.34,0,0,0,196,111.88Z" style="fill:#263238"></path><path d="M181.21,123.37c.94,5.63,1.73,15.95-2.33,19.71,0,0,1.37,5.72,11.84,5.72,11.51,0,5.67-5.72,5.67-5.72-6.24-1.5-5.93-6.16-4.71-10.54Z" style="fill:#ffb573"></path><path d="M178.55,144.93c-.61-2-1.26-4.25.4-4.89,1.84-.7,11.67-1.13,15,.44S196,146,196,146Z" style="fill:#0E853C"></path><path d="M178.55,144.93c-.61-2-1.26-4.25.4-4.89,1.84-.7,11.67-1.13,15,.44S196,146,196,146Z" style="opacity:0.2"></path><path d="M191.35,408c1,0,1.94-.13,2.28-.58a.7.7,0,0,0,0-.79.87.87,0,0,0-.57-.43c-1.27-.35-4,1.18-4.12,1.25a.19.19,0,0,0-.1.19.19.19,0,0,0,.14.15A14.41,14.41,0,0,0,191.35,408Zm1.26-1.49a1.37,1.37,0,0,1,.36,0,.51.51,0,0,1,.34.26c.13.22.08.34,0,.4-.38.5-2.32.51-3.75.31A8.42,8.42,0,0,1,192.61,406.54Z" style="fill:#0E853C"></path><path d="M189,407.82l.07,0c.94-.41,2.84-2.08,2.72-2.95,0-.2-.16-.46-.66-.51a1.37,1.37,0,0,0-1,.31c-1,.81-1.28,2.88-1.29,3a.18.18,0,0,0,.07.17A.2.2,0,0,0,189,407.82Zm2-3.12h.11c.33,0,.34.17.35.21.07.52-1.22,1.83-2.19,2.4a4.39,4.39,0,0,1,1.09-2.37A1,1,0,0,1,191,404.7Z" style="fill:#0E853C"></path><polygon points="180.57 407.64 188.27 407.64 189.57 389.81 181.87 389.81 180.57 407.64" style="fill:#ffb573"></polygon><polygon points="117.18 387.53 124.27 390.32 134.79 375.1 127.7 372.31 117.18 387.53" style="fill:#ffb573"></polygon><path d="M126.72,393.55c.75.61,1.58,1.1,2.11.95a.69.69,0,0,0,.5-.63.88.88,0,0,0-.16-.69c-.76-1.07-3.82-1.54-3.95-1.56a.17.17,0,0,0-.19.09.18.18,0,0,0,0,.2A13.26,13.26,0,0,0,126.72,393.55Zm1.9-.41a2,2,0,0,1,.25.25.51.51,0,0,1,.1.42c0,.26-.15.32-.23.34-.6.16-2.1-1-3.07-2.08A8.08,8.08,0,0,1,128.62,393.14Z" style="fill:#0E853C"></path><path d="M125.07,391.94l.07,0c1,.25,3.47.1,3.93-.66.11-.18.16-.47-.19-.82a1.33,1.33,0,0,0-1-.39c-1.27,0-2.78,1.51-2.84,1.57a.16.16,0,0,0,0,.17A.21.21,0,0,0,125.07,391.94Zm3.47-1.26.08.07c.23.23.16.34.14.38-.28.46-2.09.7-3.18.55a4.39,4.39,0,0,1,2.32-1.21A.9.9,0,0,1,128.54,390.68Z" style="fill:#0E853C"></path><path d="M125,390.06l-6.45-5.59a.66.66,0,0,0-.84,0L112,388.63a1.13,1.13,0,0,0-.09,1.77c2.29,1.91,3.5,2.73,6.34,5.19,1.74,1.51,5.17,4.81,7.58,6.9s4.88-.05,4.09-1.13c-3.55-4.82-4-7.62-4.27-10.14A1.81,1.81,0,0,0,125,390.06Z" style="fill:#263238"></path><path d="M188.24,406.75h-8.41a.69.69,0,0,0-.67.52l-1.73,6.85a1.09,1.09,0,0,0,1.07,1.37c3-.06,7.42-.23,11.24-.23,4.45,0,4.94.24,10.17.24,3.16,0,4.13-3.2,2.82-3.49-6-1.31-7.54-1.45-12.65-4.66A3.47,3.47,0,0,0,188.24,406.75Z" style="fill:#263238"></path><path d="M212.32,152.92l1.5,3.65c.52,1.24,1.06,2.47,1.62,3.7,1.11,2.45,2.27,4.87,3.49,7.24a65.89,65.89,0,0,0,8.33,12.88l.3.33.15.17c0,.06,0,0-.07-.06l-.14-.11a3.49,3.49,0,0,0-1.85-.69,2.77,2.77,0,0,0-1.32.2c-.18.08-.2.14-.13.1a3.42,3.42,0,0,0,.84-.62c.35-.33.74-.74,1.12-1.18a59.35,59.35,0,0,0,4.55-6.27c2.94-4.54,5.77-9.39,8.53-14.18l5.34,2.22a118.18,118.18,0,0,1-6.13,16.25,57,57,0,0,1-4.49,8c-.47.67-1,1.35-1.59,2.05a14.52,14.52,0,0,1-2.31,2.18,9.71,9.71,0,0,1-2,1.12,7.46,7.46,0,0,1-3.39.54,7.1,7.1,0,0,1-3.77-1.49l-.33-.28-.27-.23-.22-.21-.44-.42a50.5,50.5,0,0,1-6.09-7.16,80.14,80.14,0,0,1-4.83-7.6c-1.46-2.59-2.79-5.22-4-7.89-.6-1.34-1.19-2.68-1.76-4s-1.08-2.68-1.62-4.2Z" style="fill:#ffb573"></path><path d="M179.46,147.37l15.18,5.3c5.07,1.76,10.14,3.48,15.18,5,1.25.38,2.51.76,3.75,1.09l.94.26.18.05v0l.07,0a2.35,2.35,0,0,0,.74.05,10,10,0,0,0,2.7-.66,30.77,30.77,0,0,0,3.18-1.41,106.16,106.16,0,0,0,13-8.37l4.12,4.06a61.85,61.85,0,0,1-12.27,12.12,32.23,32.23,0,0,1-4,2.48,20.05,20.05,0,0,1-5,1.88,12.78,12.78,0,0,1-3.32.28l-.94-.09-.49-.08-.31-.06-1.05-.22c-1.41-.27-2.77-.58-4.15-.89-5.45-1.31-10.75-2.84-16-4.48s-10.41-3.45-15.59-5.43Z" style="fill:#ffb573"></path><path d="M233.22,149.5l3-4.92,6.34,6s-2.68,3.5-6.41,3.52Z" style="fill:#ffb573"></path><polygon points="240.87 137.99 245.34 144.37 242.58 150.63 236.24 144.58 240.87 137.99" style="fill:#ffb573"></polygon><path d="M168.8,155.8c2.24,7,23.87,11.88,23.87,11.88l9.42-16s-10.14-3-19.05-6.12C173.72,142.36,166.51,148.65,168.8,155.8Z" style="fill:#0E853C"></path><path d="M208.17,145.22s7.92,9.26-1.56,66.55H165.43c-.08-5.55,3.69-30,1.09-56.09A11.43,11.43,0,0,1,177,143.2c.62,0,1.25-.09,1.87-.12a152.54,152.54,0,0,1,17.51,0A76.38,76.38,0,0,1,208.17,145.22Z" style="fill:#0E853C"></path><path d="M199.64,143c-1.6,1.4-13.21,11.8-19.29,23.6-2.6-5.31-6.87-15.57-5.2-22.69a.55.55,0,0,0-.75-.62l-2.51,1.07a.53.53,0,0,0-.29.3c-.47,1.22-2.29,7.89,5.69,24.08l1.45,6.28s-.31,21.46-2.31,36.77h3.8s2.55-24.16,2-36.77h0l1.39-4.93s6.66-16.16,19.83-25.78a.54.54,0,0,0-.24-1l-3.09-.45A.55.55,0,0,0,199.64,143Z" style="fill:#263238"></path><path d="M197.72,153c-2.79,6.9,8.5,25.28,8.5,25.28l17.9-10.58s-7.09-8.16-11-16.75C207.84,139.12,200,147.44,197.72,153Z" style="fill:#0E853C"></path><path d="M242.71,162.81l7.48-3.11-3.67-6s-5.25.55-7.28,4a2.29,2.29,0,0,0,.63,3Z" style="fill:#ffb573"></path><polygon points="256.32 155.2 250 150.93 246.52 153.69 250.19 159.7 256.32 155.2" style="fill:#ffb573"></polygon><polygon points="259.14 152.9 235.34 156.13 233.9 149.9 257.7 146.67 259.14 152.9" style="fill:#0E853C"></polygon><path d="M245.49,149.49a.17.17,0,0,1-.17-.15.17.17,0,0,1,.15-.19l11.69-1.67a.17.17,0,0,1,0,.34l-11.69,1.67Z" style="opacity:0.30000000000000004"></path><path d="M246.62,150.17a.17.17,0,0,1-.17-.15.17.17,0,0,1,.15-.19l10.07-1.29a.17.17,0,0,1,.2.15.18.18,0,0,1-.15.19l-10.08,1.29Z" style="opacity:0.30000000000000004"></path><path d="M246.37,151.11a.18.18,0,0,1-.17-.15.17.17,0,0,1,.15-.2l11.32-1.52a.18.18,0,0,1,.05.35l-11.32,1.52Z" style="opacity:0.30000000000000004"></path><path d="M245.76,152.08a.18.18,0,0,1,0-.35L257.81,150a.18.18,0,0,1,.2.15.18.18,0,0,1-.15.19l-12.07,1.73Z" style="opacity:0.30000000000000004"></path><path d="M246.64,153a.17.17,0,0,1-.17-.15.18.18,0,0,1,.15-.2L258,151a.18.18,0,0,1,.2.14.18.18,0,0,1-.15.2L246.67,153Z" style="opacity:0.30000000000000004"></path><path d="M247.29,153.84a.18.18,0,0,1-.17-.15.17.17,0,0,1,.15-.2l10.67-1.67a.19.19,0,0,1,.2.15.17.17,0,0,1-.15.2l-10.67,1.67Z" style="opacity:0.30000000000000004"></path><polygon points="245.23 154.79 235.34 156.13 233.9 149.9 243.79 148.55 245.23 154.79" style="opacity:0.30000000000000004"></polygon><polygon points="189.57 389.81 188.9 399 181.19 399 181.87 389.81 189.57 389.81" style="opacity:0.2"></polygon><polygon points="127.7 372.31 134.79 375.1 128.95 383.54 122.27 380.16 127.7 372.31" style="opacity:0.2"></polygon><path d="M178.16,117.64c1.76,7.38,2.41,11.81,6.87,14.87,6.71,4.62,15.4-.68,15.91-8.5.45-7-2.5-17.93-10.37-19.42A10.76,10.76,0,0,0,178.16,117.64Z" style="fill:#ffb573"></path><path d="M181.88,129.3c-6.92-4.63-6.82-12.76-7.2-16.72s11.71-9.16,18.8-6.25S186.72,132.54,181.88,129.3Z" style="fill:#ffb573"></path><path d="M181.88,129.3c-6.92-4.63-6.82-12.76-7.2-16.72s11.71-9.16,18.8-6.25S186.72,132.54,181.88,129.3Z" style="fill:#263238;opacity:0.6000000000000001"></path><path d="M188.75,117.31a8.26,8.26,0,0,0,3.07,4.52c2,1.45,3.51,0,3.4-2.29-.11-2-1.27-5.23-3.48-5.8S188.2,115.11,188.75,117.31Z" style="fill:#ffb573"></path><path d="M195.18,109.67c3.23-2.94,6-7.11,2.69-10.34-.08,2.17-3.13,2.17-3.13,2.17s1.35-6.52-7.14-5.42c-7.54,1-9.25,5.5-14,6.59a11.32,11.32,0,0,0,5.86-.84s-8.12,3.86-8.35,7.59,4,7.8,4,7.8S190.8,113.67,195.18,109.67Z" style="fill:#263238"></path><path d="M192,211.77s-10.52,58.85-16,80.89c-6,24.15-42.44,90.52-42.44,90.52L121,377.13s28.1-58.38,31.82-82.28c4-25.94,12.58-83.08,12.58-83.08Z" style="fill:#263238"></path><path d="M185.84,232.74c-10.16,2-10.23,39.66-9.6,59,3.33-13.7,8.39-40.06,11.87-58.77A3.44,3.44,0,0,0,185.84,232.74Z" style="opacity:0.2"></path><path d="M206.61,211.77s-.68,57.57-2.23,81.06c-1.61,24.42-12.56,104.39-12.56,104.39h-13s1.9-78.54,2-102.53c.16-26.15-1.28-82.92-1.28-82.92Z" style="fill:#263238"></path><path d="M138,379.46s-3.77,4.26-3.77,4.26l-14.12-6.81,1.77-5.33Z" style="fill:#0E853C"></path><path d="M194.49,392c.06,0-.9,5.41-.9,5.41H177.72l-.28-4.83Z" style="fill:#0E853C"></path></g><g id="freepik--Money--inject-75"><path d="M343,152.44c-6.14-2.53-12.27,1.59-18.41-1.6q.44-4,.87-8.05c6.14,2.53,12.27-1.6,18.4,1.59Q343.47,148.39,343,152.44Z" style="fill:#0E853C"></path><path d="M341.08,144.07c-4.3-.89-8.59.75-12.89.13a11.49,11.49,0,0,1-2-.48l-.21,2c-.1,1-.2,1.91-.31,2.86-.07.66-.14,1.31-.2,2a10.45,10.45,0,0,0,2,.63c4.3.89,8.6-.75,12.89-.13a11.28,11.28,0,0,1,2,.48l.21-2c.11-1,.21-1.91.31-2.86l.21-2A10.54,10.54,0,0,0,341.08,144.07Zm1,5.35a1.61,1.61,0,0,0-1.62,1.11c-4.34-.66-8.68,1-13,.12a2.67,2.67,0,0,0-1.32-1.85c.1-1,.21-2,.31-3a1.63,1.63,0,0,0,1.63-1.12c4.34.66,8.67-1,13-.12a2.61,2.61,0,0,0,1.32,1.85C342.3,147.42,342.2,148.42,342.09,149.42Z" style="opacity:0.2"></path><path d="M336,147.45a2.19,2.19,0,0,1-1.87,1.89,1.34,1.34,0,0,1-1.51-1.56,2.21,2.21,0,0,1,1.87-1.9A1.35,1.35,0,0,1,336,147.45Z" style="opacity:0.2"></path><path d="M325.85,184.29c-5.66-3-11.39-1.48-17.05-4.93q.45-2.61.88-5.27c5.67,3,11.4,1.48,17.05,4.93Q326.29,181.63,325.85,184.29Z" style="fill:#0E853C"></path><path d="M324.12,178.21c-4-1.5-8-1.28-12-2.6a16.21,16.21,0,0,1-1.87-.75c-.07.43-.15.86-.22,1.3-.1.62-.2,1.25-.31,1.87l-.21,1.29a14.83,14.83,0,0,0,1.88.84c4,1.5,8,1.29,11.95,2.61a16.35,16.35,0,0,1,1.88.75l.21-1.3c.1-.62.21-1.25.31-1.87l.21-1.29A16.36,16.36,0,0,0,324.12,178.21ZM325,182a1.32,1.32,0,0,0-1.52.42c-4-1.36-8.06-1.12-12.07-2.64a2.61,2.61,0,0,0-1.2-1.53c.1-.65.21-1.3.32-2a1.31,1.31,0,0,0,1.52-.41c4,1.35,8.05,1.12,12.06,2.64a2.54,2.54,0,0,0,1.21,1.52C325.22,180.74,325.11,181.39,325,182Z" style="opacity:0.2"></path><path d="M319.34,179.43c-.1.63-.88,1-1.75.89s-1.49-.75-1.39-1.37.88-1,1.75-.89S319.44,178.81,319.34,179.43Z" style="opacity:0.2"></path><path d="M287.16,189.59c-6.58-.34-11.4,2-18.16,1.4-.43-1.11-.87-2.22-1.3-3.35,6.58.34,11.4-2,18.16-1.39C286.29,187.36,286.72,188.47,287.16,189.59Z" style="fill:#0E853C"></path><path d="M283.06,186.43c-4.38.12-8.09,1.26-12.4,1.49-.67,0-1.37.05-2.08,0,.11.27.21.55.32.82s.31.79.46,1.19.22.54.32.81q1.1.06,2.13,0c4.38-.12,8.08-1.26,12.39-1.48.68,0,1.37,0,2.08,0-.1-.28-.21-.55-.32-.82s-.31-.8-.46-1.19-.21-.55-.32-.82C284.45,186.42,283.75,186.41,283.06,186.43Zm2.39,2c-.73.06-1.21.32-1.27.63-4.36.21-8.1,1.37-12.52,1.49a3.3,3.3,0,0,0-1.76-.6l-.48-1.24c.73-.07,1.2-.33,1.26-.63,4.36-.22,8.1-1.38,12.52-1.49a3.27,3.27,0,0,0,1.76.59C285.12,187.65,285.29,188.06,285.45,188.48Z" style="opacity:0.2"></path><path d="M279,188.36c.16.4-.43.83-1.3,1s-1.72-.07-1.88-.47.42-.82,1.3-1S278.86,188,279,188.36Z" style="opacity:0.2"></path><path d="M291.77,155.79c-5-4.32-4.15-11.65-9.78-15.67l-6.78,4.44c5,4.31,4.15,11.65,9.78,15.66Z" style="fill:#0E853C"></path><path d="M283.43,157.85c-2.75-3.42-3.24-8-5.74-11.54a11.84,11.84,0,0,0-1.35-1.59l1.66-1.09,2.41-1.57,1.66-1.08a11.74,11.74,0,0,1,1.48,1.52c2.74,3.43,3.23,8,5.74,11.55a12.42,12.42,0,0,0,1.35,1.58L289,156.72l-2.41,1.57-1.66,1.08A10.59,10.59,0,0,1,283.43,157.85Zm5.22-1.53a1.62,1.62,0,0,1,.26-1.95c-2.57-3.56-3-8.19-5.81-11.64a2.64,2.64,0,0,1-2.25-.34L278.33,144a1.64,1.64,0,0,1-.26,2c2.56,3.56,3,8.19,5.81,11.64a2.64,2.64,0,0,1,2.25.33Z" style="opacity:0.2"></path><path d="M284.11,151.76a2.19,2.19,0,0,0,.84-2.53,1.35,1.35,0,0,0-2.08-.64,2.21,2.21,0,0,0-.84,2.53A1.35,1.35,0,0,0,284.11,151.76Z" style="opacity:0.2"></path><path d="M304,218.32c-5.28-3.79-12.12-1-17.24-5.42l2.72-7.82c5.28,3.79,12.12,1,17.24,5.42C305.77,213.09,304.87,215.7,304,218.32Z" style="fill:#0E853C"></path><path d="M304.05,209.6c-3.9-1.78-8.4-1-12.37-2.56a11,11,0,0,1-1.83-.89c-.22.64-.44,1.28-.67,1.92l-1,2.77-.66,1.91a10,10,0,0,0,1.79,1.05c3.91,1.78,8.41,1,12.37,2.55a11.08,11.08,0,0,1,1.83.9l.67-1.92,1-2.78.66-1.9A10,10,0,0,0,304.05,209.6Zm-.29,5.52a1.65,1.65,0,0,0-1.82.77c-4-1.56-8.54-.79-12.48-2.59a2.6,2.6,0,0,0-.83-2.11c.34-1,.68-1.94,1-2.91a1.64,1.64,0,0,0,1.82-.78c4,1.57,8.54.8,12.48,2.6a2.6,2.6,0,0,0,.83,2.11Z" style="opacity:0.2"></path><path d="M298.36,211.89a2.25,2.25,0,0,1-2.24,1.49,1.32,1.32,0,0,1-1.08-1.87,2.24,2.24,0,0,1,2.23-1.49A1.33,1.33,0,0,1,298.36,211.89Z" style="opacity:0.2"></path><path d="M380.12,218.52c-4.72-4.15-10.55-3.85-15.16-8.44L367,205c4.72,4.16,10.55,3.85,15.16,8.44Q381.17,216,380.12,218.52Z" style="fill:#0E853C"></path><path d="M379.89,212.12c-3.46-2.32-7.33-2.94-10.83-5.07a15.49,15.49,0,0,1-1.63-1.14c-.16.42-.33.83-.5,1.24-.25.6-.5,1.2-.74,1.8l-.51,1.23a15,15,0,0,0,1.6,1.24c3.45,2.32,7.33,2.93,10.83,5.07a17,17,0,0,1,1.62,1.14l.51-1.24.74-1.8c.17-.41.34-.82.5-1.23A16.29,16.29,0,0,0,379.89,212.12Zm-.05,4a1.26,1.26,0,0,0-1.55.1c-3.53-2.18-7.45-2.79-10.93-5.13a2.56,2.56,0,0,0-.8-1.77l.77-1.88a1.26,1.26,0,0,0,1.55-.1c3.53,2.18,7.45,2.79,10.93,5.13a2.52,2.52,0,0,0,.8,1.77Z" style="opacity:0.2"></path><path d="M375,212.34a1.43,1.43,0,0,1-1.89.52,1.39,1.39,0,0,1-1-1.66,1.43,1.43,0,0,1,1.89-.52A1.39,1.39,0,0,1,375,212.34Z" style="opacity:0.2"></path><path d="M355.3,190.2c-6.2,1.78-9.92,5.6-16.37,7.19-.74-.94-1.5-1.89-2.26-2.83,6.2-1.79,9.92-5.61,16.37-7.19Z" style="fill:#0E853C"></path><path d="M350.5,188.45c-4,1.52-7.08,3.81-11,5.42-.61.25-1.25.48-1.92.7l.56.69.81,1,.55.69c.69-.19,1.34-.41,2-.65,4-1.52,7.09-3.82,11-5.42.62-.25,1.26-.49,1.92-.7l-.55-.69-.81-1-.56-.69C351.79,188,351.13,188.21,350.5,188.45Zm2.86,1.21c-.65.3-1,.71-1,1-4,1.61-7.06,3.93-11.11,5.47a3.11,3.11,0,0,0-1.82,0l-.85-1c.66-.29,1-.7,1-1,4-1.6,7.05-3.93,11.11-5.46a3,3,0,0,0,1.82,0Z" style="opacity:0.2"></path><path d="M347.37,191.62c.28.33-.13.94-.89,1.36s-1.61.48-1.88.15.12-.94.89-1.36S347.1,191.29,347.37,191.62Z" style="opacity:0.2"></path><path d="M330.15,247.23c-4.49-4.79-2.88-12.17-8-16.7l-7.07,4c4.48,4.79,2.87,12.17,8,16.7Z" style="fill:#0E853C"></path><path d="M321.79,248.66c-2.33-3.7-2.35-8.39-4.43-12.19a11.28,11.28,0,0,0-1.16-1.72l1.74-1,2.51-1.41,1.73-1a10.59,10.59,0,0,1,1.29,1.66c2.33,3.7,2.34,8.39,4.43,12.19a11.28,11.28,0,0,0,1.16,1.72l-1.74,1-2.51,1.41-1.73,1A10.59,10.59,0,0,1,321.79,248.66Zm5.25-1.14a1.75,1.75,0,0,1,.45-2c-2.14-3.82-2.13-8.56-4.49-12.29a2.45,2.45,0,0,1-2.15-.52l-2.63,1.47a1.73,1.73,0,0,1-.45,2c2.14,3.82,2.13,8.56,4.49,12.29a2.42,2.42,0,0,1,2.15.52Z" style="opacity:0.2"></path><path d="M323.08,242.52a2.32,2.32,0,0,0,1.07-2.5,1.28,1.28,0,0,0-2-.82,2.33,2.33,0,0,0-1.08,2.5A1.29,1.29,0,0,0,323.08,242.52Z" style="opacity:0.2"></path><path d="M365.28,238.24c-6.52,1.24-9.39,8-16.27,8.74l-3.69-7.22c6.52-1.24,9.4-8,16.28-8.74C362.82,233.42,364,235.82,365.28,238.24Z" style="fill:#0E853C"></path><path d="M359.06,232.31c-4.08,1.6-6.78,5.33-10.71,7.16a11.41,11.41,0,0,1-2,.71l.9,1.77c.44.86.88,1.71,1.31,2.57l.9,1.75a11,11,0,0,0,2.05-.58c4.08-1.61,6.77-5.34,10.71-7.17a11.41,11.41,0,0,1,2-.71c-.3-.59-.6-1.18-.91-1.77L362,233.48l-.9-1.76A10.24,10.24,0,0,0,359.06,232.31Zm3.77,3.92a1.62,1.62,0,0,0-.74,1.82c-4,1.82-6.71,5.6-10.83,7.22a2.62,2.62,0,0,0-2.11-.82l-1.38-2.68a1.62,1.62,0,0,0,.75-1.83c4-1.82,6.7-5.6,10.83-7.22a2.62,2.62,0,0,0,2.11.83C361.92,234.44,362.38,235.33,362.83,236.23Z" style="opacity:0.2"></path><path d="M356.63,237.94a2.2,2.2,0,0,1-.53,2.61,1.35,1.35,0,0,1-2.12-.48,2.2,2.2,0,0,1,.52-2.61A1.35,1.35,0,0,1,356.63,237.94Z" style="opacity:0.2"></path><path d="M333.52,287.92c-5.67-3-11.39-1.48-17-4.92.29-1.75.59-3.51.88-5.28,5.67,3,11.39,1.49,17,4.93C334.11,284.39,333.81,286.15,333.52,287.92Z" style="fill:#0E853C"></path><path d="M331.79,281.84c-4-1.5-8-1.28-12-2.6a16.35,16.35,0,0,1-1.88-.75l-.21,1.3c-.1.62-.21,1.25-.31,1.87l-.21,1.29a17.18,17.18,0,0,0,1.87.85c4,1.5,8,1.28,12,2.6a16.21,16.21,0,0,1,1.87.75c.08-.43.15-.86.22-1.3.1-.62.2-1.25.31-1.87l.21-1.29A17.18,17.18,0,0,0,331.79,281.84Zm.88,3.84a1.31,1.31,0,0,0-1.52.41c-4-1.35-8-1.12-12.06-2.64a2.58,2.58,0,0,0-1.21-1.52l.33-2a1.3,1.3,0,0,0,1.51-.42c4,1.35,8.06,1.12,12.07,2.64a2.61,2.61,0,0,0,1.2,1.53C332.89,284.37,332.78,285,332.67,285.68Z" style="opacity:0.2"></path><path d="M327,283.06c-.1.63-.89,1-1.75.9s-1.49-.75-1.4-1.38.88-1,1.76-.89S327.11,282.44,327,283.06Z" style="opacity:0.2"></path><path d="M264,276.43c-4.78,4.54-6.4,9.65-11.49,14.14l-3.32-1.36c4.78-4.54,6.39-9.65,11.48-14.14Z" style="fill:#0E853C"></path><path d="M258.85,277.23c-2.93,3.26-4.65,6.74-7.45,10-.44.51-.91,1-1.41,1.53l.82.33,1.18.48.81.33c.53-.5,1-1,1.48-1.52,2.93-3.26,4.65-6.73,7.45-10,.44-.52.91-1,1.41-1.54l-.82-.33-1.18-.48-.81-.33C259.8,276.21,259.31,276.72,258.85,277.23Zm3.13-.33c-.46.57-.6,1.1-.42,1.36-2.84,3.31-4.57,6.82-7.53,10.11a3.21,3.21,0,0,0-1.64.86l-1.24-.5c.46-.57.6-1.1.41-1.35,2.85-3.31,4.58-6.82,7.53-10.11a3.26,3.26,0,0,0,1.65-.87Z" style="opacity:0.2"></path><path d="M257.47,281.49c.4.16.31.88-.19,1.61s-1.23,1.2-1.62,1-.31-.88.18-1.61S257.07,281.34,257.47,281.49Z" style="opacity:0.2"></path><path d="M293.82,267.23c-1.86-6.37,2.89-12,.37-18.47h-8.1c1.86,6.37-2.89,12-.38,18.47Z" style="fill:#0E853C"></path><path d="M285.7,264.4c-.43-4.37,1.67-8.47,1.51-12.81a12.47,12.47,0,0,0-.26-2.07h6.84a11.09,11.09,0,0,1,.41,2.08c.42,4.37-1.67,8.47-1.51,12.8a12.34,12.34,0,0,0,.26,2.07h-6.84A11.25,11.25,0,0,1,285.7,264.4Zm5.21,1.57a1.64,1.64,0,0,1,1.29-1.5c-.21-4.38,1.93-8.51,1.49-12.92A2.63,2.63,0,0,1,292,250h-3a1.62,1.62,0,0,1-1.29,1.49c.2,4.39-1.93,8.52-1.5,12.93a2.57,2.57,0,0,1,1.7,1.51Z" style="opacity:0.2"></path><path d="M289.61,259.66a2.19,2.19,0,0,0,2.08-1.65,1.36,1.36,0,0,0-1.39-1.68,2.21,2.21,0,0,0-2.09,1.66A1.35,1.35,0,0,0,289.61,259.66Z" style="opacity:0.2"></path><path d="M304.78,327.82c-.34-6.49-6.81-10.06-6.54-16.84l7.8-2.77c.34,6.49,6.82,10.07,6.55,16.85Z" style="fill:#0E853C"></path><path d="M311.65,322.44c-1-4.16-4.44-7.21-5.74-11.25a10.49,10.49,0,0,1-.44-2l-1.92.68-2.77,1-1.9.67a10.55,10.55,0,0,0,.3,2.06c1.06,4.16,4.44,7.21,5.74,11.25a10.08,10.08,0,0,1,.44,2l1.92-.68,2.77-1,1.9-.68A10.55,10.55,0,0,0,311.65,322.44Zm-4.49,3.23a1.64,1.64,0,0,0-1.74-.94c-1.27-4.09-4.72-7.16-5.77-11.36a2.63,2.63,0,0,0,1.12-2l2.9-1a1.63,1.63,0,0,0,1.75.94c1.27,4.09,4.71,7.16,5.77,11.36a2.61,2.61,0,0,0-1.13,2Z" style="opacity:0.2"></path><path d="M306.3,319.43a2.25,2.25,0,0,1-2.56-.81,1.32,1.32,0,0,1,.78-2,2.24,2.24,0,0,1,2.56.81A1.32,1.32,0,0,1,306.3,319.43Z" style="opacity:0.2"></path><path d="M391.31,179.19c-4.72-4.16-10.56-3.85-15.17-8.44.7-1.68,1.39-3.36,2.09-5.06,4.71,4.15,10.55,3.85,15.16,8.44C392.7,175.81,392,177.49,391.31,179.19Z" style="fill:#0E853C"></path><path d="M391.07,172.79c-3.45-2.32-7.33-2.94-10.83-5.08a15.27,15.27,0,0,1-1.62-1.13l-.51,1.24-.73,1.8-.51,1.23a15.27,15.27,0,0,0,1.6,1.24c3.45,2.32,7.33,2.93,10.83,5.07a15.38,15.38,0,0,1,1.62,1.14l.51-1.24.73-1.8.51-1.23A14,14,0,0,0,391.07,172.79Zm-.05,4a1.26,1.26,0,0,0-1.55.1c-3.52-2.18-7.44-2.79-10.93-5.14a2.52,2.52,0,0,0-.79-1.76c.25-.63.51-1.26.77-1.88a1.26,1.26,0,0,0,1.55-.1c3.52,2.18,7.44,2.79,10.93,5.13a2.56,2.56,0,0,0,.79,1.77C391.54,175.53,391.28,176.15,391,176.78Z" style="opacity:0.2"></path><path d="M386.21,173a1.42,1.42,0,0,1-1.88.52,1.39,1.39,0,0,1-1-1.66,1.42,1.42,0,0,1,1.88-.52A1.38,1.38,0,0,1,386.21,173Z" style="opacity:0.2"></path><path d="M386.71,267.19c-6.21,1.79-9.92,5.61-16.37,7.19l-2.27-2.83c6.21-1.78,9.92-5.6,16.37-7.19Z" style="fill:#0E853C"></path><path d="M381.9,265.45c-4,1.51-7.08,3.81-11,5.41-.61.26-1.25.49-1.91.7.18.24.37.47.55.7l.81,1,.55.69c.69-.19,1.35-.41,2-.65,4-1.52,7.08-3.82,11-5.42.61-.25,1.25-.49,1.92-.7-.19-.23-.38-.46-.56-.7l-.81-1-.55-.69C383.19,265,382.54,265.21,381.9,265.45Zm2.87,1.21c-.66.3-1,.7-1,1-4,1.61-7.05,3.93-11.11,5.47a3,3,0,0,0-1.82,0l-.84-1.05c.65-.3,1-.7,1-1,4-1.61,7.05-3.93,11.11-5.46a3,3,0,0,0,1.82,0Z" style="opacity:0.2"></path><path d="M378.78,268.62c.27.33-.13.94-.9,1.36s-1.61.48-1.88.15.13-.94.89-1.36S378.51,268.28,378.78,268.62Z" style="opacity:0.2"></path><path d="M341.88,348.33c-6.2,1.79-9.92,5.61-16.36,7.19l-2.27-2.83c6.2-1.78,9.92-5.6,16.37-7.19C340.37,346.44,341.12,347.39,341.88,348.33Z" style="fill:#0E853C"></path><path d="M337.08,346.58c-4,1.52-7.08,3.82-11,5.42-.61.26-1.25.49-1.92.7l.56.7.81,1,.55.69c.69-.2,1.34-.42,2-.65,4-1.52,7.08-3.82,11-5.42.61-.26,1.25-.49,1.91-.7l-.55-.7-.81-1-.55-.69C338.37,346.13,337.71,346.35,337.08,346.58Zm2.86,1.22c-.65.3-1,.7-1,1-4,1.61-7.06,3.93-11.11,5.46a3.12,3.12,0,0,0-1.82,0l-.85-1c.66-.3,1-.7,1-1,4-1.61,7.05-3.93,11.11-5.46a3.12,3.12,0,0,0,1.82,0Z" style="opacity:0.2"></path><path d="M334,349.76c.27.33-.13.93-.9,1.36s-1.61.48-1.88.15.13-.94.89-1.36S333.68,349.42,334,349.76Z" style="opacity:0.2"></path><path d="M253.2,242.34c2.2-6.18,9.49-8.14,11.18-14.74l-6.77-4.46c-2.19,6.18-9.49,8.15-11.17,14.75Z" style="fill:#0E853C"></path><path d="M248.1,235.58c2.21-3.77,6.36-5.94,8.78-9.54a11,11,0,0,0,1-1.82l1.66,1.1,2.4,1.59,1.65,1.08a11.6,11.6,0,0,1-.88,1.92c-2.22,3.77-6.37,5.93-8.79,9.53a11.42,11.42,0,0,0-1,1.82l-1.66-1.09-2.4-1.59-1.65-1.09A10.77,10.77,0,0,1,248.1,235.58Zm3.42,4.14a1.73,1.73,0,0,1,1.95-.5c2.41-3.66,6.63-5.83,8.86-9.64a2.45,2.45,0,0,1-.53-2.15l-2.52-1.67a1.71,1.71,0,0,1-1.95.51c-2.41,3.66-6.62,5.82-8.85,9.64a2.46,2.46,0,0,1,.53,2.15Z" style="opacity:0.2"></path><path d="M254.14,233.9a2.33,2.33,0,0,0,2.71-.19,1.29,1.29,0,0,0-.18-2.13,2.32,2.32,0,0,0-2.71.2A1.28,1.28,0,0,0,254.14,233.9Z" style="opacity:0.2"></path><path d="M255.34,148.59c6.06-2.6,11.39-2.08,17.52-5l.06-3.59c-6.06,2.6-11.39,2.08-17.52,5Z" style="fill:#0E853C"></path><path d="M258.1,144.2c4.14-1.41,8-1.62,12.13-2.91.65-.2,1.3-.43,2-.69,0,.29,0,.59,0,.88s0,.85,0,1.27,0,.59,0,.88c-.67.29-1.32.54-2,.76-4.15,1.41-8,1.63-12.14,2.92-.64.2-1.3.43-2,.69,0-.29,0-.59,0-.88s0-.85,0-1.28,0-.58,0-.87C256.78,144.68,257.44,144.43,258.1,144.2ZM256.56,147c.71-.19,1.25-.11,1.41.15,4.16-1.31,8.07-1.52,12.26-2.95a3.26,3.26,0,0,1,1.44-1.17c0-.44,0-.89,0-1.33-.7.19-1.24.11-1.4-.16-4.17,1.32-8.07,1.53-12.26,2.95a3.15,3.15,0,0,1-1.44,1.18Z" style="opacity:0.2"></path><path d="M262.55,144.61c0,.43.69.63,1.56.46s1.59-.66,1.6-1.08-.68-.63-1.56-.46S262.57,144.19,262.55,144.61Z" style="opacity:0.2"></path><path d="M244.09,147.61c5.54-3.59,10.88-4,16.43-7.88-.18-1.17-.37-2.36-.55-3.55-5.53,3.59-10.88,4-16.43,7.89C243.73,145.24,243.91,146.42,244.09,147.61Z" style="fill:#0E853C"></path><path d="M246.07,142.82c3.85-2.09,7.63-3,11.47-4.92.6-.3,1.21-.64,1.82-1,0,.29.09.58.13.87s.13.84.19,1.26.09.58.14.87q-.92.6-1.83,1.08c-3.85,2.09-7.63,3-11.47,4.92-.6.31-1.21.65-1.82,1,0-.29-.09-.58-.13-.87s-.13-.84-.19-1.26-.09-.58-.14-.87C244.85,143.51,245.46,143.15,246.07,142.82Zm-1,3c.66-.31,1.21-.32,1.41-.09,3.88-2,7.7-2.86,11.58-5a3.29,3.29,0,0,1,1.23-1.4c-.07-.44-.13-.88-.2-1.32-.67.31-1.21.32-1.42.09-3.88,2-7.69,2.86-11.58,5a3.24,3.24,0,0,1-1.22,1.4C244.89,144.91,245,145.35,245,145.79Z" style="opacity:0.2"></path><path d="M250.53,142.47c.06.43.78.51,1.61.19s1.45-.91,1.4-1.34-.78-.5-1.62-.19S250.47,142.05,250.53,142.47Z" style="opacity:0.2"></path></g></svg>