<?xml version="1.0" encoding="utf-8"?>
<!-- Generator: Adobe Illustrator 24.0.1, SVG Export Plug-In . SVG Version: 6.00 Build 0)  -->
<svg version="1.1" id="Layer_1"
	xmlns="http://www.w3.org/2000/svg"
	xmlns:xlink="http://www.w3.org/1999/xlink" x="0px" y="0px" viewBox="0 0 341.09 360.47" style="enable-background:new 0 0 341.09 360.47;" xml:space="preserve">
	<style type="text/css">
	.st0{fill:#108542;}
	.st1{fill:#FFFFFF;}
	.st2{fill:#F6F6F5;}
	</style>
	<g>
		<path class="st0" d="M291.95,127.83c-1.83,3.77-4.65,6.47-7.52,9.09c-3.23,2.95-7.18,2.08-8.83-1.99
		c-1.65-4.07-3.32-8.18-4.48-12.41c-1.51-5.56-4.73-9.9-8.49-14.04c-1.33-1.46-2.63-2.23-4.81-1.46c1.76,3.52-0.06,5.88-2.52,8.15
		c-7.62,7.04-16.4,12.05-26.25,15.23c-3.29,1.06-5.27,0.4-6.92-2.69c-4.46-8.32-8.79-16.7-13.15-25.07
		c-0.34-0.66-0.68-1.42-0.69-2.14c-0.08-7.04-5.25-9.65-10.52-12.14c-1.58-0.75-3.34-1.14-4.91-1.91c-2.6-1.29-3.59-3.81-2.67-6.3
		c0.99-2.68,3.53-3.97,6.36-3.41c9.08,1.79,15.2,7.92,21.12,14.34c0.72,0.78,1.05,1.82,0.89,2.81c-0.63,4.07,1.42,7.29,3.16,10.62
		c2.5,4.78,5.02,9.56,7.66,14.56c6.31-2.31,11.83-5.6,16.93-10.04c-1.44-2.53-2.63-4.97-1.45-7.89c0.98-2.42,2.65-4.45,5.05-4.66
		c8.04-0.69,15.9-1.43,21.95,6.39c4.24,5.49,7.81,11.03,9.73,18.59c1.14-4.58,2.7-8.01,5.87-10.39c1.85-1.38,0.81-3,0.38-4.44
		c-5.73-19.17-15.43-36.06-29.42-50.38c-20.29-20.77-45.03-32.61-73.73-36.44c-2.03-0.27-3.22,0.36-4.43,1.95
		c-3.82,5.01-7.88,9.85-11.72,14.85c-1.61,2.09-3.57,3.4-6.05,4.24c-9.52,3.24-18.98,6.64-28.5,9.89c-1.91,0.65-3.19,1.57-3.93,3.56
		c-1.71,4.59-3.58,9.13-5.56,13.62c-0.7,1.58-0.7,2.73,0.38,4.12c2.14,2.75,4.11,5.63,6.33,8.71c4.23-5.73,9.42-9.42,16.22-10.66
		c2.27-0.41,4.53-0.41,6.78-0.31c3.23,0.14,5.27,2.28,5.25,5.25c-0.01,3-2.02,5.07-5.3,5.19c-2.77,0.1-5.56-0.08-8.15,1.18
		c-3.3,1.61-5.76,3.96-6.82,7.21c4.66,0,9.29-0.01,13.93,0c3.09,0.01,6.02,0.69,8.59,2.45c1.6,1.09,3.17,2.6,3.02,4.56
		c-0.34,4.55,3.06,5.41,6,7.02c3.71-4.21,7.95-5.62,13.23-3.55c2.56,1.01,5.29,1.62,7.96,2.32c6.57,1.71,11.04,5.81,13.7,11.97
		c2.54,5.88,5.05,11.79,7.58,17.67c2.29,5.32,5.7,8.59,12.05,9.24c9.23,0.95,11.86,7.75,6.64,15.48c-3,4.44-7.02,7.94-10.93,11.49
		c-4.85,4.4-6.92,9.12-4.44,15.75c2.1,5.64,0.39,10.97-3.74,15.33c-2.55,2.68-4.15,5.84-5.94,9.04c-2.8,5.01-5.27,10.14-7.86,15.22
		c-3.37,6.59-9.47,11-16.89,13.04c-4.79,1.32-9.16,0.16-11.64-4c-6.34-10.62-10.74-22.12-13.9-34.06c-0.92-3.49,0.4-7,1.6-10.33
		c1.65-4.56,1.25-8.56-2.42-12.1c-2.94-2.84-4.16-6.47-4.22-10.59c-0.06-4.55-1.43-5.57-5.87-4.54c-4.43,1.03-8.82,2.19-13.43,1.65
		c-22.09-2.62-33.75-25.47-22.93-44.97c0.91-1.65,1.89-3.31,3.12-4.72c5.16-5.88,9.71-12.23,14.81-18.69
		c-4.06-5.69-8.1-11.59-12.41-17.28c-2.3-3.04-2.81-5.79-1.16-9.38c2.89-6.28,5.45-12.71,7.9-19.18c1.14-3.01,3.1-4.64,6.05-5.63
		c9.17-3.09,18.27-6.4,27.45-9.46c3.34-1.11,6.04-2.77,8.04-5.76c1.64-2.46,3.65-4.68,5.96-7.58c-27.98,0.78-52.27,9.38-73.96,26.02
		c1.05,0.88,2,1.65,2.93,2.45c9.11,7.95,11.06,21.84,3.17,30.51c-7.17,7.88-12.15,16.96-17.2,26.06
		c-2.77,4.99-5.99,9.24-10.97,12.08c-1.08,0.62-2.01,1.49-3.21,2.41c1.95,2.89,3.87,5.66,5.71,8.48c2.85,4.39,1.17,8.24-4.03,9.09
		c-4.97,0.81-9.98,1.41-14.96,2.18c-3.09,0.48-5.63-0.44-8.15-3.47c-0.24,5.04-0.39,9.2,0.17,13.81c3.94-1.25,7.66-2.29,11.28-3.62
		c3.03-1.11,5.53-0.73,8.06,1.32c4.41,3.56,9.24,6.64,13.45,10.42c5.1,4.57,10.96,6.69,17.6,7.67c8.36,1.24,13.39,6.33,14.66,14.08
		c0.18,1.11,0.47,2.38,0.12,3.37c-1.55,4.45-0.39,8.54,0.9,12.84c2.52,8.38-1.55,16.52-9.71,19.56c-2.39,0.89-3.24,2.24-3.64,4.5
		c-1.2,6.81-2.53,13.61-3.87,20.76c7.21,5.69,15.23,10.33,23.77,14c29.52,12.67,59.51,13.76,89.9,3.28
		c1.07-0.37,2.14-0.76,3.22-1.08c3.09-0.93,5.7,0.24,6.8,2.99c1.06,2.67-0.13,5.53-3.16,6.75c-5.6,2.26-11.4,3.99-17.28,5.35
		c-66.49,15.36-133.54-21.9-155.83-86.57C18.9,109.1,65.7,27.08,143.51,11.35C216.1-3.32,286.4,42.34,300.56,114.97
		c10.07,51.66-6.3,95.14-46.23,129.59c-0.57,0.49-1.15,0.99-1.79,1.4c-2.48,1.58-5.38,1.16-7.12-0.99
		c-1.76-2.18-1.54-4.97,0.63-7.14c0.71-0.71,1.55-1.29,2.32-1.94c25.47-21.46,39.92-48.78,43.71-81.84
		c0.75-6.55,0.67-13.1,0.55-19.65C292.6,132.2,292.19,130.02,291.95,127.83z"/>
		<path class="st0" d="M220.75,214.59c0.05-0.27,0.15-1.27,0.4-2.24c1.21-4.68,2.85-9.13,2.35-14.27c-0.46-4.71,2.6-8.45,6.95-10.31
		c4.28-1.82,6.9-4.79,8.39-9.02c0.25-0.7,0.62-1.38,1.03-2.01c1.19-1.86,2.89-2.71,5.12-2.48c2.27,0.23,3.71,1.53,4.36,3.61
		c1.91,6.11,3.54,12.1,0.85,18.62c-2.28,5.54-3.56,11.49-5.36,17.23c-1.02,3.24-2.36,6.36-4.31,9.16
		c-5.02,7.21-12.59,7.15-17.53-0.12C221.48,220.52,220.66,218.06,220.75,214.59z"/>
		<path class="st0" d="M177.07,70.01c3.03-0.08,5.67,2.39,5.7,5.33c0.02,2.74-2.14,5.04-4.9,5.19c-3.21,0.18-5.71-2-5.82-5.06
		C171.93,72.5,174.16,70.08,177.07,70.01z"/>
		<path class="st0" d="M235.75,247.02c2.97-0.02,5.32,2.3,5.29,5.22c-0.03,2.75-2.59,5.28-5.38,5.32c-2.84,0.04-5.26-2.43-5.22-5.33
		C230.48,249.25,232.73,247.04,235.75,247.02z"/>
		<path class="st1" d="M180.64,226.1c-1.72-2.01-2.53-3.85-3.29-5.71c-2.51-6.17-4.96-12.36-7.54-18.5
		c-1.54-3.65-1.75-7.16-0.37-10.97c2.99-8.24,2.04-15.87-4.36-22.33c-1.48-1.49-1.82-3.29-1.69-5.21
		c0.61-9.37-8.54-15.64-17.45-13.56c-3.9,0.91-7.78,2.22-11.9,1.66c-13.02-1.75-20.34-14.84-15.22-27.25
		c0.87-2.11,1.97-4.09,3.47-5.81c4.22-4.85,8.28-9.84,11.94-15.13c1.4-2.03,3.35-2.86,5.72-3.18c4.51-0.6,9.03-0.75,13.91-0.7
		c-0.45,4.2,2.32,6.17,5.47,7.95c2.63,1.49,5.05,3.34,7.72,4.74c6.52,3.41,9.9,2.8,15.12-2.44c0.24-0.05,0.5-0.18,0.71-0.12
		c12.96,3.79,12.2,1.93,17.69,15.74c1.95,4.91,4.02,9.78,6.64,14.37c3.43,6.01,8.22,10.15,15.47,10.68
		c0.32,0.02,0.63,0.31,1.25,0.63c-1.48,2.21-3.36,3.83-5.14,5.54c-3.09,2.97-6.29,5.82-8.81,9.34c-3.7,5.15-5.04,10.82-2.88,16.79
		c1.69,4.67,0.93,8.2-2.82,11.41c-2.32,1.99-3.82,4.68-4.76,7.6c-0.6,1.85-1.61,3.39-2.89,4.81c-1.89,2.08-3.49,4.39-3.95,7.19
		C191.53,220.61,186.27,223.36,180.64,226.1z"/>
		<path class="st1" d="M50.99,160.08c0.53-0.48,0.61-0.6,0.71-0.64c3.94-1.25,8.1-3.88,11.77-3.33c3.52,0.53,6.55,4.36,9.79,6.74
		c0.81,0.6,1.68,1.14,2.4,1.83c6.5,6.24,14.27,9.48,23.21,10.49c4.98,0.56,6.49,3.25,5.28,8.26c-0.96,3.97-0.34,7.72,0.92,11.49
		c2.33,6.96,1.54,8.85-5.3,10.84c-4.03,1.17-6.03,3.32-6.62,7.54c-0.87,6.18-2.33,12.28-3.64,18.9
		C68.36,212.2,55.57,188.33,50.99,160.08z"/>
		<path class="st1" d="M63.9,126.77c-5.52,2.84-8.5-0.7-11.72-3.7c-1.6-1.5-0.54-3.17-0.26-4.59c3.91-19.71,11.99-37.52,24.54-53.27
		c2.99-3.75,6.22-7.28,9.59-10.7c1.08-1.1,1.99-1.57,3.61-0.83c7.11,3.25,9.99,12.85,4.57,18.37c-7.95,8.09-12.64,18.1-18.2,27.62
		c-1.88,3.22-4.01,5.99-7.21,7.98c-2.67,1.66-5.21,3.54-7.69,5.48c-2.79,2.18-3.16,4.59-1.29,7.6
		C61.09,122.74,62.48,124.67,63.9,126.77z"/>
		<path class="st2" d="M239.5,195.14c-2.36,7.31-3.69,14.73-7.36,21.6c-0.89-2.11-0.98-2.15-0.24-4.06
		c1.58-4.14,3.01-8.21,1.93-12.83C233.33,197.71,234.3,197.13,239.5,195.14z"/>
	</g>
	<g>
		<g>
			<path class="st0" d="M30.66,351.61c-2.23-1.29-3.94-3.14-5.15-5.55c-1.21-2.41-1.81-5.27-1.81-8.58v-20c0-3.3,0.6-6.16,1.81-8.58
			c1.21-2.41,2.92-4.27,5.15-5.57c2.23-1.3,4.85-1.95,7.88-1.95c2.88,0,5.38,0.59,7.51,1.76c2.12,1.17,3.8,2.88,5.04,5.12
			c1.24,2.24,1.97,4.94,2.18,8.1h-6.01c-0.21-1.95-0.7-3.6-1.48-4.97s-1.78-2.42-3.02-3.15c-1.24-0.73-2.65-1.09-4.22-1.09
			c-1.81,0-3.36,0.42-4.68,1.25c-1.31,0.83-2.33,2.03-3.06,3.59c-0.73,1.56-1.09,3.39-1.09,5.5v20c0,2.11,0.36,3.94,1.09,5.5
			c0.73,1.56,1.75,2.75,3.06,3.57c1.31,0.82,2.87,1.23,4.68,1.23c1.59,0,3.01-0.36,4.24-1.07s2.23-1.76,3.01-3.13
			s1.27-3.04,1.48-5.01h6.01c-0.21,3.16-0.94,5.87-2.2,8.1c-1.25,2.24-2.94,3.94-5.06,5.12c-2.12,1.17-4.61,1.76-7.47,1.76
			C35.51,353.54,32.88,352.9,30.66,351.61z"/>
			<path class="st0" d="M68.12,351.66c-2.31-1.25-4.07-3.08-5.29-5.47c-1.22-2.39-1.83-5.21-1.83-8.47v-20.53
			c0-3.28,0.61-6.11,1.83-8.49c1.22-2.38,2.98-4.2,5.29-5.45c2.31-1.25,5.04-1.88,8.21-1.88s5.9,0.63,8.21,1.88
			c2.31,1.25,4.07,3.07,5.29,5.45c1.22,2.38,1.83,5.21,1.83,8.49v20.53c0,3.26-0.61,6.08-1.83,8.47c-1.22,2.39-2.98,4.21-5.29,5.47
			c-2.31,1.25-5.04,1.88-8.21,1.88S70.42,352.91,68.12,351.66z M81.3,346.58c1.39-0.77,2.46-1.89,3.2-3.36s1.11-3.23,1.11-5.29
			v-20.95c0-2.06-0.37-3.83-1.11-5.29s-1.81-2.58-3.2-3.36c-1.39-0.77-3.05-1.16-4.97-1.16c-1.92,0-3.58,0.39-4.97,1.16
			c-1.39,0.77-2.47,1.89-3.22,3.36c-0.75,1.46-1.13,3.23-1.13,5.29v20.95c0,2.06,0.37,3.83,1.13,5.29c0.75,1.46,1.82,2.58,3.22,3.36
			c1.39,0.77,3.05,1.16,4.97,1.16C78.25,347.74,79.91,347.35,81.3,346.58z"/>
			<path class="st0" d="M100.97,301.9h6.01v51.12h-6.01V301.9z M104.56,347.35h23.45v5.66h-23.45V347.35z"/>
			<path class="st0" d="M146.5,301.9h6.12l15.33,51.12h-6.54l-11.85-43.28l-11.85,43.28h-6.54L146.5,301.9z M139.04,335.61h21.59
			v5.59h-21.59V335.61z"/>
			<path class="st0" d="M174.1,301.9h5.94v51.12h-5.94V301.9z M178.31,347.46h11.57c2.76,0,4.8-0.57,6.12-1.71
			c1.31-1.14,1.97-2.74,1.97-4.8v-4.01c0-1.59-0.28-2.96-0.83-4.11c-0.55-1.15-1.38-2.02-2.48-2.62c-1.1-0.6-2.46-0.9-4.08-0.9
			h-12.27v-5.52h12.27c2.2,0,3.87-0.58,5.01-1.74c1.14-1.16,1.71-2.87,1.71-5.12v-3.13c0-2.11-0.61-3.7-1.83-4.76
			c-1.22-1.07-3-1.6-5.34-1.6h-11.81v-5.55h12.34c2.74,0,5.06,0.47,6.94,1.41c1.89,0.94,3.31,2.27,4.27,4.01
			c0.96,1.73,1.44,3.81,1.44,6.22v3.13c0,1.64-0.28,3.16-0.84,4.55s-1.4,2.57-2.51,3.52c-1.11,0.95-2.48,1.59-4.1,1.92
			c1.69,0.26,3.14,0.88,4.36,1.88c1.22,1,2.15,2.25,2.79,3.76c0.64,1.51,0.97,3.21,0.97,5.08v3.83c0,2.41-0.5,4.51-1.51,6.29
			c-1.01,1.78-2.46,3.15-4.34,4.1c-1.89,0.95-4.12,1.42-6.7,1.42h-13.11V347.46z"/>
			<path class="st0" d="M219.01,351.66c-2.31-1.25-4.07-3.08-5.29-5.47s-1.83-5.21-1.83-8.47v-20.53c0-3.28,0.61-6.11,1.83-8.49
			s2.98-4.2,5.29-5.45s5.04-1.88,8.21-1.88s5.9,0.63,8.21,1.88s4.07,3.07,5.29,5.45s1.83,5.21,1.83,8.49v20.53
			c0,3.26-0.61,6.08-1.83,8.47s-2.98,4.21-5.29,5.47s-5.04,1.88-8.21,1.88S221.32,352.91,219.01,351.66z M232.19,346.58
			c1.39-0.77,2.46-1.89,3.2-3.36s1.11-3.23,1.11-5.29v-20.95c0-2.06-0.37-3.83-1.11-5.29s-1.8-2.58-3.2-3.36s-3.05-1.16-4.97-1.16
			s-3.58,0.39-4.97,1.16s-2.47,1.89-3.22,3.36s-1.13,3.23-1.13,5.29v20.95c0,2.06,0.38,3.83,1.13,5.29s1.82,2.58,3.22,3.36
			s3.05,1.16,4.97,1.16S230.8,347.35,232.19,346.58z"/>
			<path class="st0" d="M251.86,301.86h6.01v51.15h-6.01V301.86z M254.99,325.73h13.43c1.5,0,2.81-0.3,3.92-0.91s1.96-1.5,2.55-2.67
			s0.89-2.54,0.91-4.11v-2.64c0-1.59-0.3-2.99-0.9-4.18s-1.45-2.11-2.55-2.74s-2.41-0.95-3.94-0.95h-13.43v-5.66h13.04
			c2.84,0,5.3,0.53,7.38,1.58s3.69,2.58,4.8,4.57s1.67,4.34,1.67,7.03v2.99c0,2.72-0.56,5.09-1.69,7.1s-2.72,3.56-4.8,4.64
			s-4.53,1.62-7.37,1.62h-13.04V325.73z M267.4,329.81l5.66-1.62l10.62,24.82h-6.93L267.4,329.81z"/>
			<path class="st0" d="M291.59,301.9h6.01v51.12h-6.01V301.9z M295.07,301.9h23.91v5.66h-23.91V301.9z M295.07,324.82h21.09v5.63
			h-21.09V324.82z M295.07,347.35h23.91v5.66h-23.91V347.35z"/>
		</g>
	</g>
</svg>
